{
date = "2015-07-03 17:03:13 +0000";
familyName = "Arima Koshi";
fontMaster = (
{
alignmentZones = (
"{500, 12}",
"{0, -12}"
);
ascender = 800;
capHeight = 700;
descender = -200;
guideLines = (
{
locked = 1;
position = "{407, -167}";
},
{
position = "{331, 546}";
},
{
position = "{332, 531}";
},
{
position = "{323, 301}";
}
);
id = "60CFBDE8-BC08-4808-BF41-F011F3E03A54";
userData = {
GSOffsetHorizontal = 15;
GSOffsetMakeStroke = 1;
GSOffsetVertical = 14;
};
weight = Light;
weightValue = 30;
xHeight = 500;
},
{
alignmentZones = (
"{520, 15}",
"{0, -15}"
);
ascender = 800;
capHeight = 700;
descender = -200;
guideLines = (
{
position = "{291, 566}";
},
{
position = "{248, -209}";
},
{
locked = 1;
position = "{323, 207}";
},
{
position = "{257, 548}";
}
);
id = "EBFFFCD3-BAE4-48A5-9442-B72A90AD34A8";
userData = {
GSCornerRadius = 75;
};
weight = Bold;
weightValue = 160;
xHeight = 520;
}
);
glyphs = (
{
glyphname = a;
lastChange = "2015-07-06 15:56:01 +0000";
layers = (
{
layerId = "EBFFFCD3-BAE4-48A5-9442-B72A90AD34A8";
name = Bold;
paths = (
{
closed = 1;
nodes = (
"558 -10 OFFCURVE",
"596 27 OFFCURVE",
"596 70 CURVE SMOOTH",
"596 84 OFFCURVE",
"592 103 OFFCURVE",
"582 118 CURVE",
"576 110 OFFCURVE",
"563 108 OFFCURVE",
"556 108 CURVE SMOOTH",
"533 108 OFFCURVE",
"522 126 OFFCURVE",
"522 161 CURVE SMOOTH",
"522 318 LINE SMOOTH",
"522 478 OFFCURVE",
"452 535 OFFCURVE",
"293 535 CURVE SMOOTH",
"157 535 OFFCURVE",
"67 490 OFFCURVE",
"67 409 CURVE SMOOTH",
"67 355 OFFCURVE",
"107 314 OFFCURVE",
"178 314 CURVE SMOOTH",
"211 314 OFFCURVE",
"243 323 OFFCURVE",
"260 340 CURVE",
"232 358 OFFCURVE",
"226 388 OFFCURVE",
"226 415 CURVE SMOOTH",
"226 467 OFFCURVE",
"248 491 OFFCURVE",
"287 491 CURVE SMOOTH",
"345 491 OFFCURVE",
"362 436 OFFCURVE",
"362 328 CURVE SMOOTH",
"362 303 LINE",
"325 300 OFFCURVE",
"279 296 OFFCURVE",
"225 281 CURVE SMOOTH",
"138 256 OFFCURVE",
"40 210 OFFCURVE",
"40 111 CURVE SMOOTH",
"40 30 OFFCURVE",
"97 -9 OFFCURVE",
"185 -9 CURVE SMOOTH",
"302 -9 OFFCURVE",
"381 89 OFFCURVE",
"397 194 CURVE",
"371 198 LINE",
"371 180 LINE SMOOTH",
"371 35 OFFCURVE",
"417 -10 OFFCURVE",
"491 -10 CURVE SMOOTH"
);
},
{
closed = 1;
nodes = (
"227 89 OFFCURVE",
"212 118 OFFCURVE",
"212 148 CURVE SMOOTH",
"212 189 OFFCURVE",
"235 216 OFFCURVE",
"261 232 CURVE SMOOTH",
"291 250 OFFCURVE",
"328 254 OFFCURVE",
"366 255 CURVE",
"366 160 OFFCURVE",
"308 98 OFFCURVE",
"263 93 CURVE SMOOTH"
);
}
);
width = 606;
},
{
associatedMasterId = "60CFBDE8-BC08-4808-BF41-F011F3E03A54";
layerId = "B7BC3A45-3302-4EF5-88B1-0FF8A218F913";
name = "Light Jul 3 15, 18:32";
paths = (
{
closed = 1;
nodes = (
"568 28 OFFCURVE",
"551 18 OFFCURVE",
"531 18 CURVE SMOOTH",
"505 18 OFFCURVE",
"491 39 OFFCURVE",
"491 71 CURVE SMOOTH",
"491 318 LINE SMOOTH",
"491 439 OFFCURVE",
"430 515 OFFCURVE",
"298 515 CURVE SMOOTH",
"197 515 OFFCURVE",
"131 473 OFFCURVE",
"131 399 CURVE SMOOTH",
"131 358 OFFCURVE",
"157 332 OFFCURVE",
"185 326 CURVE SMOOTH",
"205 321 OFFCURVE",
"222 326 OFFCURVE",
"225 344 CURVE",
"193 342 OFFCURVE",
"160 355 OFFCURVE",
"160 403 CURVE SMOOTH",
"160 469 OFFCURVE",
"236 487 OFFCURVE",
"295 487 CURVE SMOOTH",
"412 487 OFFCURVE",
"461 425 OFFCURVE",
"461 318 CURVE SMOOTH",
"461 73 LINE SMOOTH",
"461 19 OFFCURVE",
"489 -10 OFFCURVE",
"531 -10 CURVE SMOOTH",
"559 -10 OFFCURVE",
"585 2 OFFCURVE",
"585 24 CURVE SMOOTH",
"585 30 OFFCURVE",
"583 37 OFFCURVE",
"576 45 CURVE"
);
},
{
closed = 1;
nodes = (
"464 200 OFFCURVE",
"459 189 OFFCURVE",
"453 178 CURVE SMOOTH",
"400 82 OFFCURVE",
"309 18 OFFCURVE",
"232 18 CURVE SMOOTH",
"168 18 OFFCURVE",
"146 61 OFFCURVE",
"146 101 CURVE SMOOTH",
"146 165 OFFCURVE",
"191 210 OFFCURVE",
"269 232 CURVE SMOOTH",
"344 253 OFFCURVE",
"420 256 OFFCURVE",
"477 249 CURVE",
"470 271 LINE",
"420 277 OFFCURVE",
"343 280 OFFCURVE",
"267 259 CURVE SMOOTH",
"165 231 OFFCURVE",
"114 175 OFFCURVE",
"114 98 CURVE SMOOTH",
"114 41 OFFCURVE",
"151 -9 OFFCURVE",
"231 -9 CURVE SMOOTH",
"320 -9 OFFCURVE",
"415 60 OFFCURVE",
"471 171 CURVE",
"469 211 LINE"
);
}
);
width = 600;
},
{
layerId = "60CFBDE8-BC08-4808-BF41-F011F3E03A54";
name = Light;
paths = (
{
closed = 1;
nodes = (
"509 -10 OFFCURVE",
"535 2 OFFCURVE",
"535 24 CURVE SMOOTH",
"535 30 OFFCURVE",
"533 37 OFFCURVE",
"526 45 CURVE",
"518 28 OFFCURVE",
"501 18 OFFCURVE",
"482 18 CURVE SMOOTH",
"455 18 OFFCURVE",
"441 38 OFFCURVE",
"441 71 CURVE SMOOTH",
"441 298 LINE SMOOTH",
"441 437 OFFCURVE",
"381 512 OFFCURVE",
"252 512 CURVE SMOOTH",
"148 512 OFFCURVE",
"81 474 OFFCURVE",
"81 395 CURVE SMOOTH",
"81 357 OFFCURVE",
"103 312 OFFCURVE",
"133 312 CURVE SMOOTH",
"139 312 OFFCURVE",
"152 315 OFFCURVE",
"160 328 CURVE",
"126 336 OFFCURVE",
"110 371 OFFCURVE",
"110 397 CURVE SMOOTH",
"110 468 OFFCURVE",
"187 484 OFFCURVE",
"246 484 CURVE SMOOTH",
"362 484 OFFCURVE",
"411 422 OFFCURVE",
"411 298 CURVE SMOOTH",
"411 272 LINE",
"349 279 OFFCURVE",
"275 274 OFFCURVE",
"217 259 CURVE SMOOTH",
"111 230 OFFCURVE",
"60 173 OFFCURVE",
"60 102 CURVE SMOOTH",
"60 38 OFFCURVE",
"98 -12 OFFCURVE",
"178 -12 CURVE SMOOTH",
"276 -12 OFFCURVE",
"378 63 OFFCURVE",
"425 194 CURVE",
"411 206 LINE",
"411 73 LINE SMOOTH",
"411 19 OFFCURVE",
"439 -10 OFFCURVE",
"481 -10 CURVE SMOOTH"
);
},
{
closed = 1;
nodes = (
"116 15 OFFCURVE",
"92 58 OFFCURVE",
"92 104 CURVE SMOOTH",
"92 166 OFFCURVE",
"138 208 OFFCURVE",
"219 232 CURVE SMOOTH",
"269 247 OFFCURVE",
"357 256 OFFCURVE",
"411 251 CURVE",
"408 136 OFFCURVE",
"286 15 OFFCURVE",
"179 15 CURVE SMOOTH"
);
}
);
width = 550;
},
{
associatedMasterId = "60CFBDE8-BC08-4808-BF41-F011F3E03A54";
layerId = "537711DB-26AD-4752-B4EA-540C4D802B62";
name = "Light Jul 3 15, 18:35";
paths = (
{
closed = 1;
nodes = (
"568 28 OFFCURVE",
"551 18 OFFCURVE",
"532 18 CURVE SMOOTH",
"505 18 OFFCURVE",
"491 38 OFFCURVE",
"491 71 CURVE SMOOTH",
"491 298 LINE SMOOTH",
"491 439 OFFCURVE",
"431 515 OFFCURVE",
"295 515 CURVE SMOOTH",
"198 515 OFFCURVE",
"131 476 OFFCURVE",
"131 399 CURVE SMOOTH",
"131 380 OFFCURVE",
"134 361 OFFCURVE",
"146 342 CURVE SMOOTH",
"161 318 OFFCURVE",
"177 309 OFFCURVE",
"204 320 CURVE",
"170 340 OFFCURVE",
"160 374 OFFCURVE",
"160 400 CURVE SMOOTH",
"160 471 OFFCURVE",
"237 487 OFFCURVE",
"296 487 CURVE SMOOTH",
"412 487 OFFCURVE",
"461 424 OFFCURVE",
"461 298 CURVE SMOOTH",
"461 73 LINE SMOOTH",
"461 19 OFFCURVE",
"489 -10 OFFCURVE",
"531 -10 CURVE SMOOTH",
"559 -10 OFFCURVE",
"585 2 OFFCURVE",
"585 24 CURVE SMOOTH",
"585 30 OFFCURVE",
"583 37 OFFCURVE",
"576 45 CURVE"
);
},
{
closed = 1;
nodes = (
"426 105 OFFCURVE",
"338 18 OFFCURVE",
"231 18 CURVE SMOOTH",
"165 18 OFFCURVE",
"142 60 OFFCURVE",
"142 103 CURVE SMOOTH",
"142 163 OFFCURVE",
"185 208 OFFCURVE",
"269 232 CURVE SMOOTH",
"340 253 OFFCURVE",
"427 256 OFFCURVE",
"477 249 CURVE",
"470 271 LINE",
"420 277 OFFCURVE",
"343 280 OFFCURVE",
"267 259 CURVE SMOOTH",
"162 231 OFFCURVE",
"110 173 OFFCURVE",
"110 101 CURVE SMOOTH",
"110 40 OFFCURVE",
"148 -9 OFFCURVE",
"229 -9 CURVE SMOOTH",
"321 -9 OFFCURVE",
"425 57 OFFCURVE",
"471 171 CURVE",
"469 211 LINE"
);
}
);
width = 600;
},
{
associatedMasterId = "60CFBDE8-BC08-4808-BF41-F011F3E03A54";
layerId = "A6669C1B-9C62-41FA-85A7-2955550209DC";
name = "Light Jul 3 15, 18:44";
paths = (
{
closed = 1;
nodes = (
"568 28 OFFCURVE",
"551 18 OFFCURVE",
"532 18 CURVE SMOOTH",
"505 18 OFFCURVE",
"491 38 OFFCURVE",
"491 71 CURVE SMOOTH",
"491 298 LINE SMOOTH",
"491 439 OFFCURVE",
"431 515 OFFCURVE",
"295 515 CURVE SMOOTH",
"198 515 OFFCURVE",
"131 476 OFFCURVE",
"131 399 CURVE SMOOTH",
"131 380 OFFCURVE",
"134 361 OFFCURVE",
"146 342 CURVE SMOOTH",
"161 318 OFFCURVE",
"177 309 OFFCURVE",
"204 320 CURVE",
"170 340 OFFCURVE",
"160 374 OFFCURVE",
"160 400 CURVE SMOOTH",
"160 471 OFFCURVE",
"237 487 OFFCURVE",
"296 487 CURVE SMOOTH",
"412 487 OFFCURVE",
"461 424 OFFCURVE",
"461 298 CURVE SMOOTH",
"461 73 LINE SMOOTH",
"461 19 OFFCURVE",
"489 -10 OFFCURVE",
"531 -10 CURVE SMOOTH",
"559 -10 OFFCURVE",
"585 2 OFFCURVE",
"585 24 CURVE SMOOTH",
"585 30 OFFCURVE",
"583 37 OFFCURVE",
"576 45 CURVE"
);
},
{
closed = 1;
nodes = (
"461 139 OFFCURVE",
"335 18 OFFCURVE",
"231 18 CURVE SMOOTH",
"165 18 OFFCURVE",
"142 60 OFFCURVE",
"142 103 CURVE SMOOTH",
"142 163 OFFCURVE",
"185 208 OFFCURVE",
"269 232 CURVE SMOOTH",
"340 253 OFFCURVE",
"427 256 OFFCURVE",
"477 249 CURVE",
"470 271 LINE",
"420 277 OFFCURVE",
"343 280 OFFCURVE",
"267 259 CURVE SMOOTH",
"162 231 OFFCURVE",
"110 173 OFFCURVE",
"110 101 CURVE SMOOTH",
"110 40 OFFCURVE",
"148 -9 OFFCURVE",
"229 -9 CURVE SMOOTH",
"323 -9 OFFCURVE",
"422 61 OFFCURVE",
"469 180 CURVE",
"461 255 LINE"
);
}
);
width = 600;
},
{
associatedMasterId = "EBFFFCD3-BAE4-48A5-9442-B72A90AD34A8";
layerId = "2D932B40-8D45-4AB8-8601-B9478DCCDAA9";
name = "Bold Jul 3 15, 18:44";
paths = (
{
closed = 1;
nodes = (
"560 98 OFFCURVE",
"547 88 OFFCURVE",
"532 88 CURVE SMOOTH",
"512 88 OFFCURVE",
"501 108 OFFCURVE",
"501 141 CURVE SMOOTH",
"501 298 LINE SMOOTH",
"501 455 OFFCURVE",
"438 535 OFFCURVE",
"290 535 CURVE SMOOTH",
"178 535 OFFCURVE",
"101 489 OFFCURVE",
"101 402 CURVE SMOOTH",
"101 320 OFFCURVE",
"170 287 OFFCURVE",
"264 320 CURVE",
"245 340 OFFCURVE",
"240 375 OFFCURVE",
"240 398 CURVE SMOOTH",
"240 455 OFFCURVE",
"272 467 OFFCURVE",
"294 467 CURVE SMOOTH",
"345 467 OFFCURVE",
"361 406 OFFCURVE",
"361 298 CURVE SMOOTH",
"360 127 LINE SMOOTH",
"360 38 OFFCURVE",
"413 -10 OFFCURVE",
"487 -10 CURVE SMOOTH",
"584 -10 OFFCURVE",
"595 71 OFFCURVE",
"566 115 CURVE"
);
},
{
closed = 1;
nodes = (
"360 190 OFFCURVE",
"327 93 OFFCURVE",
"268 93 CURVE SMOOTH",
"243 93 OFFCURVE",
"232 111 OFFCURVE",
"232 130 CURVE SMOOTH",
"232 158 OFFCURVE",
"243 177 OFFCURVE",
"271 192 CURVE SMOOTH",
"341 232 OFFCURVE",
"434 229 OFFCURVE",
"477 219 CURVE",
"470 281 LINE",
"420 287 OFFCURVE",
"347 289 OFFCURVE",
"267 270 CURVE SMOOTH",
"147 241 OFFCURVE",
"80 179 OFFCURVE",
"80 100 CURVE SMOOTH",
"80 40 OFFCURVE",
"118 -9 OFFCURVE",
"201 -9 CURVE SMOOTH",
"295 -9 OFFCURVE",
"374 64 OFFCURVE",
"394 211 CURVE",
"360 282 LINE"
);
}
);
width = 600;
},
{
associatedMasterId = "EBFFFCD3-BAE4-48A5-9442-B72A90AD34A8";
layerId = "FD394990-A46C-462C-80C4-04287CE0A684";
name = "Bold Jul 6 15, 11:17";
paths = (
{
closed = 1;
nodes = (
"547 -10 OFFCURVE",
"585 27 OFFCURVE",
"585 70 CURVE SMOOTH",
"585 84 OFFCURVE",
"581 103 OFFCURVE",
"571 118 CURVE",
"565 110 OFFCURVE",
"552 108 OFFCURVE",
"545 108 CURVE SMOOTH",
"522 108 OFFCURVE",
"511 126 OFFCURVE",
"511 161 CURVE SMOOTH",
"511 318 LINE SMOOTH",
"511 459 OFFCURVE",
"441 535 OFFCURVE",
"274 535 CURVE SMOOTH",
"146 535 OFFCURVE",
"56 490 OFFCURVE",
"56 409 CURVE SMOOTH",
"56 355 OFFCURVE",
"96 314 OFFCURVE",
"167 314 CURVE SMOOTH",
"200 314 OFFCURVE",
"232 323 OFFCURVE",
"249 340 CURVE",
"221 358 OFFCURVE",
"215 388 OFFCURVE",
"215 415 CURVE SMOOTH",
"215 467 OFFCURVE",
"237 491 OFFCURVE",
"276 491 CURVE SMOOTH",
"334 491 OFFCURVE",
"351 436 OFFCURVE",
"351 328 CURVE SMOOTH",
"351 297 LINE",
"314 301 OFFCURVE",
"268 296 OFFCURVE",
"214 281 CURVE SMOOTH",
"123 256 OFFCURVE",
"30 210 OFFCURVE",
"30 111 CURVE SMOOTH",
"30 30 OFFCURVE",
"92 -9 OFFCURVE",
"165 -9 CURVE SMOOTH",
"282 -9 OFFCURVE",
"370 89 OFFCURVE",
"386 194 CURVE",
"360 198 LINE",
"360 180 LINE SMOOTH",
"360 35 OFFCURVE",
"406 -10 OFFCURVE",
"480 -10 CURVE SMOOTH"
);
},
{
closed = 1;
nodes = (
"228 92 OFFCURVE",
"212 109 OFFCURVE",
"212 139 CURVE SMOOTH",
"212 159 OFFCURVE",
"219 190 OFFCURVE",
"260 218 CURVE SMOOTH",
"283 234 OFFCURVE",
"319 249 OFFCURVE",
"355 255 CURVE",
"355 160 OFFCURVE",
"297 95 OFFCURVE",
"252 93 CURVE SMOOTH"
);
}
);
width = 600;
}
);
leftMetricsKey = o;
unicode = 0061;
},
{
glyphname = b;
lastChange = "2015-07-06 14:29:38 +0000";
layers = (
{
layerId = "60CFBDE8-BC08-4808-BF41-F011F3E03A54";
name = Light;
paths = (
{
closed = 1;
nodes = (
"503 -12 OFFCURVE",
"520 166 OFFCURVE",
"520 255 CURVE SMOOTH",
"520 429 OFFCURVE",
"460 509 OFFCURVE",
"347 509 CURVE SMOOTH",
"258 509 OFFCURVE",
"187 454 OFFCURVE",
"162 371 CURVE",
"162 585 OFFCURVE",
"162 692 OFFCURVE",
"168 720 CURVE",
"164 724 OFFCURVE",
"159 728 OFFCURVE",
"150 728 CURVE SMOOTH",
"138 728 OFFCURVE",
"131 720 OFFCURVE",
"131 706 CURVE",
"131 56 LINE",
"176 1 OFFCURVE",
"252 -12 OFFCURVE",
"316 -12 CURVE SMOOTH"
);
},
{
closed = 1;
nodes = (
"281 16 OFFCURVE",
"186 26 OFFCURVE",
"161 67 CURVE",
"162 253 LINE",
"162 337 OFFCURVE",
"199 481 OFFCURVE",
"344 481 CURVE SMOOTH",
"436 481 OFFCURVE",
"488 418 OFFCURVE",
"488 258 CURVE SMOOTH",
"488 170 OFFCURVE",
"472 16 OFFCURVE",
"314 16 CURVE SMOOTH"
);
}
);
width = 600;
},
{
layerId = "EBFFFCD3-BAE4-48A5-9442-B72A90AD34A8";
name = Bold;
paths = (
{
closed = 1;
nodes = (
"489 -15 OFFCURVE",
"565 91 OFFCURVE",
"565 277 CURVE SMOOTH",
"565 465 OFFCURVE",
"487 535 OFFCURVE",
"380 535 CURVE SMOOTH",
"308 535 OFFCURVE",
"259 504 OFFCURVE",
"236 445 CURVE",
"238 498 OFFCURVE",
"239 602 OFFCURVE",
"263 699 CURVE",
"247 711 OFFCURVE",
"207 738 OFFCURVE",
"154 733 CURVE SMOOTH",
"112 729 OFFCURVE",
"79 704 OFFCURVE",
"79 653 CURVE SMOOTH",
"80 51 LINE",
"127 14 OFFCURVE",
"208 -15 OFFCURVE",
"306 -15 CURVE SMOOTH"
);
},
{
closed = 1;
nodes = (
"274 35 OFFCURVE",
"253 41 OFFCURVE",
"236 49 CURVE",
"239 304 LINE",
"239 414 OFFCURVE",
"276 465 OFFCURVE",
"329 465 CURVE SMOOTH",
"378 465 OFFCURVE",
"388 420 OFFCURVE",
"388 293 CURVE SMOOTH",
"388 114 OFFCURVE",
"368 35 OFFCURVE",
"294 35 CURVE SMOOTH"
);
}
);
width = 600;
}
);
unicode = 0062;
},
{
glyphname = d;
lastChange = "2015-07-06 15:56:06 +0000";
layers = (
{
guideLines = (
{
position = "{271, 509}";
}
);
layerId = "60CFBDE8-BC08-4808-BF41-F011F3E03A54";
name = Light;
paths = (
{
closed = 1;
nodes = (
"365 -12 OFFCURVE",
"424 114 OFFCURVE",
"441 229 CURVE",
"418 200 LINE",
"418 73 LINE SMOOTH",
"418 19 OFFCURVE",
"446 -10 OFFCURVE",
"488 -10 CURVE SMOOTH",
"516 -10 OFFCURVE",
"542 2 OFFCURVE",
"542 24 CURVE SMOOTH",
"542 30 OFFCURVE",
"540 37 OFFCURVE",
"533 45 CURVE",
"525 28 OFFCURVE",
"508 18 OFFCURVE",
"489 18 CURVE SMOOTH",
"462 18 OFFCURVE",
"448 38 OFFCURVE",
"448 71 CURVE SMOOTH",
"449 706 LINE SMOOTH",
"449 720 OFFCURVE",
"442 728 OFFCURVE",
"430 728 CURVE SMOOTH",
"421 728 OFFCURVE",
"416 724 OFFCURVE",
"412 720 CURVE",
"418 696 OFFCURVE",
"418 602 OFFCURVE",
"418 414 CURVE",
"398 471 OFFCURVE",
"342 509 OFFCURVE",
"271 509 CURVE SMOOTH",
"130 509 OFFCURVE",
"60 399 OFFCURVE",
"60 225 CURVE SMOOTH",
"60 146 OFFCURVE",
"74 -12 OFFCURVE",
"224 -12 CURVE SMOOTH"
);
},
{
closed = 1;
nodes = (
"104 16 OFFCURVE",
"92 151 OFFCURVE",
"92 228 CURVE SMOOTH",
"92 399 OFFCURVE",
"158 481 OFFCURVE",
"276 481 CURVE SMOOTH",
"394 481 OFFCURVE",
"418 370 OFFCURVE",
"418 278 CURVE SMOOTH",
"418 132 OFFCURVE",
"343 16 OFFCURVE",
"226 16 CURVE SMOOTH"
);
}
);
width = 557;
},
{
background = {
paths = (
{
closed = 1;
nodes = (
"553 -10 OFFCURVE",
"591 27 OFFCURVE",
"591 70 CURVE SMOOTH",
"591 84 OFFCURVE",
"587 103 OFFCURVE",
"577 118 CURVE",
"571 110 OFFCURVE",
"558 108 OFFCURVE",
"551 108 CURVE SMOOTH",
"528 108 OFFCURVE",
"517 126 OFFCURVE",
"517 161 CURVE SMOOTH",
"517 318 LINE SMOOTH",
"517 478 OFFCURVE",
"447 535 OFFCURVE",
"288 535 CURVE SMOOTH",
"152 535 OFFCURVE",
"62 490 OFFCURVE",
"62 409 CURVE SMOOTH",
"62 355 OFFCURVE",
"102 314 OFFCURVE",
"173 314 CURVE SMOOTH",
"206 314 OFFCURVE",
"238 323 OFFCURVE",
"255 340 CURVE",
"227 358 OFFCURVE",
"221 388 OFFCURVE",
"221 415 CURVE SMOOTH",
"221 467 OFFCURVE",
"243 491 OFFCURVE",
"282 491 CURVE SMOOTH",
"340 491 OFFCURVE",
"357 436 OFFCURVE",
"357 328 CURVE SMOOTH",
"357 303 LINE",
"320 300 OFFCURVE",
"274 296 OFFCURVE",
"220 281 CURVE SMOOTH",
"133 256 OFFCURVE",
"35 210 OFFCURVE",
"35 111 CURVE SMOOTH",
"35 30 OFFCURVE",
"92 -9 OFFCURVE",
"180 -9 CURVE SMOOTH",
"297 -9 OFFCURVE",
"376 89 OFFCURVE",
"392 194 CURVE",
"366 198 LINE",
"366 180 LINE SMOOTH",
"366 35 OFFCURVE",
"412 -10 OFFCURVE",
"486 -10 CURVE SMOOTH"
);
},
{
closed = 1;
nodes = (
"222 89 OFFCURVE",
"207 118 OFFCURVE",
"207 148 CURVE SMOOTH",
"207 189 OFFCURVE",
"230 216 OFFCURVE",
"256 232 CURVE SMOOTH",
"286 250 OFFCURVE",
"323 254 OFFCURVE",
"361 255 CURVE",
"361 160 OFFCURVE",
"303 98 OFFCURVE",
"258 93 CURVE SMOOTH"
);
}
);
};
layerId = "EBFFFCD3-BAE4-48A5-9442-B72A90AD34A8";
name = Bold;
paths = (
{
closed = 1;
nodes = (
"318 -15 OFFCURVE",
"382 54 OFFCURVE",
"398 205 CURVE",
"377 224 LINE",
"377 196 LINE SMOOTH",
"377 71 OFFCURVE",
"412 -10 OFFCURVE",
"501 -10 CURVE SMOOTH",
"555 -10 OFFCURVE",
"600 24 OFFCURVE",
"600 70 CURVE SMOOTH",
"600 84 OFFCURVE",
"596 103 OFFCURVE",
"586 118 CURVE",
"580 110 OFFCURVE",
"567 108 OFFCURVE",
"560 108 CURVE SMOOTH",
"537 108 OFFCURVE",
"526 126 OFFCURVE",
"526 161 CURVE SMOOTH",
"526 653 LINE SMOOTH",
"526 704 OFFCURVE",
"490 729 OFFCURVE",
"444 733 CURVE SMOOTH",
"394 738 OFFCURVE",
"357 711 OFFCURVE",
"342 699 CURVE",
"366 617 OFFCURVE",
"367 530 OFFCURVE",
"369 485 CURVE",
"349 518 OFFCURVE",
"306 535 OFFCURVE",
"247 535 CURVE SMOOTH",
"126 535 OFFCURVE",
"40 432 OFFCURVE",
"40 253 CURVE SMOOTH",
"40 81 OFFCURVE",
"93 -15 OFFCURVE",
"226 -15 CURVE SMOOTH"
);
},
{
closed = 1;
nodes = (
"233 63 OFFCURVE",
"217 107 OFFCURVE",
"217 251 CURVE SMOOTH",
"217 377 OFFCURVE",
"235 465 OFFCURVE",
"306 465 CURVE SMOOTH",
"349 465 OFFCURVE",
"366 427 OFFCURVE",
"366 344 CURVE SMOOTH",
"366 200 OFFCURVE",
"342 63 OFFCURVE",
"277 63 CURVE SMOOTH"
);
}
);
width = 608;
},
{
associatedMasterId = "EBFFFCD3-BAE4-48A5-9442-B72A90AD34A8";
background = {
paths = (
{
closed = 1;
nodes = (
"545 -10 OFFCURVE",
"583 27 OFFCURVE",
"583 70 CURVE SMOOTH",
"583 84 OFFCURVE",
"579 103 OFFCURVE",
"569 118 CURVE",
"563 110 OFFCURVE",
"550 108 OFFCURVE",
"543 108 CURVE SMOOTH",
"520 108 OFFCURVE",
"509 126 OFFCURVE",
"509 161 CURVE SMOOTH",
"509 318 LINE SMOOTH",
"509 478 OFFCURVE",
"439 535 OFFCURVE",
"280 535 CURVE SMOOTH",
"144 535 OFFCURVE",
"54 490 OFFCURVE",
"54 409 CURVE SMOOTH",
"54 355 OFFCURVE",
"94 314 OFFCURVE",
"165 314 CURVE SMOOTH",
"198 314 OFFCURVE",
"230 323 OFFCURVE",
"247 340 CURVE",
"219 358 OFFCURVE",
"213 388 OFFCURVE",
"213 415 CURVE SMOOTH",
"213 467 OFFCURVE",
"235 491 OFFCURVE",
"274 491 CURVE SMOOTH",
"332 491 OFFCURVE",
"349 436 OFFCURVE",
"349 328 CURVE SMOOTH",
"349 303 LINE",
"312 300 OFFCURVE",
"266 296 OFFCURVE",
"212 281 CURVE SMOOTH",
"125 256 OFFCURVE",
"27 210 OFFCURVE",
"27 111 CURVE SMOOTH",
"27 30 OFFCURVE",
"84 -9 OFFCURVE",
"172 -9 CURVE SMOOTH",
"289 -9 OFFCURVE",
"368 89 OFFCURVE",
"384 194 CURVE",
"358 198 LINE",
"358 180 LINE SMOOTH",
"358 35 OFFCURVE",
"404 -10 OFFCURVE",
"478 -10 CURVE SMOOTH"
);
},
{
closed = 1;
nodes = (
"214 89 OFFCURVE",
"199 118 OFFCURVE",
"199 148 CURVE SMOOTH",
"199 189 OFFCURVE",
"222 216 OFFCURVE",
"248 232 CURVE SMOOTH",
"278 250 OFFCURVE",
"315 254 OFFCURVE",
"353 255 CURVE",
"353 160 OFFCURVE",
"295 98 OFFCURVE",
"250 93 CURVE SMOOTH"
);
}
);
};
layerId = "4A6DE2A9-904A-41B7-A4BA-A7D9B43399C7";
name = "Bold Jul 6 15, 12:29";
paths = (
{
closed = 1;
nodes = (
"511 684 OFFCURVE",
"478 709 OFFCURVE",
"436 713 CURVE SMOOTH",
"388 718 OFFCURVE",
"352 691 OFFCURVE",
"338 679 CURVE",
"356 614 OFFCURVE",
"358 543 OFFCURVE",
"357 511 CURVE SMOOTH",
"357 180 LINE SMOOTH",
"354 35 OFFCURVE",
"406 -10 OFFCURVE",
"480 -10 CURVE SMOOTH",
"547 -10 OFFCURVE",
"585 27 OFFCURVE",
"585 70 CURVE SMOOTH",
"585 84 OFFCURVE",
"581 103 OFFCURVE",
"571 118 CURVE",
"565 110 OFFCURVE",
"552 108 OFFCURVE",
"545 108 CURVE SMOOTH",
"522 108 OFFCURVE",
"511 126 OFFCURVE",
"511 161 CURVE SMOOTH",
"511 633 LINE SMOOTH"
);
},
{
closed = 1;
nodes = (
"357 275 LINE",
"357 120 OFFCURVE",
"331 43 OFFCURVE",
"268 43 CURVE SMOOTH",
"223 43 OFFCURVE",
"206 115 OFFCURVE",
"206 260 CURVE SMOOTH",
"206 412 OFFCURVE",
"231 487 OFFCURVE",
"298 487 CURVE SMOOTH",
"340 487 OFFCURVE",
"369 476 OFFCURVE",
"400 387 CURVE",
"450 444 LINE",
"405 503 OFFCURVE",
"344 535 OFFCURVE",
"268 535 CURVE SMOOTH",
"118 535 OFFCURVE",
"29 433 OFFCURVE",
"29 260 CURVE SMOOTH",
"29 87 OFFCURVE",
"110 -15 OFFCURVE",
"248 -15 CURVE SMOOTH",
"309 -15 OFFCURVE",
"388 27 OFFCURVE",
"410 196 CURVE"
);
}
);
width = 600;
},
{
associatedMasterId = "60CFBDE8-BC08-4808-BF41-F011F3E03A54";
layerId = "AF31EFD9-4119-468F-A5CA-EB35BFF0231D";
name = "Light Jul 6 15, 14:12";
paths = (
{
closed = 1;
nodes = (
"350 -9 OFFCURVE",
"436 65 OFFCURVE",
"475 194 CURVE",
"461 206 LINE",
"461 73 LINE SMOOTH",
"461 19 OFFCURVE",
"489 -10 OFFCURVE",
"531 -10 CURVE SMOOTH",
"559 -10 OFFCURVE",
"585 2 OFFCURVE",
"585 24 CURVE SMOOTH",
"585 30 OFFCURVE",
"583 37 OFFCURVE",
"576 45 CURVE",
"568 28 OFFCURVE",
"551 18 OFFCURVE",
"532 18 CURVE SMOOTH",
"505 18 OFFCURVE",
"491 38 OFFCURVE",
"491 71 CURVE SMOOTH",
"492 686 LINE SMOOTH",
"492 700 OFFCURVE",
"485 708 OFFCURVE",
"473 708 CURVE SMOOTH",
"464 708 OFFCURVE",
"459 704 OFFCURVE",
"455 700 CURVE",
"464 670 OFFCURVE",
"461 562 OFFCURVE",
"461 521 CURVE SMOOTH",
"461 251 LINE SMOOTH",
"459 137 OFFCURVE",
"358 18 OFFCURVE",
"269 18 CURVE SMOOTH",
"153 18 OFFCURVE",
"139 136 OFFCURVE",
"139 255 CURVE SMOOTH",
"139 377 OFFCURVE",
"173 481 OFFCURVE",
"292 481 CURVE SMOOTH",
"435 481 OFFCURVE",
"467 427 OFFCURVE",
"472 366 CURVE",
"485 413 LINE",
"464 458 OFFCURVE",
"418 509 OFFCURVE",
"289 509 CURVE SMOOTH",
"155 509 OFFCURVE",
"106 387 OFFCURVE",
"106 257 CURVE SMOOTH",
"106 127 OFFCURVE",
"120 -18 OFFCURVE",
"268 -9 CURVE SMOOTH"
);
}
);
width = 600;
}
);
leftMetricsKey = o;
unicode = 0064;
},
{
glyphname = e;
lastChange = "2015-07-06 15:55:52 +0000";
layers = (
{
background = {
paths = (
{
closed = 1;
nodes = (
"441 24 OFFCURVE",
"372 -12 OFFCURVE",
"275 -12 CURVE SMOOTH",
"113 -12 OFFCURVE",
"8 87 OFFCURVE",
"8 264 CURVE SMOOTH",
"8 432 OFFCURVE",
"102 535 OFFCURVE",
"273 535 CURVE SMOOTH",
"386 535 OFFCURVE",
"482 484 OFFCURVE",
"482 380 CURVE SMOOTH",
"482 281 OFFCURVE",
"393 232 OFFCURVE",
"279 232 CURVE SMOOTH",
"226 232 OFFCURVE",
"162 232 OFFCURVE",
"84 252 CURVE",
"90 294 LINE",
"112 290 OFFCURVE",
"169 286 OFFCURVE",
"178 286 CURVE SMOOTH",
"224 286 OFFCURVE",
"317 284 OFFCURVE",
"317 410 CURVE SMOOTH",
"317 474 OFFCURVE",
"293 487 OFFCURVE",
"264 487 CURVE SMOOTH",
"215 487 OFFCURVE",
"185 412 OFFCURVE",
"185 287 CURVE SMOOTH",
"185 136 OFFCURVE",
"229 83 OFFCURVE",
"326 83 CURVE SMOOTH",
"392 83 OFFCURVE",
"437 107 OFFCURVE",
"459 143 CURVE",
"471 138 OFFCURVE",
"486 119 OFFCURVE",
"468 81 CURVE SMOOTH"
);
}
);
};
layerId = "60CFBDE8-BC08-4808-BF41-F011F3E03A54";
name = Light;
paths = (
{
closed = 1;
nodes = (
"418 15 OFFCURVE",
"358 -12 OFFCURVE",
"282 -12 CURVE SMOOTH",
"147 -12 OFFCURVE",
"60 73 OFFCURVE",
"60 243 CURVE SMOOTH",
"60 408 OFFCURVE",
"141 511 OFFCURVE",
"285 511 CURVE SMOOTH",
"382 511 OFFCURVE",
"445 464 OFFCURVE",
"445 372 CURVE SMOOTH",
"445 273 OFFCURVE",
"371 234 OFFCURVE",
"210 234 CURVE SMOOTH",
"142 234 OFFCURVE",
"131 241 OFFCURVE",
"74 247 CURVE",
"74 272 LINE",
"120 263 OFFCURVE",
"195 259 OFFCURVE",
"233 259 CURVE SMOOTH",
"349 259 OFFCURVE",
"413 296 OFFCURVE",
"413 376 CURVE SMOOTH",
"413 460 OFFCURVE",
"343 485 OFFCURVE",
"281 485 CURVE SMOOTH",
"171 485 OFFCURVE",
"92 408 OFFCURVE",
"92 248 CURVE SMOOTH",
"92 70 OFFCURVE",
"189 17 OFFCURVE",
"285 17 CURVE SMOOTH",
"352 17 OFFCURVE",
"416 43 OFFCURVE",
"434 115 CURVE",
"446 110 OFFCURVE",
"454 101 OFFCURVE",
"442 72 CURVE SMOOTH"
);
}
);
width = 498;
},
{
background = {
paths = (
{
closed = 1;
nodes = (
"85 535 OFFCURVE",
"47 498 OFFCURVE",
"47 455 CURVE SMOOTH",
"47 441 OFFCURVE",
"51 422 OFFCURVE",
"61 407 CURVE",
"67 415 OFFCURVE",
"80 417 OFFCURVE",
"87 417 CURVE SMOOTH",
"110 417 OFFCURVE",
"121 399 OFFCURVE",
"121 364 CURVE SMOOTH",
"121 207 LINE SMOOTH",
"121 47 OFFCURVE",
"191 -10 OFFCURVE",
"350 -10 CURVE SMOOTH",
"486 -10 OFFCURVE",
"576 35 OFFCURVE",
"576 116 CURVE SMOOTH",
"576 170 OFFCURVE",
"536 211 OFFCURVE",
"465 211 CURVE SMOOTH",
"432 211 OFFCURVE",
"400 202 OFFCURVE",
"383 185 CURVE",
"411 167 OFFCURVE",
"417 137 OFFCURVE",
"417 110 CURVE SMOOTH",
"417 58 OFFCURVE",
"395 34 OFFCURVE",
"356 34 CURVE SMOOTH",
"298 34 OFFCURVE",
"281 89 OFFCURVE",
"281 197 CURVE SMOOTH",
"281 222 LINE",
"318 225 OFFCURVE",
"364 229 OFFCURVE",
"418 244 CURVE SMOOTH",
"505 269 OFFCURVE",
"603 315 OFFCURVE",
"603 414 CURVE SMOOTH",
"603 495 OFFCURVE",
"546 534 OFFCURVE",
"458 534 CURVE SMOOTH",
"341 534 OFFCURVE",
"262 436 OFFCURVE",
"246 331 CURVE",
"272 327 LINE",
"272 345 LINE SMOOTH",
"272 490 OFFCURVE",
"226 535 OFFCURVE",
"152 535 CURVE SMOOTH"
);
},
{
closed = 1;
nodes = (
"416 436 OFFCURVE",
"431 407 OFFCURVE",
"431 377 CURVE SMOOTH",
"431 336 OFFCURVE",
"408 309 OFFCURVE",
"382 293 CURVE SMOOTH",
"352 275 OFFCURVE",
"315 271 OFFCURVE",
"277 270 CURVE",
"277 365 OFFCURVE",
"335 427 OFFCURVE",
"380 432 CURVE SMOOTH"
);
}
);
};
layerId = "EBFFFCD3-BAE4-48A5-9442-B72A90AD34A8";
name = Bold;
paths = (
{
closed = 1;
nodes = (
"473 21 OFFCURVE",
"404 -15 OFFCURVE",
"307 -15 CURVE SMOOTH",
"145 -15 OFFCURVE",
"40 87 OFFCURVE",
"40 264 CURVE SMOOTH",
"40 432 OFFCURVE",
"134 535 OFFCURVE",
"305 535 CURVE SMOOTH",
"428 535 OFFCURVE",
"524 484 OFFCURVE",
"524 380 CURVE SMOOTH",
"524 281 OFFCURVE",
"435 226 OFFCURVE",
"311 226 CURVE SMOOTH",
"258 226 OFFCURVE",
"194 226 OFFCURVE",
"116 246 CURVE",
"122 294 LINE",
"144 290 OFFCURVE",
"201 286 OFFCURVE",
"210 286 CURVE SMOOTH",
"256 286 OFFCURVE",
"349 284 OFFCURVE",
"349 410 CURVE SMOOTH",
"349 474 OFFCURVE",
"325 487 OFFCURVE",
"296 487 CURVE SMOOTH",
"247 487 OFFCURVE",
"217 412 OFFCURVE",
"217 287 CURVE SMOOTH",
"217 136 OFFCURVE",
"261 83 OFFCURVE",
"358 83 CURVE SMOOTH",
"424 83 OFFCURVE",
"469 107 OFFCURVE",
"491 143 CURVE",
"503 138 OFFCURVE",
"517 119 OFFCURVE",
"500 81 CURVE SMOOTH"
);
}
);
width = 550;
},
{
associatedMasterId = "EBFFFCD3-BAE4-48A5-9442-B72A90AD34A8";
layerId = "13768970-A007-4FDF-A8BF-A899B2BA0430";
name = "Bold Jul 6 15, 16:05";
paths = (
{
closed = 1;
nodes = (
"461 20 OFFCURVE",
"360 -15 OFFCURVE",
"299 -15 CURVE SMOOTH",
"136 -15 OFFCURVE",
"40 87 OFFCURVE",
"40 260 CURVE SMOOTH",
"40 433 OFFCURVE",
"136 535 OFFCURVE",
"299 535 CURVE SMOOTH",
"442 535 OFFCURVE",
"538 453 OFFCURVE",
"538 280 CURVE SMOOTH",
"538 252 LINE",
"116 253 LINE",
"117 280 LINE",
"361 280 LINE",
"361 432 OFFCURVE",
"338 487 OFFCURVE",
"299 487 CURVE SMOOTH",
"240 487 OFFCURVE",
"217 412 OFFCURVE",
"217 260 CURVE SMOOTH",
"217 108 OFFCURVE",
"240 33 OFFCURVE",
"350 33 CURVE SMOOTH",
"394 33 OFFCURVE",
"447 63 OFFCURVE",
"472 111 CURVE",
"502 100 LINE"
);
}
);
width = 600;
},
{
associatedMasterId = "EBFFFCD3-BAE4-48A5-9442-B72A90AD34A8";
background = {
paths = (
{
closed = 1;
nodes = (
"85 535 OFFCURVE",
"47 498 OFFCURVE",
"47 455 CURVE SMOOTH",
"47 441 OFFCURVE",
"51 422 OFFCURVE",
"61 407 CURVE",
"67 415 OFFCURVE",
"80 417 OFFCURVE",
"87 417 CURVE SMOOTH",
"110 417 OFFCURVE",
"121 399 OFFCURVE",
"121 364 CURVE SMOOTH",
"121 207 LINE SMOOTH",
"121 47 OFFCURVE",
"191 -10 OFFCURVE",
"350 -10 CURVE SMOOTH",
"486 -10 OFFCURVE",
"576 35 OFFCURVE",
"576 116 CURVE SMOOTH",
"576 170 OFFCURVE",
"536 211 OFFCURVE",
"465 211 CURVE SMOOTH",
"432 211 OFFCURVE",
"400 202 OFFCURVE",
"383 185 CURVE",
"411 167 OFFCURVE",
"417 137 OFFCURVE",
"417 110 CURVE SMOOTH",
"417 58 OFFCURVE",
"395 34 OFFCURVE",
"356 34 CURVE SMOOTH",
"298 34 OFFCURVE",
"281 89 OFFCURVE",
"281 197 CURVE SMOOTH",
"281 222 LINE",
"318 225 OFFCURVE",
"364 229 OFFCURVE",
"418 244 CURVE SMOOTH",
"505 269 OFFCURVE",
"603 315 OFFCURVE",
"603 414 CURVE SMOOTH",
"603 495 OFFCURVE",
"546 534 OFFCURVE",
"458 534 CURVE SMOOTH",
"341 534 OFFCURVE",
"262 436 OFFCURVE",
"246 331 CURVE",
"272 327 LINE",
"272 345 LINE SMOOTH",
"272 490 OFFCURVE",
"226 535 OFFCURVE",
"152 535 CURVE SMOOTH"
);
},
{
closed = 1;
nodes = (
"416 436 OFFCURVE",
"431 407 OFFCURVE",
"431 377 CURVE SMOOTH",
"431 336 OFFCURVE",
"408 309 OFFCURVE",
"382 293 CURVE SMOOTH",
"352 275 OFFCURVE",
"315 271 OFFCURVE",
"277 270 CURVE",
"277 365 OFFCURVE",
"335 427 OFFCURVE",
"380 432 CURVE SMOOTH"
);
}
);
};
layerId = "C3FD4267-C46D-4CA5-9452-D4768D4EC544";
name = "Bold Jul 6 15, 16:09";
paths = (
{
closed = 1;
nodes = (
"466 10 OFFCURVE",
"369 -15 OFFCURVE",
"286 -15 CURVE SMOOTH",
"141 -15 OFFCURVE",
"40 87 OFFCURVE",
"40 264 CURVE SMOOTH",
"40 433 OFFCURVE",
"132 535 OFFCURVE",
"310 535 CURVE SMOOTH",
"423 535 OFFCURVE",
"528 487 OFFCURVE",
"528 371 CURVE SMOOTH",
"528 298 OFFCURVE",
"463 232 OFFCURVE",
"311 232 CURVE SMOOTH",
"258 232 OFFCURVE",
"194 240 OFFCURVE",
"116 260 CURVE",
"122 294 LINE",
"173 287 OFFCURVE",
"222 279 OFFCURVE",
"263 279 CURVE SMOOTH",
"322 279 OFFCURVE",
"373 302 OFFCURVE",
"373 393 CURVE SMOOTH",
"373 456 OFFCURVE",
"349 487 OFFCURVE",
"313 487 CURVE SMOOTH",
"240 487 OFFCURVE",
"217 413 OFFCURVE",
"217 264 CURVE SMOOTH",
"217 118 OFFCURVE",
"258 66 OFFCURVE",
"353 66 CURVE SMOOTH",
"421 66 OFFCURVE",
"478 106 OFFCURVE",
"504 153 CURVE",
"519 148 OFFCURVE",
"528 117 OFFCURVE",
"513 91 CURVE SMOOTH"
);
}
);
width = 600;
},
{
associatedMasterId = "EBFFFCD3-BAE4-48A5-9442-B72A90AD34A8";
background = {
paths = (
{
closed = 1;
nodes = (
"85 535 OFFCURVE",
"47 498 OFFCURVE",
"47 455 CURVE SMOOTH",
"47 441 OFFCURVE",
"51 422 OFFCURVE",
"61 407 CURVE",
"67 415 OFFCURVE",
"80 417 OFFCURVE",
"87 417 CURVE SMOOTH",
"110 417 OFFCURVE",
"121 399 OFFCURVE",
"121 364 CURVE SMOOTH",
"121 207 LINE SMOOTH",
"121 47 OFFCURVE",
"191 -10 OFFCURVE",
"350 -10 CURVE SMOOTH",
"486 -10 OFFCURVE",
"576 35 OFFCURVE",
"576 116 CURVE SMOOTH",
"576 170 OFFCURVE",
"536 211 OFFCURVE",
"465 211 CURVE SMOOTH",
"432 211 OFFCURVE",
"400 202 OFFCURVE",
"383 185 CURVE",
"411 167 OFFCURVE",
"417 137 OFFCURVE",
"417 110 CURVE SMOOTH",
"417 58 OFFCURVE",
"395 34 OFFCURVE",
"356 34 CURVE SMOOTH",
"298 34 OFFCURVE",
"281 89 OFFCURVE",
"281 197 CURVE SMOOTH",
"281 222 LINE",
"318 225 OFFCURVE",
"364 229 OFFCURVE",
"418 244 CURVE SMOOTH",
"505 269 OFFCURVE",
"603 315 OFFCURVE",
"603 414 CURVE SMOOTH",
"603 495 OFFCURVE",
"546 534 OFFCURVE",
"458 534 CURVE SMOOTH",
"341 534 OFFCURVE",
"262 436 OFFCURVE",
"246 331 CURVE",
"272 327 LINE",
"272 345 LINE SMOOTH",
"272 490 OFFCURVE",
"226 535 OFFCURVE",
"152 535 CURVE SMOOTH"
);
},
{
closed = 1;
nodes = (
"416 436 OFFCURVE",
"431 407 OFFCURVE",
"431 377 CURVE SMOOTH",
"431 336 OFFCURVE",
"408 309 OFFCURVE",
"382 293 CURVE SMOOTH",
"352 275 OFFCURVE",
"315 271 OFFCURVE",
"277 270 CURVE",
"277 365 OFFCURVE",
"335 427 OFFCURVE",
"380 432 CURVE SMOOTH"
);
}
);
};
layerId = "4DC6F142-C05A-4637-9FC7-81FD90128B9F";
name = "Bold Jul 6 15, 16:11";
paths = (
{
closed = 1;
nodes = (
"474 15 OFFCURVE",
"400 -15 OFFCURVE",
"306 -15 CURVE SMOOTH",
"141 -15 OFFCURVE",
"40 87 OFFCURVE",
"40 264 CURVE SMOOTH",
"40 433 OFFCURVE",
"131 535 OFFCURVE",
"311 535 CURVE SMOOTH",
"439 535 OFFCURVE",
"538 484 OFFCURVE",
"538 380 CURVE SMOOTH",
"538 281 OFFCURVE",
"449 232 OFFCURVE",
"311 232 CURVE SMOOTH",
"258 232 OFFCURVE",
"194 232 OFFCURVE",
"116 252 CURVE",
"122 294 LINE",
"144 290 OFFCURVE",
"201 286 OFFCURVE",
"210 286 CURVE SMOOTH",
"263 284 OFFCURVE",
"373 286 OFFCURVE",
"373 411 CURVE SMOOTH",
"373 470 OFFCURVE",
"349 487 OFFCURVE",
"314 487 CURVE SMOOTH",
"242 487 OFFCURVE",
"217 413 OFFCURVE",
"217 279 CURVE SMOOTH",
"217 120 OFFCURVE",
"266 83 OFFCURVE",
"360 83 CURVE SMOOTH",
"424 83 OFFCURVE",
"470 100 OFFCURVE",
"496 147 CURVE",
"508 142 OFFCURVE",
"522 123 OFFCURVE",
"505 85 CURVE SMOOTH"
);
}
);
width = 600;
},
{
associatedMasterId = "60CFBDE8-BC08-4808-BF41-F011F3E03A54";
background = {
paths = (
{
closed = 1;
nodes = (
"473 24 OFFCURVE",
"404 -12 OFFCURVE",
"307 -12 CURVE SMOOTH",
"145 -12 OFFCURVE",
"40 87 OFFCURVE",
"40 264 CURVE SMOOTH",
"40 432 OFFCURVE",
"134 535 OFFCURVE",
"305 535 CURVE SMOOTH",
"418 535 OFFCURVE",
"514 484 OFFCURVE",
"514 380 CURVE SMOOTH",
"514 281 OFFCURVE",
"425 232 OFFCURVE",
"311 232 CURVE SMOOTH",
"258 232 OFFCURVE",
"194 232 OFFCURVE",
"116 252 CURVE",
"122 294 LINE",
"144 290 OFFCURVE",
"201 286 OFFCURVE",
"210 286 CURVE SMOOTH",
"256 286 OFFCURVE",
"349 284 OFFCURVE",
"349 410 CURVE SMOOTH",
"349 474 OFFCURVE",
"325 487 OFFCURVE",
"296 487 CURVE SMOOTH",
"247 487 OFFCURVE",
"217 412 OFFCURVE",
"217 287 CURVE SMOOTH",
"217 136 OFFCURVE",
"261 83 OFFCURVE",
"358 83 CURVE SMOOTH",
"424 83 OFFCURVE",
"469 107 OFFCURVE",
"491 143 CURVE",
"503 138 OFFCURVE",
"518 119 OFFCURVE",
"500 81 CURVE SMOOTH"
);
}
);
};
layerId = "B4423C4C-0011-41E8-AA1B-9FBCFB948CFF";
name = "Light Jul 6 15, 16:13";
paths = (
{
closed = 1;
nodes = (
"473 24 OFFCURVE",
"404 -12 OFFCURVE",
"307 -12 CURVE SMOOTH",
"145 -12 OFFCURVE",
"40 87 OFFCURVE",
"40 264 CURVE SMOOTH",
"40 432 OFFCURVE",
"134 535 OFFCURVE",
"305 535 CURVE SMOOTH",
"418 535 OFFCURVE",
"514 484 OFFCURVE",
"514 380 CURVE SMOOTH",
"514 281 OFFCURVE",
"425 232 OFFCURVE",
"311 232 CURVE SMOOTH",
"258 232 OFFCURVE",
"194 232 OFFCURVE",
"116 252 CURVE",
"122 294 LINE",
"144 290 OFFCURVE",
"201 286 OFFCURVE",
"210 286 CURVE SMOOTH",
"256 286 OFFCURVE",
"349 284 OFFCURVE",
"349 410 CURVE SMOOTH",
"349 474 OFFCURVE",
"325 487 OFFCURVE",
"296 487 CURVE SMOOTH",
"247 487 OFFCURVE",
"217 412 OFFCURVE",
"217 287 CURVE SMOOTH",
"217 136 OFFCURVE",
"261 83 OFFCURVE",
"358 83 CURVE SMOOTH",
"424 83 OFFCURVE",
"469 107 OFFCURVE",
"491 143 CURVE",
"503 138 OFFCURVE",
"518 119 OFFCURVE",
"500 81 CURVE SMOOTH"
);
}
);
width = 600;
},
{
associatedMasterId = "60CFBDE8-BC08-4808-BF41-F011F3E03A54";
background = {
paths = (
{
closed = 1;
nodes = (
"432 24 OFFCURVE",
"363 -12 OFFCURVE",
"266 -12 CURVE SMOOTH",
"104 -12 OFFCURVE",
"-1 87 OFFCURVE",
"-1 264 CURVE SMOOTH",
"-1 432 OFFCURVE",
"93 535 OFFCURVE",
"264 535 CURVE SMOOTH",
"377 535 OFFCURVE",
"473 484 OFFCURVE",
"473 380 CURVE SMOOTH",
"473 281 OFFCURVE",
"384 232 OFFCURVE",
"270 232 CURVE SMOOTH",
"217 232 OFFCURVE",
"153 232 OFFCURVE",
"75 252 CURVE",
"81 294 LINE",
"103 290 OFFCURVE",
"160 286 OFFCURVE",
"169 286 CURVE SMOOTH",
"215 286 OFFCURVE",
"308 284 OFFCURVE",
"308 410 CURVE SMOOTH",
"308 474 OFFCURVE",
"284 487 OFFCURVE",
"255 487 CURVE SMOOTH",
"206 487 OFFCURVE",
"176 412 OFFCURVE",
"176 287 CURVE SMOOTH",
"176 136 OFFCURVE",
"220 83 OFFCURVE",
"317 83 CURVE SMOOTH",
"383 83 OFFCURVE",
"428 107 OFFCURVE",
"450 143 CURVE",
"462 138 OFFCURVE",
"477 119 OFFCURVE",
"459 81 CURVE SMOOTH"
);
}
);
};
layerId = "4C47A214-40DA-431B-89CB-344CAF3CD16A";
name = "Light Jul 6 15, 16:18";
paths = (
{
closed = 1;
nodes = (
"414 29 OFFCURVE",
"357 -12 OFFCURVE",
"267 -12 CURVE SMOOTH",
"140 -12 OFFCURVE",
"51 73 OFFCURVE",
"51 246 CURVE SMOOTH",
"51 406 OFFCURVE",
"124 511 OFFCURVE",
"276 511 CURVE SMOOTH",
"379 511 OFFCURVE",
"441 463 OFFCURVE",
"441 375 CURVE SMOOTH",
"441 280 OFFCURVE",
"368 234 OFFCURVE",
"254 234 CURVE SMOOTH",
"204 234 OFFCURVE",
"125 243 OFFCURVE",
"65 269 CURVE",
"65 294 LINE",
"111 271 OFFCURVE",
"188 261 OFFCURVE",
"246 261 CURVE SMOOTH",
"346 261 OFFCURVE",
"410 290 OFFCURVE",
"410 372 CURVE SMOOTH",
"410 464 OFFCURVE",
"328 485 OFFCURVE",
"267 485 CURVE SMOOTH",
"152 485 OFFCURVE",
"83 408 OFFCURVE",
"83 246 CURVE SMOOTH",
"83 70 OFFCURVE",
"185 17 OFFCURVE",
"273 17 CURVE SMOOTH",
"345 17 OFFCURVE",
"407 52 OFFCURVE",
"430 143 CURVE",
"442 138 OFFCURVE",
"459 123 OFFCURVE",
"439 81 CURVE SMOOTH"
);
}
);
width = 509;
}
);
leftMetricsKey = o;
unicode = 0065;
},
{
glyphname = g;
lastChange = "2015-07-06 15:56:16 +0000";
layers = (
{
layerId = "60CFBDE8-BC08-4808-BF41-F011F3E03A54";
name = Light;
paths = (
{
closed = 1;
nodes = (
"350 -240 OFFCURVE",
"449 -170 OFFCURVE",
"449 46 CURVE SMOOTH",
"449 446 LINE",
"402 504 OFFCURVE",
"320 512 OFFCURVE",
"273 512 CURVE SMOOTH",
"80 512 OFFCURVE",
"60 341 OFFCURVE",
"60 247 CURVE SMOOTH",
"60 74 OFFCURVE",
"124 -4 OFFCURVE",
"236 -4 CURVE SMOOTH",
"325 -4 OFFCURVE",
"392 45 OFFCURVE",
"418 125 CURVE",
"418 102 OFFCURVE",
"418 81 OFFCURVE",
"418 62 CURVE SMOOTH",
"418 -126 OFFCURVE",
"359 -212 OFFCURVE",
"217 -212 CURVE SMOOTH",
"152 -212 OFFCURVE",
"92 -186 OFFCURVE",
"92 -113 CURVE SMOOTH",
"92 -89 OFFCURVE",
"99 -71 OFFCURVE",
"118 -60 CURVE",
"114 -54 OFFCURVE",
"108 -51 OFFCURVE",
"99 -51 CURVE SMOOTH",
"81 -51 OFFCURVE",
"63 -76 OFFCURVE",
"63 -116 CURVE SMOOTH",
"63 -199 OFFCURVE",
"133 -240 OFFCURVE",
"215 -240 CURVE SMOOTH"
);
},
{
closed = 1;
nodes = (
"144 24 OFFCURVE",
"92 91 OFFCURVE",
"92 245 CURVE SMOOTH",
"92 332 OFFCURVE",
"111 484 OFFCURVE",
"264 484 CURVE SMOOTH",
"330 484 OFFCURVE",
"391 468 OFFCURVE",
"419 433 CURVE",
"418 247 LINE SMOOTH",
"418 165 OFFCURVE",
"380 24 OFFCURVE",
"238 24 CURVE SMOOTH"
);
}
);
width = 519;
},
{
layerId = "EBFFFCD3-BAE4-48A5-9442-B72A90AD34A8";
name = Bold;
paths = (
{
closed = 1;
nodes = (
"407 -221 OFFCURVE",
"522 -152 OFFCURVE",
"522 44 CURVE SMOOTH",
"522 469 LINE",
"473 506 OFFCURVE",
"395 535 OFFCURVE",
"299 535 CURVE SMOOTH",
"118 535 OFFCURVE",
"40 429 OFFCURVE",
"40 249 CURVE SMOOTH",
"40 68 OFFCURVE",
"118 5 OFFCURVE",
"224 5 CURVE SMOOTH",
"296 5 OFFCURVE",
"343 36 OFFCURVE",
"365 95 CURVE",
"364 70 OFFCURVE",
"364 35 OFFCURVE",
"364 17 CURVE SMOOTH",
"364 -92 OFFCURVE",
"326 -177 OFFCURVE",
"254 -177 CURVE SMOOTH",
"209 -177 OFFCURVE",
"198 -147 OFFCURVE",
"198 -118 CURVE SMOOTH",
"198 -91 OFFCURVE",
"209 -65 OFFCURVE",
"229 -46 CURVE",
"215 -29 OFFCURVE",
"190 -20 OFFCURVE",
"157 -20 CURVE SMOOTH",
"94 -20 OFFCURVE",
"50 -54 OFFCURVE",
"50 -107 CURVE SMOOTH",
"50 -190 OFFCURVE",
"144 -221 OFFCURVE",
"250 -221 CURVE SMOOTH"
);
},
{
closed = 1;
nodes = (
"227 75 OFFCURVE",
"217 114 OFFCURVE",
"217 233 CURVE SMOOTH",
"217 406 OFFCURVE",
"238 485 OFFCURVE",
"311 485 CURVE SMOOTH",
"330 485 OFFCURVE",
"349 479 OFFCURVE",
"364 471 CURVE",
"364 236 LINE",
"362 127 OFFCURVE",
"328 75 OFFCURVE",
"275 75 CURVE SMOOTH"
);
}
);
width = 585;
}
);
leftMetricsKey = o;
unicode = 0067;
},
{
glyphname = n;
lastChange = "2015-07-06 15:56:09 +0000";
layers = (
{
layerId = "60CFBDE8-BC08-4808-BF41-F011F3E03A54";
name = Light;
paths = (
{
closed = 1;
nodes = (
"547 -10 OFFCURVE",
"573 2 OFFCURVE",
"573 24 CURVE SMOOTH",
"573 30 OFFCURVE",
"571 37 OFFCURVE",
"564 45 CURVE",
"556 28 OFFCURVE",
"539 18 OFFCURVE",
"520 18 CURVE SMOOTH",
"493 18 OFFCURVE",
"479 38 OFFCURVE",
"479 71 CURVE SMOOTH",
"478 297 LINE SMOOTH",
"478 437 OFFCURVE",
"428 512 OFFCURVE",
"319 512 CURVE SMOOTH",
"225 512 OFFCURVE",
"137 439 OFFCURVE",
"129 319 CURVE",
"142 327 LINE",
"142 427 LINE SMOOTH",
"142 481 OFFCURVE",
"114 510 OFFCURVE",
"72 510 CURVE SMOOTH",
"44 510 OFFCURVE",
"18 498 OFFCURVE",
"18 476 CURVE SMOOTH",
"18 470 OFFCURVE",
"20 463 OFFCURVE",
"27 455 CURVE",
"35 472 OFFCURVE",
"52 482 OFFCURVE",
"71 482 CURVE SMOOTH",
"98 482 OFFCURVE",
"112 462 OFFCURVE",
"112 429 CURVE SMOOTH",
"113 14 LINE SMOOTH",
"113 0 OFFCURVE",
"119 -8 OFFCURVE",
"130 -8 CURVE SMOOTH",
"139 -8 OFFCURVE",
"144 -4 OFFCURVE",
"148 0 CURVE",
"142 24 OFFCURVE",
"142 59 OFFCURVE",
"142 247 CURVE SMOOTH",
"142 433 OFFCURVE",
"248 484 OFFCURVE",
"316 484 CURVE SMOOTH",
"411 484 OFFCURVE",
"449 422 OFFCURVE",
"449 298 CURVE SMOOTH",
"449 73 LINE SMOOTH",
"449 19 OFFCURVE",
"477 -10 OFFCURVE",
"519 -10 CURVE SMOOTH"
);
}
);
width = 589;
},
{
layerId = "EBFFFCD3-BAE4-48A5-9442-B72A90AD34A8";
name = Bold;
paths = (
{
closed = 1;
nodes = (
"584 -10 OFFCURVE",
"621 27 OFFCURVE",
"621 70 CURVE SMOOTH",
"621 84 OFFCURVE",
"617 103 OFFCURVE",
"607 118 CURVE",
"601 110 OFFCURVE",
"588 108 OFFCURVE",
"581 108 CURVE SMOOTH",
"558 108 OFFCURVE",
"547 126 OFFCURVE",
"547 161 CURVE SMOOTH",
"547 338 LINE SMOOTH",
"547 473 OFFCURVE",
"496 535 OFFCURVE",
"381 535 CURVE SMOOTH",
"270 535 OFFCURVE",
"222 455 OFFCURVE",
"206 345 CURVE",
"224 380 LINE",
"224 395 LINE SMOOTH",
"224 490 OFFCURVE",
"179 535 OFFCURVE",
"109 535 CURVE SMOOTH",
"55 535 OFFCURVE",
"10 501 OFFCURVE",
"10 455 CURVE SMOOTH",
"10 441 OFFCURVE",
"14 422 OFFCURVE",
"24 407 CURVE",
"30 415 OFFCURVE",
"43 417 OFFCURVE",
"50 417 CURVE SMOOTH",
"73 417 OFFCURVE",
"84 399 OFFCURVE",
"84 364 CURVE SMOOTH",
"85 74 LINE SMOOTH",
"86 17 OFFCURVE",
"122 -12 OFFCURVE",
"168 -16 CURVE SMOOTH",
"218 -21 OFFCURVE",
"255 6 OFFCURVE",
"270 18 CURVE",
"243 79 OFFCURVE",
"243 115 OFFCURVE",
"243 232 CURVE SMOOTH",
"243 382 OFFCURVE",
"273 464 OFFCURVE",
"328 464 CURVE SMOOTH",
"379 464 OFFCURVE",
"386 412 OFFCURVE",
"386 311 CURVE SMOOTH",
"386 140 LINE SMOOTH",
"386 26 OFFCURVE",
"439 -10 OFFCURVE",
"518 -10 CURVE SMOOTH"
);
}
);
width = 631;
},
{
associatedMasterId = "60CFBDE8-BC08-4808-BF41-F011F3E03A54";
layerId = "F60B49F5-9F80-4146-B821-B3804DFC63CE";
name = "Light Jul 6 15, 15:13";
paths = (
{
closed = 1;
nodes = (
"238 512 OFFCURVE",
"150 439 OFFCURVE",
"142 319 CURVE",
"155 327 LINE",
"155 427 LINE SMOOTH",
"155 481 OFFCURVE",
"127 510 OFFCURVE",
"85 510 CURVE SMOOTH",
"57 510 OFFCURVE",
"31 498 OFFCURVE",
"31 476 CURVE SMOOTH",
"31 470 OFFCURVE",
"33 463 OFFCURVE",
"40 455 CURVE",
"48 472 OFFCURVE",
"65 482 OFFCURVE",
"84 482 CURVE SMOOTH",
"111 482 OFFCURVE",
"125 462 OFFCURVE",
"125 429 CURVE SMOOTH",
"125 306 LINE SMOOTH",
"125 118 OFFCURVE",
"125 24 OFFCURVE",
"119 0 CURVE",
"123 -4 OFFCURVE",
"128 -8 OFFCURVE",
"137 -8 CURVE SMOOTH",
"148 -8 OFFCURVE",
"155 0 OFFCURVE",
"155 14 CURVE SMOOTH",
"155 247 LINE SMOOTH",
"155 433 OFFCURVE",
"257 484 OFFCURVE",
"326 484 CURVE SMOOTH",
"421 484 OFFCURVE",
"461 422 OFFCURVE",
"461 298 CURVE SMOOTH",
"461 0 LINE",
"491 0 LINE",
"491 298 LINE SMOOTH",
"491 437 OFFCURVE",
"441 512 OFFCURVE",
"332 512 CURVE SMOOTH"
);
}
);
width = 600;
}
);
unicode = 006E;
},
{
glyphname = o;
lastChange = "2015-07-06 15:55:46 +0000";
layers = (
{
layerId = "60CFBDE8-BC08-4808-BF41-F011F3E03A54";
name = Light;
paths = (
{
closed = 1;
nodes = (
"409 -12 OFFCURVE",
"488 85 OFFCURVE",
"488 250 CURVE SMOOTH",
"488 415 OFFCURVE",
"409 512 OFFCURVE",
"274 512 CURVE SMOOTH",
"139 512 OFFCURVE",
"60 415 OFFCURVE",
"60 250 CURVE SMOOTH",
"60 85 OFFCURVE",
"139 -12 OFFCURVE",
"274 -12 CURVE SMOOTH"
);
},
{
closed = 1;
nodes = (
"160 16 OFFCURVE",
"92 103 OFFCURVE",
"92 250 CURVE SMOOTH",
"92 397 OFFCURVE",
"160 484 OFFCURVE",
"274 484 CURVE SMOOTH",
"388 484 OFFCURVE",
"456 397 OFFCURVE",
"456 250 CURVE SMOOTH",
"456 103 OFFCURVE",
"388 16 OFFCURVE",
"274 16 CURVE SMOOTH"
);
}
);
width = 548;
},
{
layerId = "EBFFFCD3-BAE4-48A5-9442-B72A90AD34A8";
name = Bold;
paths = (
{
closed = 1;
nodes = (
"462 -15 OFFCURVE",
"558 87 OFFCURVE",
"558 260 CURVE SMOOTH",
"558 433 OFFCURVE",
"462 535 OFFCURVE",
"299 535 CURVE SMOOTH",
"136 535 OFFCURVE",
"40 433 OFFCURVE",
"40 260 CURVE SMOOTH",
"40 87 OFFCURVE",
"136 -15 OFFCURVE",
"299 -15 CURVE SMOOTH"
);
},
{
closed = 1;
nodes = (
"240 33 OFFCURVE",
"217 108 OFFCURVE",
"217 260 CURVE SMOOTH",
"217 412 OFFCURVE",
"240 487 OFFCURVE",
"299 487 CURVE SMOOTH",
"358 487 OFFCURVE",
"381 412 OFFCURVE",
"381 260 CURVE SMOOTH",
"381 108 OFFCURVE",
"358 33 OFFCURVE",
"299 33 CURVE SMOOTH"
);
}
);
width = 598;
}
);
unicode = 006F;
},
{
glyphname = q;
lastChange = "2015-07-06 13:59:20 +0000";
layers = (
{
layerId = "60CFBDE8-BC08-4808-BF41-F011F3E03A54";
name = Light;
paths = (
{
closed = 1;
nodes = (
"483 -228 OFFCURVE",
"490 -220 OFFCURVE",
"490 -206 CURVE SMOOTH",
"490 444 LINE",
"445 499 OFFCURVE",
"369 512 OFFCURVE",
"305 512 CURVE SMOOTH",
"118 512 OFFCURVE",
"101 334 OFFCURVE",
"101 245 CURVE SMOOTH",
"101 71 OFFCURVE",
"161 -9 OFFCURVE",
"274 -9 CURVE SMOOTH",
"363 -9 OFFCURVE",
"434 46 OFFCURVE",
"459 129 CURVE",
"459 -85 OFFCURVE",
"459 -192 OFFCURVE",
"453 -220 CURVE",
"457 -224 OFFCURVE",
"462 -228 OFFCURVE",
"471 -228 CURVE SMOOTH"
);
},
{
closed = 1;
nodes = (
"185 19 OFFCURVE",
"133 82 OFFCURVE",
"133 242 CURVE SMOOTH",
"133 330 OFFCURVE",
"149 484 OFFCURVE",
"307 484 CURVE SMOOTH",
"340 484 OFFCURVE",
"435 474 OFFCURVE",
"460 433 CURVE",
"459 247 LINE",
"459 163 OFFCURVE",
"422 19 OFFCURVE",
"277 19 CURVE SMOOTH"
);
}
);
width = 600;
},
{
layerId = "EBFFFCD3-BAE4-48A5-9442-B72A90AD34A8";
name = Bold;
paths = (
{
closed = 1;
nodes = (
"494 -219 OFFCURVE",
"527 -194 OFFCURVE",
"527 -143 CURVE SMOOTH",
"526 469 LINE",
"479 506 OFFCURVE",
"402 535 OFFCURVE",
"307 535 CURVE SMOOTH",
"124 535 OFFCURVE",
"48 429 OFFCURVE",
"48 243 CURVE SMOOTH",
"48 55 OFFCURVE",
"126 -15 OFFCURVE",
"233 -15 CURVE SMOOTH",
"305 -15 OFFCURVE",
"354 16 OFFCURVE",
"377 75 CURVE",
"375 20 OFFCURVE",
"382 -95 OFFCURVE",
"350 -189 CURVE",
"365 -201 OFFCURVE",
"402 -228 OFFCURVE",
"452 -223 CURVE SMOOTH"
);
},
{
closed = 1;
nodes = (
"235 55 OFFCURVE",
"225 100 OFFCURVE",
"225 227 CURVE SMOOTH",
"225 406 OFFCURVE",
"245 485 OFFCURVE",
"319 485 CURVE SMOOTH",
"339 485 OFFCURVE",
"360 479 OFFCURVE",
"377 471 CURVE",
"374 216 LINE",
"374 106 OFFCURVE",
"337 55 OFFCURVE",
"284 55 CURVE SMOOTH"
);
}
);
width = 600;
}
);
unicode = 0071;
},
{
glyphname = s;
lastChange = "2015-07-06 15:52:20 +0000";
layers = (
{
background = {
paths = (
{
closed = 1;
nodes = (
"19 477 OFFCURVE",
"19 354 CURVE SMOOTH",
"19 249 OFFCURVE",
"110 223 OFFCURVE",
"189 190 CURVE SMOOTH",
"250 165 OFFCURVE",
"304 142 OFFCURVE",
"304 95 CURVE SMOOTH",
"304 57 OFFCURVE",
"269 41 OFFCURVE",
"226 41 CURVE SMOOTH",
"136 41 OFFCURVE",
"98 112 OFFCURVE",
"110 177 CURVE",
"18 192 OFFCURVE",
"-1 140 OFFCURVE",
"-1 104 CURVE SMOOTH",
"-1 35 OFFCURVE",
"66 -12 OFFCURVE",
"202 -12 CURVE SMOOTH",
"383 -12 OFFCURVE",
"455 72 OFFCURVE",
"455 158 CURVE SMOOTH",
"455 255 OFFCURVE",
"365 268 OFFCURVE",
"285 305 CURVE SMOOTH",
"221 334 OFFCURVE",
"164 360 OFFCURVE",
"164 409 CURVE SMOOTH",
"164 444 OFFCURVE",
"194 459 OFFCURVE",
"227 459 CURVE SMOOTH",
"297 459 OFFCURVE",
"313 394 OFFCURVE",
"313 347 CURVE",
"325 345 OFFCURVE",
"336 344 OFFCURVE",
"346 344 CURVE SMOOTH",
"404 344 OFFCURVE",
"424 379 OFFCURVE",
"424 413 CURVE SMOOTH",
"424 478 OFFCURVE",
"351 509 OFFCURVE",
"253 509 CURVE SMOOTH",
"129 509 OFFCURVE"
);
}
);
};
layerId = "60CFBDE8-BC08-4808-BF41-F011F3E03A54";
name = Light;
paths = (
{
closed = 1;
nodes = (
"363 -12 OFFCURVE",
"399 64 OFFCURVE",
"399 123 CURVE SMOOTH",
"399 215 OFFCURVE",
"311 247 OFFCURVE",
"226 280 CURVE SMOOTH",
"155 308 OFFCURVE",
"89 334 OFFCURVE",
"89 394 CURVE SMOOTH",
"89 455 OFFCURVE",
"156 481 OFFCURVE",
"227 481 CURVE SMOOTH",
"296 481 OFFCURVE",
"339 456 OFFCURVE",
"339 400 CURVE SMOOTH",
"339 392 OFFCURVE",
"338 383 OFFCURVE",
"335 374 CURVE",
"345 371 OFFCURVE",
"353 371 OFFCURVE",
"360 375 CURVE SMOOTH",
"370 381 OFFCURVE",
"373 391 OFFCURVE",
"373 406 CURVE SMOOTH",
"373 469 OFFCURVE",
"324 509 OFFCURVE",
"229 509 CURVE SMOOTH",
"137 509 OFFCURVE",
"57 472 OFFCURVE",
"57 391 CURVE SMOOTH",
"57 315 OFFCURVE",
"129 283 OFFCURVE",
"210 253 CURVE SMOOTH",
"288 224 OFFCURVE",
"367 196 OFFCURVE",
"367 121 CURVE SMOOTH",
"367 54 OFFCURVE",
"302 16 OFFCURVE",
"209 16 CURVE SMOOTH",
"123 16 OFFCURVE",
"63 49 OFFCURVE",
"63 124 CURVE SMOOTH",
"63 138 OFFCURVE",
"65 146 OFFCURVE",
"68 156 CURVE",
"41 159 OFFCURVE",
"30 145 OFFCURVE",
"30 114 CURVE SMOOTH",
"30 47 OFFCURVE",
"79 -12 OFFCURVE",
"212 -12 CURVE SMOOTH"
);
}
);
width = 430;
},
{
layerId = "EBFFFCD3-BAE4-48A5-9442-B72A90AD34A8";
name = Bold;
paths = (
{
closed = 1;
nodes = (
"403 -15 OFFCURVE",
"475 69 OFFCURVE",
"475 155 CURVE SMOOTH",
"475 252 OFFCURVE",
"384 294 OFFCURVE",
"304 331 CURVE SMOOTH",
"240 360 OFFCURVE",
"183 386 OFFCURVE",
"183 435 CURVE SMOOTH",
"183 470 OFFCURVE",
"213 485 OFFCURVE",
"246 485 CURVE SMOOTH",
"280 485 OFFCURVE",
"302 465 OFFCURVE",
"314 439 CURVE SMOOTH",
"324 419 OFFCURVE",
"327 394 OFFCURVE",
"327 373 CURVE",
"339 371 OFFCURVE",
"350 370 OFFCURVE",
"365 370 CURVE SMOOTH",
"423 370 OFFCURVE",
"443 405 OFFCURVE",
"443 439 CURVE SMOOTH",
"443 504 OFFCURVE",
"370 535 OFFCURVE",
"272 535 CURVE SMOOTH",
"148 535 OFFCURVE",
"38 485 OFFCURVE",
"38 362 CURVE SMOOTH",
"38 257 OFFCURVE",
"130 220 OFFCURVE",
"209 187 CURVE SMOOTH",
"270 162 OFFCURVE",
"324 139 OFFCURVE",
"324 92 CURVE SMOOTH",
"324 54 OFFCURVE",
"289 38 OFFCURVE",
"246 38 CURVE SMOOTH",
"177 38 OFFCURVE",
"148 82 OFFCURVE",
"139 117 CURVE SMOOTH",
"134 135 OFFCURVE",
"132 155 OFFCURVE",
"136 174 CURVE",
"44 189 OFFCURVE",
"19 137 OFFCURVE",
"19 101 CURVE SMOOTH",
"19 32 OFFCURVE",
"86 -15 OFFCURVE",
"222 -15 CURVE SMOOTH"
);
}
);
width = 490;
},
{
associatedMasterId = "EBFFFCD3-BAE4-48A5-9442-B72A90AD34A8";
layerId = "04C49F4C-28DA-4028-BDCF-4A819CD10D87";
name = "Bold Jul 6 15, 16:30";
paths = (
{
closed = 1;
nodes = (
"310 204 OFFCURVE",
"310 113 CURVE SMOOTH",
"310 59 OFFCURVE",
"277 42 OFFCURVE",
"230 42 CURVE SMOOTH",
"170 42 OFFCURVE",
"124 73 OFFCURVE",
"122 174 CURVE",
"46 170 OFFCURVE",
"25 138 OFFCURVE",
"25 103 CURVE SMOOTH",
"25 33 OFFCURVE",
"88 -15 OFFCURVE",
"224 -15 CURVE SMOOTH",
"378 -15 OFFCURVE",
"454 69 OFFCURVE",
"454 155 CURVE SMOOTH",
"454 331 OFFCURVE",
"176 322 OFFCURVE",
"176 437 CURVE SMOOTH",
"176 471 OFFCURVE",
"211 490 OFFCURVE",
"249 490 CURVE SMOOTH",
"311 490 OFFCURVE",
"328 420 OFFCURVE",
"328 373 CURVE",
"407 357 OFFCURVE",
"433 409 OFFCURVE",
"433 443 CURVE SMOOTH",
"433 504 OFFCURVE",
"365 535 OFFCURVE",
"249 535 CURVE SMOOTH",
"145 535 OFFCURVE",
"38 489 OFFCURVE",
"38 371 CURVE SMOOTH",
"38 178 OFFCURVE"
);
}
);
width = 480;
},
{
associatedMasterId = "60CFBDE8-BC08-4808-BF41-F011F3E03A54";
layerId = "C2AD4610-E75B-4102-BA91-7BE2E5411356";
name = "Light Jul 6 15, 16:33";
paths = (
{
closed = 1;
nodes = (
"38 485 OFFCURVE",
"38 362 CURVE SMOOTH",
"38 257 OFFCURVE",
"130 220 OFFCURVE",
"209 187 CURVE SMOOTH",
"270 162 OFFCURVE",
"324 139 OFFCURVE",
"324 92 CURVE SMOOTH",
"324 54 OFFCURVE",
"289 38 OFFCURVE",
"246 38 CURVE SMOOTH",
"156 38 OFFCURVE",
"118 109 OFFCURVE",
"130 174 CURVE",
"38 189 OFFCURVE",
"19 137 OFFCURVE",
"19 101 CURVE SMOOTH",
"19 32 OFFCURVE",
"86 -15 OFFCURVE",
"222 -15 CURVE SMOOTH",
"403 -15 OFFCURVE",
"475 69 OFFCURVE",
"475 155 CURVE SMOOTH",
"475 252 OFFCURVE",
"384 294 OFFCURVE",
"304 331 CURVE SMOOTH",
"240 360 OFFCURVE",
"183 386 OFFCURVE",
"183 435 CURVE SMOOTH",
"183 470 OFFCURVE",
"213 485 OFFCURVE",
"246 485 CURVE SMOOTH",
"316 485 OFFCURVE",
"332 420 OFFCURVE",
"332 373 CURVE",
"344 371 OFFCURVE",
"355 370 OFFCURVE",
"365 370 CURVE SMOOTH",
"423 370 OFFCURVE",
"443 405 OFFCURVE",
"443 439 CURVE SMOOTH",
"443 504 OFFCURVE",
"370 535 OFFCURVE",
"272 535 CURVE SMOOTH",
"148 535 OFFCURVE"
);
}
);
width = 510;
},
{
associatedMasterId = "60CFBDE8-BC08-4808-BF41-F011F3E03A54";
layerId = "02AC44D7-CDA9-4ACF-AA4C-20B267DCCE43";
name = "Light Jul 6 15, 16:43";
paths = (
{
closed = 1;
nodes = (
"38 485 OFFCURVE",
"38 362 CURVE SMOOTH",
"38 257 OFFCURVE",
"130 220 OFFCURVE",
"209 187 CURVE SMOOTH",
"270 162 OFFCURVE",
"324 139 OFFCURVE",
"324 92 CURVE SMOOTH",
"324 54 OFFCURVE",
"289 38 OFFCURVE",
"246 38 CURVE SMOOTH",
"156 38 OFFCURVE",
"118 109 OFFCURVE",
"130 174 CURVE",
"38 189 OFFCURVE",
"19 137 OFFCURVE",
"19 101 CURVE SMOOTH",
"19 32 OFFCURVE",
"86 -15 OFFCURVE",
"222 -15 CURVE SMOOTH",
"403 -15 OFFCURVE",
"475 69 OFFCURVE",
"475 155 CURVE SMOOTH",
"475 252 OFFCURVE",
"384 294 OFFCURVE",
"304 331 CURVE SMOOTH",
"240 360 OFFCURVE",
"183 386 OFFCURVE",
"183 435 CURVE SMOOTH",
"183 470 OFFCURVE",
"213 485 OFFCURVE",
"246 485 CURVE SMOOTH",
"316 485 OFFCURVE",
"332 420 OFFCURVE",
"332 373 CURVE",
"344 371 OFFCURVE",
"355 370 OFFCURVE",
"365 370 CURVE SMOOTH",
"423 370 OFFCURVE",
"443 405 OFFCURVE",
"443 439 CURVE SMOOTH",
"443 504 OFFCURVE",
"370 535 OFFCURVE",
"272 535 CURVE SMOOTH",
"148 535 OFFCURVE"
);
}
);
width = 510;
},
{
associatedMasterId = "EBFFFCD3-BAE4-48A5-9442-B72A90AD34A8";
layerId = "3989D3DA-05FD-4144-8170-9E0B4DF78FEA";
name = "Bold Jul 6 15, 16:52";
paths = (
{
closed = 1;
nodes = (
"403 -15 OFFCURVE",
"475 69 OFFCURVE",
"475 155 CURVE SMOOTH",
"475 252 OFFCURVE",
"384 294 OFFCURVE",
"304 331 CURVE SMOOTH",
"240 360 OFFCURVE",
"183 386 OFFCURVE",
"183 435 CURVE SMOOTH",
"183 470 OFFCURVE",
"213 485 OFFCURVE",
"246 485 CURVE SMOOTH",
"285 485 OFFCURVE",
"307 465 OFFCURVE",
"319 439 CURVE SMOOTH",
"329 419 OFFCURVE",
"332 394 OFFCURVE",
"332 373 CURVE",
"344 371 OFFCURVE",
"355 370 OFFCURVE",
"365 370 CURVE SMOOTH",
"423 370 OFFCURVE",
"443 405 OFFCURVE",
"443 439 CURVE SMOOTH",
"443 504 OFFCURVE",
"370 535 OFFCURVE",
"272 535 CURVE SMOOTH",
"148 535 OFFCURVE",
"38 485 OFFCURVE",
"38 362 CURVE SMOOTH",
"38 257 OFFCURVE",
"130 220 OFFCURVE",
"209 187 CURVE SMOOTH",
"270 162 OFFCURVE",
"324 139 OFFCURVE",
"324 92 CURVE SMOOTH",
"324 54 OFFCURVE",
"289 38 OFFCURVE",
"246 38 CURVE SMOOTH",
"183 38 OFFCURVE",
"145 73 OFFCURVE",
"133 117 CURVE SMOOTH",
"127 135 OFFCURVE",
"126 155 OFFCURVE",
"130 174 CURVE",
"38 189 OFFCURVE",
"19 137 OFFCURVE",
"19 101 CURVE SMOOTH",
"19 32 OFFCURVE",
"86 -15 OFFCURVE",
"222 -15 CURVE SMOOTH"
);
}
);
width = 490;
}
);
unicode = 0073;
},
{
glyphname = "a-malayalam";
lastChange = "2015-09-03 17:26:30 +0000";
layers = (
{
layerId = "60CFBDE8-BC08-4808-BF41-F011F3E03A54";
name = Light;
paths = (
{
closed = 1;
nodes = (
"1120 -18 OFFCURVE",
"1187 39 OFFCURVE",
"1187 201 CURVE SMOOTH",
"1187 438 OFFCURVE",
"1100 547 OFFCURVE",
"965 547 CURVE SMOOTH",
"857 547 OFFCURVE",
"782 476 OFFCURVE",
"759 384 CURVE",
"734 479 OFFCURVE",
"661 547 OFFCURVE",
"543 547 CURVE SMOOTH",
"398 547 OFFCURVE",
"271 447 OFFCURVE",
"271 235 CURVE SMOOTH",
"271 86 OFFCURVE",
"336 -17 OFFCURVE",
"454 -17 CURVE SMOOTH",
"552 -17 OFFCURVE",
"596 54 OFFCURVE",
"596 118 CURVE SMOOTH",
"596 184 OFFCURVE",
"549 249 OFFCURVE",
"475 253 CURVE",
"536 267 OFFCURVE",
"579 317 OFFCURVE",
"579 385 CURVE SMOOTH",
"579 500 OFFCURVE",
"465 546 OFFCURVE",
"349 546 CURVE SMOOTH",
"163 546 OFFCURVE",
"38 427 OFFCURVE",
"38 241 CURVE SMOOTH",
"38 95 OFFCURVE",
"118 -17 OFFCURVE",
"209 -17 CURVE SMOOTH",
"238 -17 OFFCURVE",
"234 9 OFFCURVE",
"226 11 CURVE",
"130 11 OFFCURVE",
"71 115 OFFCURVE",
"71 239 CURVE SMOOTH",
"71 415 OFFCURVE",
"187 519 OFFCURVE",
"350 519 CURVE SMOOTH",
"447 519 OFFCURVE",
"546 481 OFFCURVE",
"546 386 CURVE SMOOTH",
"546 323 OFFCURVE",
"500 265 OFFCURVE",
"426 265 CURVE SMOOTH",
"389 265 LINE",
"389 239 LINE",
"426 239 LINE SMOOTH",
"522 239 OFFCURVE",
"562 183 OFFCURVE",
"562 119 CURVE SMOOTH",
"562 47 OFFCURVE",
"510 11 OFFCURVE",
"451 11 CURVE SMOOTH",
"362 11 OFFCURVE",
"304 93 OFFCURVE",
"304 232 CURVE SMOOTH",
"304 434 OFFCURVE",
"425 519 OFFCURVE",
"545 519 CURVE SMOOTH",
"694 519 OFFCURVE",
"742 388 OFFCURVE",
"742 321 CURVE SMOOTH",
"742 -1 LINE SMOOTH",
"742 -9 OFFCURVE",
"745 -18 OFFCURVE",
"759 -18 CURVE SMOOTH",
"765 -18 OFFCURVE",
"769 -16 OFFCURVE",
"774 -11 CURVE",
"773 -7 OFFCURVE",
"772 11 OFFCURVE",
"772 40 CURVE SMOOTH",
"772 322 LINE",
"772 403 OFFCURVE",
"832 519 OFFCURVE",
"965 519 CURVE SMOOTH",
"1076 519 OFFCURVE",
"1144 439 OFFCURVE",
"1157 256 CURVE",
"1132 310 OFFCURVE",
"1092 338 OFFCURVE",
"1034 338 CURVE SMOOTH",
"954 338 OFFCURVE",
"896 277 OFFCURVE",
"896 160 CURVE SMOOTH",
"896 37 OFFCURVE",
"960 -18 OFFCURVE",
"1036 -18 CURVE SMOOTH"
);
},
{
closed = 1;
nodes = (
"965 10 OFFCURVE",
"925 65 OFFCURVE",
"925 157 CURVE SMOOTH",
"925 253 OFFCURVE",
"964 310 OFFCURVE",
"1031 310 CURVE SMOOTH",
"1108 310 OFFCURVE",
"1153 255 OFFCURVE",
"1153 161 CURVE SMOOTH",
"1153 70 OFFCURVE",
"1108 10 OFFCURVE",
"1033 10 CURVE SMOOTH"
);
}
);
width = 1285;
},
{
background = {
paths = (
{
closed = 1;
nodes = (
"1012 28 OFFCURVE",
"992 74 OFFCURVE",
"992 153 CURVE SMOOTH",
"992 233 OFFCURVE",
"1013 287 OFFCURVE",
"1054 287 CURVE SMOOTH",
"1097 287 OFFCURVE",
"1111 229 OFFCURVE",
"1111 158 CURVE SMOOTH",
"1111 66 OFFCURVE",
"1088 28 OFFCURVE",
"1052 28 CURVE SMOOTH"
);
},
{
closed = 0;
nodes = (
"1055 -18 LINE SMOOTH",
"1160 -18 OFFCURVE",
"1261 29 OFFCURVE",
"1261 165 CURVE SMOOTH",
"1261 262 OFFCURVE",
"1209 344 OFFCURVE",
"1089 344 CURVE SMOOTH",
"989 344 OFFCURVE",
"935 282 OFFCURVE",
"935 165 CURVE SMOOTH",
"935 127 OFFCURVE",
"943 71 OFFCURVE",
"979 28 CURVE"
);
}
);
};
layerId = "EBFFFCD3-BAE4-48A5-9442-B72A90AD34A8";
name = Bold;
paths = (
{
closed = 1;
nodes = (
"1277 -18 OFFCURVE",
"1407 59 OFFCURVE",
"1407 256 CURVE SMOOTH",
"1407 475 OFFCURVE",
"1247 567 OFFCURVE",
"1103 567 CURVE SMOOTH",
"957 567 OFFCURVE",
"877 472 OFFCURVE",
"857 379 CURVE",
"829 490 OFFCURVE",
"751 567 OFFCURVE",
"588 567 CURVE SMOOTH",
"394 567 OFFCURVE",
"234 459 OFFCURVE",
"234 236 CURVE SMOOTH",
"234 82 OFFCURVE",
"311 -17 OFFCURVE",
"466 -17 CURVE SMOOTH",
"581 -17 OFFCURVE",
"646 37 OFFCURVE",
"646 117 CURVE SMOOTH",
"646 191 OFFCURVE",
"590 256 OFFCURVE",
"509 260 CURVE",
"572 272 OFFCURVE",
"636 314 OFFCURVE",
"636 391 CURVE SMOOTH",
"636 515 OFFCURVE",
"471 566 OFFCURVE",
"337 566 CURVE SMOOTH",
"114 566 OFFCURVE",
"4 426 OFFCURVE",
"4 250 CURVE SMOOTH",
"4 78 OFFCURVE",
"109 -17 OFFCURVE",
"195 -17 CURVE SMOOTH",
"239 -17 OFFCURVE",
"243 8 OFFCURVE",
"227 21 CURVE",
"133 21 OFFCURVE",
"68 117 OFFCURVE",
"68 246 CURVE SMOOTH",
"68 413 OFFCURVE",
"177 518 OFFCURVE",
"321 518 CURVE SMOOTH",
"410 518 OFFCURVE",
"492 478 OFFCURVE",
"492 386 CURVE SMOOTH",
"492 331 OFFCURVE",
"463 283 OFFCURVE",
"420 283 CURVE SMOOTH",
"389 283 LINE",
"389 235 LINE",
"420 235 LINE SMOOTH",
"474 235 OFFCURVE",
"496 177 OFFCURVE",
"496 115 CURVE SMOOTH",
"496 54 OFFCURVE",
"475 31 OFFCURVE",
"432 31 CURVE SMOOTH",
"354 31 OFFCURVE",
"298 107 OFFCURVE",
"298 230 CURVE SMOOTH",
"298 429 OFFCURVE",
"445 518 OFFCURVE",
"573 518 CURVE SMOOTH",
"710 518 OFFCURVE",
"753 417 OFFCURVE",
"753 331 CURVE SMOOTH",
"753 103 LINE SMOOTH",
"753 9 OFFCURVE",
"784 -10 OFFCURVE",
"834 -10 CURVE SMOOTH",
"866 -10 OFFCURVE",
"894 -2 OFFCURVE",
"918 15 CURVE",
"907 45 OFFCURVE",
"899 72 OFFCURVE",
"899 167 CURVE SMOOTH",
"899 295 LINE SMOOTH",
"899 416 OFFCURVE",
"978 498 OFFCURVE",
"1095 498 CURVE SMOOTH",
"1224 498 OFFCURVE",
"1260 399 OFFCURVE",
"1263 292 CURVE",
"1244 335 OFFCURVE",
"1203 364 OFFCURVE",
"1144 364 CURVE SMOOTH",
"1063 364 OFFCURVE",
"993 309 OFFCURVE",
"993 174 CURVE SMOOTH",
"993 32 OFFCURVE",
"1071 -18 OFFCURVE",
"1163 -18 CURVE SMOOTH"
);
},
{
closed = 1;
nodes = (
"1095 32 OFFCURVE",
"1059 84 OFFCURVE",
"1059 172 CURVE SMOOTH",
"1059 257 OFFCURVE",
"1093 307 OFFCURVE",
"1151 307 CURVE SMOOTH",
"1211 307 OFFCURVE",
"1247 255 OFFCURVE",
"1247 168 CURVE SMOOTH",
"1247 83 OFFCURVE",
"1213 32 OFFCURVE",
"1154 32 CURVE SMOOTH"
);
}
);
width = 1419;
},
{
associatedMasterId = "EBFFFCD3-BAE4-48A5-9442-B72A90AD34A8";
background = {
paths = (
{
closed = 1;
nodes = (
"1012 28 OFFCURVE",
"992 74 OFFCURVE",
"992 153 CURVE SMOOTH",
"992 233 OFFCURVE",
"1013 287 OFFCURVE",
"1054 287 CURVE SMOOTH",
"1097 287 OFFCURVE",
"1111 229 OFFCURVE",
"1111 158 CURVE SMOOTH",
"1111 66 OFFCURVE",
"1088 28 OFFCURVE",
"1052 28 CURVE SMOOTH"
);
},
{
closed = 0;
nodes = (
"1055 -18 LINE SMOOTH",
"1160 -18 OFFCURVE",
"1261 29 OFFCURVE",
"1261 165 CURVE SMOOTH",
"1261 262 OFFCURVE",
"1209 344 OFFCURVE",
"1089 344 CURVE SMOOTH",
"989 344 OFFCURVE",
"935 282 OFFCURVE",
"935 165 CURVE SMOOTH",
"935 127 OFFCURVE",
"943 71 OFFCURVE",
"979 28 CURVE"
);
}
);
};
layerId = "DAF24304-6C83-42FD-AC9D-A329B49BC522";
name = "Bold Sep 3 15, 12:11";
paths = (
{
closed = 1;
nodes = (
"1277 -18 OFFCURVE",
"1407 58 OFFCURVE",
"1407 261 CURVE SMOOTH",
"1407 471 OFFCURVE",
"1247 567 OFFCURVE",
"1107 567 CURVE SMOOTH",
"955 567 OFFCURVE",
"878 473 OFFCURVE",
"857 379 CURVE",
"831 484 OFFCURVE",
"755 567 OFFCURVE",
"591 567 CURVE SMOOTH",
"403 567 OFFCURVE",
"254 459 OFFCURVE",
"254 235 CURVE SMOOTH",
"254 82 OFFCURVE",
"323 -17 OFFCURVE",
"470 -17 CURVE SMOOTH",
"579 -17 OFFCURVE",
"646 37 OFFCURVE",
"646 118 CURVE SMOOTH",
"646 191 OFFCURVE",
"590 256 OFFCURVE",
"509 260 CURVE",
"575 273 OFFCURVE",
"636 315 OFFCURVE",
"636 392 CURVE SMOOTH",
"636 515 OFFCURVE",
"483 566 OFFCURVE",
"352 566 CURVE SMOOTH",
"136 566 OFFCURVE",
"24 426 OFFCURVE",
"24 249 CURVE SMOOTH",
"24 78 OFFCURVE",
"129 -17 OFFCURVE",
"215 -17 CURVE SMOOTH",
"259 -17 OFFCURVE",
"263 8 OFFCURVE",
"247 21 CURVE",
"153 21 OFFCURVE",
"88 117 OFFCURVE",
"88 245 CURVE SMOOTH",
"88 413 OFFCURVE",
"199 518 OFFCURVE",
"336 518 CURVE SMOOTH",
"420 518 OFFCURVE",
"492 478 OFFCURVE",
"492 387 CURVE SMOOTH",
"492 330 OFFCURVE",
"463 283 OFFCURVE",
"420 283 CURVE SMOOTH",
"389 283 LINE",
"389 235 LINE",
"420 235 LINE SMOOTH",
"474 235 OFFCURVE",
"496 177 OFFCURVE",
"496 116 CURVE SMOOTH",
"496 56 OFFCURVE",
"475 31 OFFCURVE",
"435 31 CURVE SMOOTH",
"365 31 OFFCURVE",
"318 107 OFFCURVE",
"318 227 CURVE SMOOTH",
"318 432 OFFCURVE",
"454 518 OFFCURVE",
"576 518 CURVE SMOOTH",
"708 518 OFFCURVE",
"753 418 OFFCURVE",
"753 331 CURVE SMOOTH",
"753 103 LINE",
"753 9 OFFCURVE",
"784 -10 OFFCURVE",
"834 -10 CURVE SMOOTH",
"866 -10 OFFCURVE",
"894 -2 OFFCURVE",
"918 15 CURVE",
"907 45 OFFCURVE",
"899 72 OFFCURVE",
"899 167 CURVE SMOOTH",
"899 295 LINE SMOOTH",
"899 416 OFFCURVE",
"977 498 OFFCURVE",
"1098 498 CURVE SMOOTH",
"1225 498 OFFCURVE",
"1256 388 OFFCURVE",
"1256 274 CURVE SMOOTH",
"1256 117 OFFCURVE",
"1227 32 OFFCURVE",
"1155 32 CURVE SMOOTH",
"1099 32 OFFCURVE",
"1059 72 OFFCURVE",
"1059 172 CURVE SMOOTH",
"1059 246 OFFCURVE",
"1080 307 OFFCURVE",
"1151 307 CURVE SMOOTH",
"1231 307 OFFCURVE",
"1256 232 OFFCURVE",
"1247 148 CURVE",
"1273 214 LINE",
"1273 295 OFFCURVE",
"1233 364 OFFCURVE",
"1143 364 CURVE SMOOTH",
"1063 364 OFFCURVE",
"993 309 OFFCURVE",
"993 173 CURVE SMOOTH",
"993 32 OFFCURVE",
"1070 -18 OFFCURVE",
"1165 -18 CURVE SMOOTH"
);
}
);
width = 1419;
},
{
associatedMasterId = "60CFBDE8-BC08-4808-BF41-F011F3E03A54";
layerId = "0FF8A484-6F35-47E1-917E-429639EC687D";
name = "Light Sep 3 15, 12:13";
paths = (
{
closed = 1;
nodes = (
"1160 96 OFFCURVE",
"1110 9 OFFCURVE",
"1033 9 CURVE SMOOTH",
"966 9 OFFCURVE",
"924 59 OFFCURVE",
"924 157 CURVE SMOOTH",
"924 243 OFFCURVE",
"956 310 OFFCURVE",
"1031 310 CURVE SMOOTH",
"1112 310 OFFCURVE",
"1169 223 OFFCURVE",
"1156 141 CURVE",
"1174 205 LINE",
"1154 291 OFFCURVE",
"1108 338 OFFCURVE",
"1034 338 CURVE SMOOTH",
"954 338 OFFCURVE",
"896 277 OFFCURVE",
"896 160 CURVE SMOOTH",
"896 37 OFFCURVE",
"960 -18 OFFCURVE",
"1036 -18 CURVE SMOOTH",
"1119 -18 OFFCURVE",
"1186 47 OFFCURVE",
"1186 231 CURVE SMOOTH",
"1186 445 OFFCURVE",
"1093 543 OFFCURVE",
"965 543 CURVE SMOOTH",
"857 543 OFFCURVE",
"782 474 OFFCURVE",
"759 384 CURVE",
"734 477 OFFCURVE",
"661 543 OFFCURVE",
"543 543 CURVE SMOOTH",
"399 543 OFFCURVE",
"273 444 OFFCURVE",
"273 235 CURVE SMOOTH",
"273 86 OFFCURVE",
"337 -17 OFFCURVE",
"454 -17 CURVE SMOOTH",
"551 -17 OFFCURVE",
"595 54 OFFCURVE",
"595 118 CURVE SMOOTH",
"595 184 OFFCURVE",
"548 249 OFFCURVE",
"475 253 CURVE",
"535 267 OFFCURVE",
"578 317 OFFCURVE",
"578 385 CURVE SMOOTH",
"578 497 OFFCURVE",
"464 542 OFFCURVE",
"349 542 CURVE SMOOTH",
"164 542 OFFCURVE",
"40 425 OFFCURVE",
"40 241 CURVE SMOOTH",
"40 95 OFFCURVE",
"119 -17 OFFCURVE",
"209 -17 CURVE SMOOTH",
"238 -17 OFFCURVE",
"234 9 OFFCURVE",
"226 11 CURVE",
"130 11 OFFCURVE",
"71 115 OFFCURVE",
"71 239 CURVE SMOOTH",
"71 413 OFFCURVE",
"187 516 OFFCURVE",
"350 516 CURVE SMOOTH",
"447 516 OFFCURVE",
"546 479 OFFCURVE",
"546 386 CURVE SMOOTH",
"546 323 OFFCURVE",
"500 265 OFFCURVE",
"426 265 CURVE SMOOTH",
"389 265 LINE",
"389 239 LINE",
"426 239 LINE SMOOTH",
"522 239 OFFCURVE",
"562 183 OFFCURVE",
"562 119 CURVE SMOOTH",
"562 47 OFFCURVE",
"510 11 OFFCURVE",
"451 11 CURVE SMOOTH",
"362 11 OFFCURVE",
"304 93 OFFCURVE",
"304 232 CURVE SMOOTH",
"304 432 OFFCURVE",
"425 516 OFFCURVE",
"545 516 CURVE SMOOTH",
"694 516 OFFCURVE",
"742 387 OFFCURVE",
"742 321 CURVE SMOOTH",
"742 -1 LINE SMOOTH",
"742 -9 OFFCURVE",
"745 -18 OFFCURVE",
"759 -18 CURVE SMOOTH",
"765 -18 OFFCURVE",
"769 -16 OFFCURVE",
"774 -11 CURVE",
"772 -3 OFFCURVE",
"772 9 OFFCURVE",
"772 34 CURVE SMOOTH",
"772 322 LINE SMOOTH",
"772 401 OFFCURVE",
"832 516 OFFCURVE",
"965 516 CURVE SMOOTH",
"1089 516 OFFCURVE",
"1160 419 OFFCURVE",
"1160 197 CURVE SMOOTH"
);
}
);
width = 1285;
}
);
unicode = 0D05;
},
{
glyphname = "aa-malayalam";
lastChange = "2015-09-03 13:31:39 +0000";
layers = (
{
layerId = "60CFBDE8-BC08-4808-BF41-F011F3E03A54";
name = Light;
paths = (
{
closed = 1;
nodes = (
"1209 -183 OFFCURVE",
"1337 -113 OFFCURVE",
"1337 86 CURVE SMOOTH",
"1337 258 OFFCURVE",
"1233 338 OFFCURVE",
"1074 338 CURVE SMOOTH",
"971 338 OFFCURVE",
"896 277 OFFCURVE",
"896 160 CURVE SMOOTH",
"896 37 OFFCURVE",
"960 -18 OFFCURVE",
"1036 -18 CURVE SMOOTH",
"1120 -18 OFFCURVE",
"1188 47 OFFCURVE",
"1188 231 CURVE SMOOTH",
"1188 444 OFFCURVE",
"1100 543 OFFCURVE",
"965 543 CURVE SMOOTH",
"857 543 OFFCURVE",
"782 474 OFFCURVE",
"759 384 CURVE",
"734 477 OFFCURVE",
"661 543 OFFCURVE",
"543 543 CURVE SMOOTH",
"398 543 OFFCURVE",
"271 444 OFFCURVE",
"271 235 CURVE SMOOTH",
"271 86 OFFCURVE",
"336 -17 OFFCURVE",
"454 -17 CURVE SMOOTH",
"552 -17 OFFCURVE",
"596 54 OFFCURVE",
"596 118 CURVE SMOOTH",
"596 184 OFFCURVE",
"549 249 OFFCURVE",
"475 253 CURVE",
"536 267 OFFCURVE",
"579 317 OFFCURVE",
"579 385 CURVE SMOOTH",
"579 497 OFFCURVE",
"465 542 OFFCURVE",
"349 542 CURVE SMOOTH",
"163 542 OFFCURVE",
"38 425 OFFCURVE",
"38 241 CURVE SMOOTH",
"38 95 OFFCURVE",
"118 -17 OFFCURVE",
"209 -17 CURVE SMOOTH",
"238 -17 OFFCURVE",
"234 9 OFFCURVE",
"226 11 CURVE",
"130 11 OFFCURVE",
"71 115 OFFCURVE",
"71 239 CURVE SMOOTH",
"71 412 OFFCURVE",
"187 515 OFFCURVE",
"350 515 CURVE SMOOTH",
"447 515 OFFCURVE",
"546 478 OFFCURVE",
"546 386 CURVE SMOOTH",
"546 323 OFFCURVE",
"500 265 OFFCURVE",
"426 265 CURVE SMOOTH",
"389 265 LINE",
"389 239 LINE",
"426 239 LINE SMOOTH",
"522 239 OFFCURVE",
"562 183 OFFCURVE",
"562 119 CURVE SMOOTH",
"562 47 OFFCURVE",
"510 11 OFFCURVE",
"451 11 CURVE SMOOTH",
"362 11 OFFCURVE",
"304 93 OFFCURVE",
"304 232 CURVE SMOOTH",
"304 431 OFFCURVE",
"425 515 OFFCURVE",
"545 515 CURVE SMOOTH",
"694 515 OFFCURVE",
"742 387 OFFCURVE",
"742 321 CURVE SMOOTH",
"742 -1 LINE SMOOTH",
"742 -9 OFFCURVE",
"745 -18 OFFCURVE",
"759 -18 CURVE SMOOTH",
"765 -18 OFFCURVE",
"769 -16 OFFCURVE",
"774 -11 CURVE",
"773 -7 OFFCURVE",
"772 11 OFFCURVE",
"772 40 CURVE SMOOTH",
"772 322 LINE SMOOTH",
"772 401 OFFCURVE",
"832 515 OFFCURVE",
"965 515 CURVE SMOOTH",
"1103 515 OFFCURVE",
"1155 411 OFFCURVE",
"1155 231 CURVE SMOOTH",
"1155 98 OFFCURVE",
"1115 9 OFFCURVE",
"1033 9 CURVE SMOOTH",
"964 9 OFFCURVE",
"924 64 OFFCURVE",
"924 157 CURVE SMOOTH",
"924 253 OFFCURVE",
"979 310 OFFCURVE",
"1071 310 CURVE SMOOTH",
"1240 310 OFFCURVE",
"1304 228 OFFCURVE",
"1304 86 CURVE SMOOTH",
"1304 -59 OFFCURVE",
"1220 -156 OFFCURVE",
"1047 -156 CURVE",
"1036 -161 OFFCURVE",
"1034 -183 OFFCURVE",
"1055 -183 CURVE SMOOTH"
);
}
);
width = 1387;
},
{
layerId = "EBFFFCD3-BAE4-48A5-9442-B72A90AD34A8";
name = Bold;
paths = (
{
closed = 1;
nodes = (
"1392 -255 OFFCURVE",
"1674 -183 OFFCURVE",
"1674 67 CURVE SMOOTH",
"1674 290 OFFCURVE",
"1456 364 OFFCURVE",
"1260 364 CURVE SMOOTH",
"1142 364 OFFCURVE",
"1039 300 OFFCURVE",
"1039 144 CURVE SMOOTH",
"1039 24 OFFCURVE",
"1117 -18 OFFCURVE",
"1209 -18 CURVE SMOOTH",
"1323 -18 OFFCURVE",
"1453 59 OFFCURVE",
"1453 256 CURVE SMOOTH",
"1453 475 OFFCURVE",
"1293 567 OFFCURVE",
"1149 567 CURVE SMOOTH",
"1003 567 OFFCURVE",
"923 472 OFFCURVE",
"903 379 CURVE",
"875 490 OFFCURVE",
"797 567 OFFCURVE",
"634 567 CURVE SMOOTH",
"440 567 OFFCURVE",
"280 459 OFFCURVE",
"280 236 CURVE SMOOTH",
"280 82 OFFCURVE",
"357 -17 OFFCURVE",
"512 -17 CURVE SMOOTH",
"627 -17 OFFCURVE",
"692 37 OFFCURVE",
"692 117 CURVE SMOOTH",
"692 191 OFFCURVE",
"636 256 OFFCURVE",
"555 260 CURVE",
"618 272 OFFCURVE",
"682 314 OFFCURVE",
"682 391 CURVE SMOOTH",
"682 515 OFFCURVE",
"517 566 OFFCURVE",
"383 566 CURVE SMOOTH",
"160 566 OFFCURVE",
"50 426 OFFCURVE",
"50 250 CURVE SMOOTH",
"50 78 OFFCURVE",
"155 -17 OFFCURVE",
"241 -17 CURVE SMOOTH",
"285 -17 OFFCURVE",
"289 8 OFFCURVE",
"273 21 CURVE",
"179 21 OFFCURVE",
"114 117 OFFCURVE",
"114 246 CURVE SMOOTH",
"114 413 OFFCURVE",
"223 518 OFFCURVE",
"367 518 CURVE SMOOTH",
"456 518 OFFCURVE",
"538 478 OFFCURVE",
"538 386 CURVE SMOOTH",
"538 331 OFFCURVE",
"509 283 OFFCURVE",
"466 283 CURVE SMOOTH",
"435 283 LINE",
"435 235 LINE",
"466 235 LINE SMOOTH",
"520 235 OFFCURVE",
"542 177 OFFCURVE",
"542 115 CURVE SMOOTH",
"542 54 OFFCURVE",
"521 31 OFFCURVE",
"478 31 CURVE SMOOTH",
"400 31 OFFCURVE",
"344 107 OFFCURVE",
"344 230 CURVE SMOOTH",
"344 429 OFFCURVE",
"491 518 OFFCURVE",
"619 518 CURVE SMOOTH",
"756 518 OFFCURVE",
"799 417 OFFCURVE",
"799 331 CURVE SMOOTH",
"799 103 LINE SMOOTH",
"799 9 OFFCURVE",
"830 -10 OFFCURVE",
"880 -10 CURVE SMOOTH",
"912 -10 OFFCURVE",
"940 -2 OFFCURVE",
"964 15 CURVE",
"953 45 OFFCURVE",
"945 72 OFFCURVE",
"945 167 CURVE SMOOTH",
"945 295 LINE SMOOTH",
"945 416 OFFCURVE",
"1024 498 OFFCURVE",
"1141 498 CURVE SMOOTH",
"1265 498 OFFCURVE",
"1303 420 OFFCURVE",
"1303 247 CURVE SMOOTH",
"1303 106 OFFCURVE",
"1266 32 OFFCURVE",
"1200 32 CURVE SMOOTH",
"1141 32 OFFCURVE",
"1105 73 OFFCURVE",
"1105 142 CURVE SMOOTH",
"1105 244 OFFCURVE",
"1159 304 OFFCURVE",
"1252 304 CURVE SMOOTH",
"1506 304 OFFCURVE",
"1524 154 OFFCURVE",
"1524 74 CURVE SMOOTH",
"1524 0 OFFCURVE",
"1459 -181 OFFCURVE",
"1163 -121 CURVE",
"1142 -138 OFFCURVE",
"1156 -165 OFFCURVE",
"1172 -171 CURVE SMOOTH"
);
}
);
width = 1724;
}
);
unicode = 0D06;
},
{
glyphname = "i-malayalam";
lastChange = "2015-09-04 11:12:44 +0000";
layers = (
{
layerId = "60CFBDE8-BC08-4808-BF41-F011F3E03A54";
name = Light;
paths = (
{
closed = 1;
nodes = (
"762 -168 LINE",
"762 -138 LINE",
"189 -138 LINE SMOOTH",
"119 -138 OFFCURVE",
"77 -99 OFFCURVE",
"77 -37 CURVE SMOOTH",
"77 26 OFFCURVE",
"119 70 OFFCURVE",
"189 70 CURVE SMOOTH",
"458 70 LINE SMOOTH",
"633 70 OFFCURVE",
"760 163 OFFCURVE",
"760 337 CURVE SMOOTH",
"760 471 OFFCURVE",
"693 543 OFFCURVE",
"583 543 CURVE SMOOTH",
"496 543 OFFCURVE",
"447 493 OFFCURVE",
"429 433 CURVE",
"404 509 OFFCURVE",
"323 543 OFFCURVE",
"252 543 CURVE SMOOTH",
"121 543 OFFCURVE",
"45 449 OFFCURVE",
"45 337 CURVE SMOOTH",
"45 260 OFFCURVE",
"78 190 OFFCURVE",
"162 190 CURVE SMOOTH",
"234 190 OFFCURVE",
"286 240 OFFCURVE",
"286 318 CURVE SMOOTH",
"286 394 OFFCURVE",
"238 446 OFFCURVE",
"168 446 CURVE SMOOTH",
"115 446 OFFCURVE",
"92 416 OFFCURVE",
"76 391 CURVE",
"97 457 OFFCURVE",
"144 516 OFFCURVE",
"252 516 CURVE SMOOTH",
"328 516 OFFCURVE",
"412 470 OFFCURVE",
"412 372 CURVE SMOOTH",
"412 202 LINE",
"441 202 LINE",
"441 363 LINE SMOOTH",
"441 461 OFFCURVE",
"502 516 OFFCURVE",
"575 516 CURVE SMOOTH",
"655 516 OFFCURVE",
"729 476 OFFCURVE",
"729 336 CURVE SMOOTH",
"729 191 OFFCURVE",
"628 98 OFFCURVE",
"455 98 CURVE SMOOTH",
"189 98 LINE SMOOTH",
"100 98 OFFCURVE",
"47 44 OFFCURVE",
"47 -37 CURVE SMOOTH",
"47 -117 OFFCURVE",
"100 -168 OFFCURVE",
"189 -168 CURVE SMOOTH"
);
},
{
closed = 1;
nodes = (
"115 217 OFFCURVE",
"75 251 OFFCURVE",
"75 316 CURVE SMOOTH",
"75 374 OFFCURVE",
"108 419 OFFCURVE",
"166 419 CURVE SMOOTH",
"220 419 OFFCURVE",
"256 380 OFFCURVE",
"256 319 CURVE SMOOTH",
"256 256 OFFCURVE",
"218 217 OFFCURVE",
"165 217 CURVE SMOOTH"
);
}
);
width = 805;
},
{
layerId = "EBFFFCD3-BAE4-48A5-9442-B72A90AD34A8";
name = Bold;
paths = (
{
closed = 1;
nodes = (
"875 -209 LINE",
"875 -96 LINE",
"247 -96 LINE SMOOTH",
"169 -96 OFFCURVE",
"127 -76 OFFCURVE",
"127 -27 CURVE SMOOTH",
"127 14 OFFCURVE",
"157 41 OFFCURVE",
"223 41 CURVE SMOOTH",
"422 41 LINE SMOOTH",
"687 41 OFFCURVE",
"902 106 OFFCURVE",
"902 350 CURVE SMOOTH",
"902 465 OFFCURVE",
"849 566 OFFCURVE",
"705 566 CURVE SMOOTH",
"597 566 OFFCURVE",
"541 514 OFFCURVE",
"516 409 CURVE",
"501 504 OFFCURVE",
"402 566 OFFCURVE",
"282 566 CURVE SMOOTH",
"118 566 OFFCURVE",
"43 466 OFFCURVE",
"43 346 CURVE SMOOTH",
"43 267 OFFCURVE",
"76 192 OFFCURVE",
"180 192 CURVE SMOOTH",
"274 192 OFFCURVE",
"331 249 OFFCURVE",
"331 336 CURVE SMOOTH",
"331 418 OFFCURVE",
"281 474 OFFCURVE",
"192 474 CURVE SMOOTH",
"176 474 OFFCURVE",
"161 472 OFFCURVE",
"143 464 CURVE",
"168 499 OFFCURVE",
"219 504 OFFCURVE",
"243 504 CURVE SMOOTH",
"346 504 OFFCURVE",
"409 428 OFFCURVE",
"409 324 CURVE SMOOTH",
"409 207 LINE",
"559 207 LINE",
"559 330 LINE SMOOTH",
"559 404 OFFCURVE",
"576 499 OFFCURVE",
"671 499 CURVE SMOOTH",
"724 499 OFFCURVE",
"752 454 OFFCURVE",
"752 363 CURVE SMOOTH",
"752 221 OFFCURVE",
"670 99 OFFCURVE",
"422 99 CURVE SMOOTH",
"238 99 LINE SMOOTH",
"124 99 OFFCURVE",
"57 50 OFFCURVE",
"57 -52 CURVE SMOOTH",
"57 -151 OFFCURVE",
"120 -209 OFFCURVE",
"248 -209 CURVE SMOOTH"
);
},
{
closed = 1;
nodes = (
"107 240 OFFCURVE",
"96 286 OFFCURVE",
"96 332 CURVE SMOOTH",
"96 391 OFFCURVE",
"114 435 OFFCURVE",
"149 435 CURVE SMOOTH",
"190 435 OFFCURVE",
"200 376 OFFCURVE",
"200 334 CURVE SMOOTH",
"200 300 OFFCURVE",
"194 240 OFFCURVE",
"147 240 CURVE SMOOTH"
);
}
);
width = 952;
}
);
unicode = 0D07;
},
{
color = 3;
glyphname = "ii-malayalam";
lastChange = "2015-09-04 16:40:25 +0000";
layers = (
{
components = (
{
disableAlignment = 1;
name = "i-malayalam";
}
);
layerId = "60CFBDE8-BC08-4808-BF41-F011F3E03A54";
name = Light;
paths = (
{
closed = 1;
nodes = (
"1362 -12 OFFCURVE",
"1490 104 OFFCURVE",
"1490 337 CURVE SMOOTH",
"1490 471 OFFCURVE",
"1426 543 OFFCURVE",
"1320 543 CURVE SMOOTH",
"1229 543 OFFCURVE",
"1178 493 OFFCURVE",
"1159 433 CURVE",
"1139 509 OFFCURVE",
"1080 543 OFFCURVE",
"1020 543 CURVE SMOOTH",
"919 543 OFFCURVE",
"860 469 OFFCURVE",
"860 337 CURVE SMOOTH",
"860 286 OFFCURVE",
"882 226 OFFCURVE",
"892 210 CURVE SMOOTH",
"897 201 OFFCURVE",
"905 197 OFFCURVE",
"914 197 CURVE SMOOTH",
"920 197 OFFCURVE",
"925 199 OFFCURVE",
"927 201 CURVE",
"909 236 OFFCURVE",
"890 282 OFFCURVE",
"890 337 CURVE SMOOTH",
"890 461 OFFCURVE",
"940 516 OFFCURVE",
"1020 516 CURVE SMOOTH",
"1082 516 OFFCURVE",
"1142 470 OFFCURVE",
"1142 372 CURVE SMOOTH",
"1142 202 LINE",
"1171 202 LINE",
"1171 363 LINE SMOOTH",
"1171 461 OFFCURVE",
"1235 516 OFFCURVE",
"1312 516 CURVE SMOOTH",
"1388 516 OFFCURVE",
"1459 476 OFFCURVE",
"1459 336 CURVE SMOOTH",
"1459 136 OFFCURVE",
"1357 17 OFFCURVE",
"1184 17 CURVE SMOOTH",
"1124 17 OFFCURVE",
"1048 48 OFFCURVE",
"1005 128 CURVE",
"994 122 OFFCURVE",
"994 114 OFFCURVE",
"994 106 CURVE SMOOTH",
"994 57 OFFCURVE",
"1093 -12 OFFCURVE",
"1187 -12 CURVE SMOOTH"
);
}
);
width = 1540;
},
{
components = (
{
disableAlignment = 1;
name = "i-malayalam";
}
);
layerId = "EBFFFCD3-BAE4-48A5-9442-B72A90AD34A8";
name = Bold;
paths = (
{
closed = 1;
nodes = (
"1518 -15 OFFCURVE",
"1728 71 OFFCURVE",
"1728 337 CURVE SMOOTH",
"1728 471 OFFCURVE",
"1675 566 OFFCURVE",
"1530 566 CURVE SMOOTH",
"1423 566 OFFCURVE",
"1367 514 OFFCURVE",
"1342 409 CURVE",
"1323 527 OFFCURVE",
"1235 566 OFFCURVE",
"1159 566 CURVE SMOOTH",
"1061 566 OFFCURVE",
"990 507 OFFCURVE",
"990 394 CURVE SMOOTH",
"990 336 OFFCURVE",
"1009 245 OFFCURVE",
"1037 207 CURVE SMOOTH",
"1048 192 OFFCURVE",
"1060 190 OFFCURVE",
"1069 190 CURVE SMOOTH",
"1084 190 OFFCURVE",
"1095 203 OFFCURVE",
"1096 207 CURVE",
"1065 272 OFFCURVE",
"1055 332 OFFCURVE",
"1055 379 CURVE SMOOTH",
"1055 464 OFFCURVE",
"1088 504 OFFCURVE",
"1142 504 CURVE SMOOTH",
"1214 504 OFFCURVE",
"1235 424 OFFCURVE",
"1235 324 CURVE SMOOTH",
"1235 207 LINE",
"1385 207 LINE",
"1385 330 LINE SMOOTH",
"1385 403 OFFCURVE",
"1404 499 OFFCURVE",
"1493 499 CURVE SMOOTH",
"1550 499 OFFCURVE",
"1578 459 OFFCURVE",
"1578 360 CURVE SMOOTH",
"1578 155 OFFCURVE",
"1457 50 OFFCURVE",
"1315 50 CURVE SMOOTH",
"1237 50 OFFCURVE",
"1175 82 OFFCURVE",
"1160 139 CURVE",
"1138 143 OFFCURVE",
"1131 119 OFFCURVE",
"1131 100 CURVE SMOOTH",
"1131 54 OFFCURVE",
"1174 -15 OFFCURVE",
"1337 -15 CURVE SMOOTH"
);
}
);
width = 1778;
}
);
unicode = 0D08;
},
{
glyphname = "u-malayalam";
lastChange = "2015-09-03 15:56:56 +0000";
layers = (
{
layerId = "60CFBDE8-BC08-4808-BF41-F011F3E03A54";
name = Light;
paths = (
{
closed = 1;
nodes = (
"552 -168 LINE",
"552 -138 LINE",
"190 -138 LINE SMOOTH",
"120 -138 OFFCURVE",
"78 -99 OFFCURVE",
"78 -37 CURVE SMOOTH",
"78 26 OFFCURVE",
"120 70 OFFCURVE",
"190 70 CURVE SMOOTH",
"298 70 LINE SMOOTH",
"464 70 OFFCURVE",
"550 172 OFFCURVE",
"550 310 CURVE SMOOTH",
"550 455 OFFCURVE",
"456 546 OFFCURVE",
"301 546 CURVE SMOOTH",
"139 546 OFFCURVE",
"45 453 OFFCURVE",
"45 332 CURVE SMOOTH",
"45 261 OFFCURVE",
"78 190 OFFCURVE",
"163 190 CURVE SMOOTH",
"234 190 OFFCURVE",
"286 240 OFFCURVE",
"286 318 CURVE SMOOTH",
"286 394 OFFCURVE",
"238 446 OFFCURVE",
"168 446 CURVE SMOOTH",
"115 446 OFFCURVE",
"92 416 OFFCURVE",
"76 391 CURVE",
"102 459 OFFCURVE",
"167 519 OFFCURVE",
"297 519 CURVE SMOOTH",
"414 519 OFFCURVE",
"519 464 OFFCURVE",
"519 313 CURVE SMOOTH",
"519 196 OFFCURVE",
"456 98 OFFCURVE",
"295 98 CURVE SMOOTH",
"190 98 LINE SMOOTH",
"101 98 OFFCURVE",
"48 44 OFFCURVE",
"48 -37 CURVE SMOOTH",
"48 -117 OFFCURVE",
"101 -168 OFFCURVE",
"190 -168 CURVE SMOOTH"
);
},
{
closed = 1;
nodes = (
"115 217 OFFCURVE",
"75 251 OFFCURVE",
"75 316 CURVE SMOOTH",
"75 374 OFFCURVE",
"108 419 OFFCURVE",
"166 419 CURVE SMOOTH",
"220 419 OFFCURVE",
"256 380 OFFCURVE",
"256 319 CURVE SMOOTH",
"256 256 OFFCURVE",
"218 217 OFFCURVE",
"165 217 CURVE SMOOTH"
);
}
);
width = 600;
},
{
layerId = "EBFFFCD3-BAE4-48A5-9442-B72A90AD34A8";
name = Bold;
paths = (
{
closed = 1;
nodes = (
"645 -209 LINE",
"645 -96 LINE",
"247 -96 LINE SMOOTH",
"169 -96 OFFCURVE",
"127 -76 OFFCURVE",
"127 -27 CURVE SMOOTH",
"127 14 OFFCURVE",
"157 41 OFFCURVE",
"223 41 CURVE SMOOTH",
"272 41 LINE SMOOTH",
"476 41 OFFCURVE",
"642 97 OFFCURVE",
"642 306 CURVE SMOOTH",
"642 444 OFFCURVE",
"564 566 OFFCURVE",
"351 566 CURVE SMOOTH",
"140 566 OFFCURVE",
"43 466 OFFCURVE",
"43 346 CURVE SMOOTH",
"43 267 OFFCURVE",
"76 192 OFFCURVE",
"180 192 CURVE SMOOTH",
"274 192 OFFCURVE",
"331 249 OFFCURVE",
"331 336 CURVE SMOOTH",
"331 418 OFFCURVE",
"281 474 OFFCURVE",
"192 474 CURVE SMOOTH",
"176 474 OFFCURVE",
"161 472 OFFCURVE",
"143 464 CURVE",
"182 498 OFFCURVE",
"260 503 OFFCURVE",
"297 503 CURVE SMOOTH",
"425 503 OFFCURVE",
"492 442 OFFCURVE",
"492 319 CURVE SMOOTH",
"492 201 OFFCURVE",
"437 99 OFFCURVE",
"272 99 CURVE SMOOTH",
"238 99 LINE SMOOTH",
"124 99 OFFCURVE",
"57 50 OFFCURVE",
"57 -52 CURVE SMOOTH",
"57 -151 OFFCURVE",
"120 -209 OFFCURVE",
"248 -209 CURVE"
);
},
{
closed = 1;
nodes = (
"109 240 OFFCURVE",
"96 286 OFFCURVE",
"96 332 CURVE SMOOTH",
"96 391 OFFCURVE",
"117 435 OFFCURVE",
"159 435 CURVE SMOOTH",
"192 435 OFFCURVE",
"200 376 OFFCURVE",
"200 334 CURVE SMOOTH",
"200 300 OFFCURVE",
"195 240 OFFCURVE",
"157 240 CURVE SMOOTH"
);
}
);
width = 600;
}
);
unicode = 0D09;
},
{
color = 3;
glyphname = "uu-malayalam";
lastChange = "2015-09-04 16:40:25 +0000";
layers = (
{
components = (
{
disableAlignment = 1;
name = "u-malayalam";
}
);
layerId = "60CFBDE8-BC08-4808-BF41-F011F3E03A54";
name = Light;
paths = (
{
closed = 1;
nodes = (
"1141 -12 OFFCURVE",
"1269 104 OFFCURVE",
"1269 337 CURVE SMOOTH",
"1269 471 OFFCURVE",
"1205 543 OFFCURVE",
"1099 543 CURVE SMOOTH",
"1008 543 OFFCURVE",
"957 493 OFFCURVE",
"938 433 CURVE",
"918 509 OFFCURVE",
"859 543 OFFCURVE",
"799 543 CURVE SMOOTH",
"698 543 OFFCURVE",
"639 469 OFFCURVE",
"639 337 CURVE SMOOTH",
"639 286 OFFCURVE",
"661 226 OFFCURVE",
"671 210 CURVE SMOOTH",
"676 201 OFFCURVE",
"684 197 OFFCURVE",
"693 197 CURVE SMOOTH",
"699 197 OFFCURVE",
"704 199 OFFCURVE",
"706 201 CURVE",
"688 236 OFFCURVE",
"669 282 OFFCURVE",
"669 337 CURVE SMOOTH",
"669 461 OFFCURVE",
"719 516 OFFCURVE",
"799 516 CURVE SMOOTH",
"861 516 OFFCURVE",
"921 470 OFFCURVE",
"921 372 CURVE SMOOTH",
"921 202 LINE",
"950 202 LINE",
"950 363 LINE SMOOTH",
"950 461 OFFCURVE",
"1014 516 OFFCURVE",
"1091 516 CURVE SMOOTH",
"1167 516 OFFCURVE",
"1238 476 OFFCURVE",
"1238 336 CURVE SMOOTH",
"1238 136 OFFCURVE",
"1136 17 OFFCURVE",
"963 17 CURVE SMOOTH",
"903 17 OFFCURVE",
"827 48 OFFCURVE",
"784 128 CURVE",
"773 122 OFFCURVE",
"773 114 OFFCURVE",
"773 106 CURVE SMOOTH",
"773 57 OFFCURVE",
"872 -12 OFFCURVE",
"966 -12 CURVE SMOOTH"
);
}
);
width = 1314;
},
{
components = (
{
disableAlignment = 1;
name = "u-malayalam";
}
);
layerId = "EBFFFCD3-BAE4-48A5-9442-B72A90AD34A8";
name = Bold;
paths = (
{
closed = 1;
nodes = (
"1250 -15 OFFCURVE",
"1460 71 OFFCURVE",
"1460 337 CURVE SMOOTH",
"1460 471 OFFCURVE",
"1407 566 OFFCURVE",
"1262 566 CURVE SMOOTH",
"1155 566 OFFCURVE",
"1099 514 OFFCURVE",
"1074 409 CURVE",
"1055 527 OFFCURVE",
"967 566 OFFCURVE",
"891 566 CURVE SMOOTH",
"793 566 OFFCURVE",
"722 507 OFFCURVE",
"722 394 CURVE SMOOTH",
"722 336 OFFCURVE",
"741 245 OFFCURVE",
"769 207 CURVE SMOOTH",
"780 192 OFFCURVE",
"792 190 OFFCURVE",
"801 190 CURVE SMOOTH",
"816 190 OFFCURVE",
"827 203 OFFCURVE",
"828 207 CURVE",
"797 272 OFFCURVE",
"787 332 OFFCURVE",
"787 379 CURVE SMOOTH",
"787 464 OFFCURVE",
"820 504 OFFCURVE",
"874 504 CURVE SMOOTH",
"946 504 OFFCURVE",
"967 424 OFFCURVE",
"967 324 CURVE SMOOTH",
"967 207 LINE",
"1117 207 LINE",
"1117 330 LINE SMOOTH",
"1117 403 OFFCURVE",
"1136 499 OFFCURVE",
"1225 499 CURVE SMOOTH",
"1282 499 OFFCURVE",
"1310 459 OFFCURVE",
"1310 360 CURVE SMOOTH",
"1310 155 OFFCURVE",
"1189 50 OFFCURVE",
"1047 50 CURVE SMOOTH",
"969 50 OFFCURVE",
"907 82 OFFCURVE",
"892 139 CURVE",
"870 143 OFFCURVE",
"863 119 OFFCURVE",
"863 100 CURVE SMOOTH",
"863 54 OFFCURVE",
"906 -15 OFFCURVE",
"1069 -15 CURVE SMOOTH"
);
}
);
width = 1505;
}
);
unicode = 0D0A;
},
{
glyphname = "rVocalic-malayalam";
lastChange = "2015-09-04 14:45:20 +0000";
layers = (
{
layerId = "60CFBDE8-BC08-4808-BF41-F011F3E03A54";
name = Light;
paths = (
{
closed = 1;
nodes = (
"565 123 OFFCURVE",
"689 204 OFFCURVE",
"689 399 CURVE SMOOTH",
"689 476 OFFCURVE",
"656 546 OFFCURVE",
"572 546 CURVE SMOOTH",
"500 546 OFFCURVE",
"448 496 OFFCURVE",
"448 418 CURVE SMOOTH",
"448 342 OFFCURVE",
"496 290 OFFCURVE",
"566 290 CURVE SMOOTH",
"619 290 OFFCURVE",
"646 321 OFFCURVE",
"658 345 CURVE",
"641 206 OFFCURVE",
"517 150 OFFCURVE",
"367 150 CURVE SMOOTH",
"217 150 OFFCURVE",
"93 206 OFFCURVE",
"76 345 CURVE",
"89 320 OFFCURVE",
"115 290 OFFCURVE",
"168 290 CURVE SMOOTH",
"238 290 OFFCURVE",
"286 342 OFFCURVE",
"286 418 CURVE SMOOTH",
"286 496 OFFCURVE",
"234 546 OFFCURVE",
"162 546 CURVE SMOOTH",
"78 546 OFFCURVE",
"45 476 OFFCURVE",
"45 399 CURVE SMOOTH",
"45 204 OFFCURVE",
"169 123 OFFCURVE",
"367 123 CURVE SMOOTH"
);
},
{
closed = 1;
nodes = (
"562 -145 OFFCURVE",
"667 -93 OFFCURVE",
"667 4 CURVE SMOOTH",
"667 99 OFFCURVE",
"562 149 OFFCURVE",
"367 149 CURVE SMOOTH",
"172 149 OFFCURVE",
"67 99 OFFCURVE",
"67 4 CURVE SMOOTH",
"67 -93 OFFCURVE",
"172 -145 OFFCURVE",
"367 -145 CURVE SMOOTH"
);
},
{
closed = 1;
nodes = (
"193 -118 OFFCURVE",
"98 -75 OFFCURVE",
"98 4 CURVE SMOOTH",
"98 81 OFFCURVE",
"193 123 OFFCURVE",
"367 123 CURVE SMOOTH",
"541 123 OFFCURVE",
"636 81 OFFCURVE",
"636 4 CURVE SMOOTH",
"636 -75 OFFCURVE",
"541 -118 OFFCURVE",
"367 -118 CURVE SMOOTH"
);
},
{
closed = 1;
nodes = (
"108 317 OFFCURVE",
"75 362 OFFCURVE",
"75 420 CURVE SMOOTH",
"75 485 OFFCURVE",
"115 519 OFFCURVE",
"165 519 CURVE SMOOTH",
"218 519 OFFCURVE",
"256 480 OFFCURVE",
"256 417 CURVE SMOOTH",
"256 356 OFFCURVE",
"220 317 OFFCURVE",
"166 317 CURVE SMOOTH"
);
},
{
closed = 1;
nodes = (
"514 317 OFFCURVE",
"478 356 OFFCURVE",
"478 417 CURVE SMOOTH",
"478 480 OFFCURVE",
"516 519 OFFCURVE",
"569 519 CURVE SMOOTH",
"619 519 OFFCURVE",
"659 485 OFFCURVE",
"659 420 CURVE SMOOTH",
"659 362 OFFCURVE",
"626 317 OFFCURVE",
"568 317 CURVE SMOOTH"
);
}
);
width = 734;
},
{
layerId = "EBFFFCD3-BAE4-48A5-9442-B72A90AD34A8";
name = Bold;
paths = (
{
closed = 1;
nodes = (
"645 114 OFFCURVE",
"767 222 OFFCURVE",
"767 405 CURVE SMOOTH",
"767 494 OFFCURVE",
"730 566 OFFCURVE",
"610 566 CURVE SMOOTH",
"516 566 OFFCURVE",
"459 509 OFFCURVE",
"459 422 CURVE SMOOTH",
"459 340 OFFCURVE",
"513 284 OFFCURVE",
"610 284 CURVE SMOOTH",
"631 284 OFFCURVE",
"649 286 OFFCURVE",
"675 294 CURVE",
"651 247 OFFCURVE",
"591 164 OFFCURVE",
"423 164 CURVE SMOOTH",
"262 164 OFFCURVE",
"194 240 OFFCURVE",
"165 294 CURVE",
"191 286 OFFCURVE",
"209 284 OFFCURVE",
"230 284 CURVE SMOOTH",
"327 284 OFFCURVE",
"381 340 OFFCURVE",
"381 422 CURVE SMOOTH",
"381 509 OFFCURVE",
"324 566 OFFCURVE",
"230 566 CURVE SMOOTH",
"110 566 OFFCURVE",
"73 494 OFFCURVE",
"73 405 CURVE SMOOTH",
"73 222 OFFCURVE",
"195 114 OFFCURVE",
"421 114 CURVE SMOOTH"
);
},
{
closed = 1;
nodes = (
"621 -146 OFFCURVE",
"739 -89 OFFCURVE",
"739 8 CURVE SMOOTH",
"739 105 OFFCURVE",
"621 162 OFFCURVE",
"421 162 CURVE SMOOTH",
"221 162 OFFCURVE",
"103 105 OFFCURVE",
"103 8 CURVE SMOOTH",
"103 -89 OFFCURVE",
"221 -146 OFFCURVE",
"421 -146 CURVE SMOOTH"
);
},
{
closed = 1;
nodes = (
"314 -98 OFFCURVE",
"243 -56 OFFCURVE",
"243 8 CURVE SMOOTH",
"243 72 OFFCURVE",
"314 114 OFFCURVE",
"421 114 CURVE SMOOTH",
"528 114 OFFCURVE",
"599 72 OFFCURVE",
"599 8 CURVE SMOOTH",
"599 -56 OFFCURVE",
"528 -98 OFFCURVE",
"421 -98 CURVE SMOOTH"
);
},
{
closed = 1;
nodes = (
"158 328 OFFCURVE",
"141 364 OFFCURVE",
"141 418 CURVE SMOOTH",
"141 461 OFFCURVE",
"152 503 OFFCURVE",
"191 503 CURVE SMOOTH",
"235 503 OFFCURVE",
"240 452 OFFCURVE",
"240 421 CURVE SMOOTH",
"240 376 OFFCURVE",
"230 328 OFFCURVE",
"191 328 CURVE SMOOTH"
);
},
{
closed = 1;
nodes = (
"610 328 OFFCURVE",
"600 376 OFFCURVE",
"600 421 CURVE SMOOTH",
"600 452 OFFCURVE",
"605 503 OFFCURVE",
"649 503 CURVE SMOOTH",
"688 503 OFFCURVE",
"699 461 OFFCURVE",
"699 418 CURVE SMOOTH",
"699 364 OFFCURVE",
"682 328 OFFCURVE",
"649 328 CURVE SMOOTH"
);
}
);
width = 850;
}
);
unicode = 0D0B;
},
{
color = 1;
glyphname = "lVocalic-malayalam";
lastChange = "2015-09-07 21:16:25 +0000";
layers = (
{
layerId = "60CFBDE8-BC08-4808-BF41-F011F3E03A54";
name = Light;
paths = (
{
closed = 1;
nodes = (
"334 -18 OFFCURVE",
"400 30 OFFCURVE",
"400 143 CURVE SMOOTH",
"400 243 OFFCURVE",
"349 298 OFFCURVE",
"277 298 CURVE SMOOTH",
"200 298 OFFCURVE",
"150 234 OFFCURVE",
"150 144 CURVE SMOOTH",
"150 102 OFFCURVE",
"163 38 OFFCURVE",
"216 11 CURVE",
"141 23 OFFCURVE",
"73 72 OFFCURVE",
"73 234 CURVE SMOOTH",
"73 458 OFFCURVE",
"190 519 OFFCURVE",
"290 519 CURVE SMOOTH",
"441 519 OFFCURVE",
"518 365 OFFCURVE",
"518 259 CURVE SMOOTH",
"518 12 LINE SMOOTH",
"518 4 OFFCURVE",
"519 -5 OFFCURVE",
"532 -5 CURVE SMOOTH",
"538 -5 OFFCURVE",
"542 -3 OFFCURVE",
"547 2 CURVE",
"545 10 OFFCURVE",
"545 22 OFFCURVE",
"545 33 CURVE SMOOTH",
"545 259 LINE SMOOTH",
"545 365 OFFCURVE",
"622 519 OFFCURVE",
"773 519 CURVE SMOOTH",
"873 519 OFFCURVE",
"990 458 OFFCURVE",
"990 234 CURVE SMOOTH",
"990 72 OFFCURVE",
"927 23 OFFCURVE",
"858 11 CURVE",
"902 38 OFFCURVE",
"913 102 OFFCURVE",
"913 144 CURVE SMOOTH",
"913 234 OFFCURVE",
"863 298 OFFCURVE",
"786 298 CURVE SMOOTH",
"714 298 OFFCURVE",
"663 243 OFFCURVE",
"663 143 CURVE SMOOTH",
"663 30 OFFCURVE",
"729 -18 OFFCURVE",
"821 -18 CURVE SMOOTH",
"928 -18 OFFCURVE",
"1018 42 OFFCURVE",
"1018 239 CURVE SMOOTH",
"1018 453 OFFCURVE",
"913 546 OFFCURVE",
"772 546 CURVE SMOOTH",
"634 546 OFFCURVE",
"566 436 OFFCURVE",
"531 336 CURVE",
"499 441 OFFCURVE",
"427 546 OFFCURVE",
"291 546 CURVE SMOOTH",
"150 546 OFFCURVE",
"45 453 OFFCURVE",
"45 239 CURVE SMOOTH",
"45 42 OFFCURVE",
"135 -18 OFFCURVE",
"242 -18 CURVE SMOOTH"
);
},
{
closed = 1;
nodes = (
"216 15 OFFCURVE",
"176 61 OFFCURVE",
"176 140 CURVE SMOOTH",
"176 212 OFFCURVE",
"209 269 OFFCURVE",
"275 269 CURVE SMOOTH",
"343 269 OFFCURVE",
"370 209 OFFCURVE",
"370 144 CURVE SMOOTH",
"370 66 OFFCURVE",
"330 15 OFFCURVE",
"272 15 CURVE SMOOTH"
);
},
{
closed = 1;
nodes = (
"729 15 OFFCURVE",
"689 66 OFFCURVE",
"689 144 CURVE SMOOTH",
"689 209 OFFCURVE",
"716 269 OFFCURVE",
"784 269 CURVE SMOOTH",
"850 269 OFFCURVE",
"883 212 OFFCURVE",
"883 140 CURVE SMOOTH",
"883 61 OFFCURVE",
"843 15 OFFCURVE",
"787 15 CURVE SMOOTH"
);
}
);
width = 1063;
},
{
layerId = "EBFFFCD3-BAE4-48A5-9442-B72A90AD34A8";
name = Bold;
paths = (
{
closed = 1;
nodes = (
"403 -18 OFFCURVE",
"464 67 OFFCURVE",
"464 165 CURVE SMOOTH",
"464 274 OFFCURVE",
"388 344 OFFCURVE",
"282 344 CURVE",
"167 344 OFFCURVE",
"121 263 OFFCURVE",
"121 189 CURVE SMOOTH",
"121 131 OFFCURVE",
"122 94 OFFCURVE",
"146 44 CURVE",
"124 112 OFFCURVE",
"123 170 OFFCURVE",
"123 199 CURVE SMOOTH",
"123 453 OFFCURVE",
"251 518 OFFCURVE",
"341 518 CURVE SMOOTH",
"517 518 OFFCURVE",
"573 337 OFFCURVE",
"573 204 CURVE SMOOTH",
"573 95 LINE SMOOTH",
"573 0 OFFCURVE",
"604 -18 OFFCURVE",
"650 -18 CURVE SMOOTH",
"681 -18 OFFCURVE",
"710 -10 OFFCURVE",
"734 7 CURVE",
"724 32 OFFCURVE",
"715 84 OFFCURVE",
"715 159 CURVE SMOOTH",
"715 306 LINE SMOOTH",
"715 406 OFFCURVE",
"793 518 OFFCURVE",
"929 518 CURVE SMOOTH",
"1098 518 OFFCURVE",
"1124 326 OFFCURVE",
"1124 201 CURVE SMOOTH",
"1124 109 OFFCURVE",
"1120 81 OFFCURVE",
"1047 5 CURVE",
"1124 26 OFFCURVE",
"1152 112 OFFCURVE",
"1152 182 CURVE SMOOTH",
"1152 300 OFFCURVE",
"1069 344 OFFCURVE",
"1000 344 CURVE SMOOTH",
"905 344 OFFCURVE",
"835 279 OFFCURVE",
"835 161 CURVE SMOOTH",
"835 49 OFFCURVE",
"886 -18 OFFCURVE",
"998 -18 CURVE SMOOTH",
"1130 -18 OFFCURVE",
"1249 52 OFFCURVE",
"1249 248 CURVE SMOOTH",
"1249 510 OFFCURVE",
"1055 565 OFFCURVE",
"934 565 CURVE SMOOTH",
"803 565 OFFCURVE",
"721 507 OFFCURVE",
"668 383 CURVE",
"619 492 OFFCURVE",
"545 561 OFFCURVE",
"401 566 CURVE SMOOTH",
"236 572 OFFCURVE",
"82 488 OFFCURVE",
"82 238 CURVE SMOOTH",
"82 53 OFFCURVE",
"166 -18 OFFCURVE",
"279 -18 CURVE SMOOTH"
);
},
{
closed = 1;
nodes = (
"205 26 OFFCURVE",
"161 73 OFFCURVE",
"161 161 CURVE SMOOTH",
"161 238 OFFCURVE",
"194 287 OFFCURVE",
"247 287 CURVE SMOOTH",
"300 287 OFFCURVE",
"330 237 OFFCURVE",
"330 156 CURVE SMOOTH",
"330 73 OFFCURVE",
"299 26 OFFCURVE",
"252 26 CURVE SMOOTH"
);
},
{
closed = 1;
nodes = (
"933 26 OFFCURVE",
"894 74 OFFCURVE",
"894 163 CURVE SMOOTH",
"894 246 OFFCURVE",
"932 291 OFFCURVE",
"990 291 CURVE SMOOTH",
"1051 291 OFFCURVE",
"1083 239 OFFCURVE",
"1083 163 CURVE SMOOTH",
"1083 72 OFFCURVE",
"1039 26 OFFCURVE",
"986 26 CURVE SMOOTH"
);
}
);
width = 1269;
},
{
associatedMasterId = "EBFFFCD3-BAE4-48A5-9442-B72A90AD34A8";
layerId = "09424544-6E7F-4891-A321-77C60A33A5E6";
name = "Bold Sep 7 15, 21:58";
paths = (
{
closed = 1;
nodes = (
"245 28 OFFCURVE",
"225 74 OFFCURVE",
"225 153 CURVE SMOOTH",
"225 233 OFFCURVE",
"246 287 OFFCURVE",
"287 287 CURVE SMOOTH",
"330 287 OFFCURVE",
"344 229 OFFCURVE",
"344 158 CURVE SMOOTH",
"344 66 OFFCURVE",
"321 28 OFFCURVE",
"285 28 CURVE SMOOTH"
);
},
{
closed = 1;
nodes = (
"1183 110 OFFCURVE",
"1133 41 OFFCURVE",
"1076 28 CURVE",
"1108 71 OFFCURVE",
"1115 126 OFFCURVE",
"1115 168 CURVE SMOOTH",
"1115 281 OFFCURVE",
"1064 344 OFFCURVE",
"963 344 CURVE SMOOTH",
"847 344 OFFCURVE",
"794 262 OFFCURVE",
"794 164 CURVE SMOOTH",
"794 29 OFFCURVE",
"895 -18 OFFCURVE",
"1001 -18 CURVE SMOOTH",
"1182 -18 OFFCURVE",
"1329 50 OFFCURVE",
"1329 245 CURVE SMOOTH",
"1329 512 OFFCURVE",
"1094 565 OFFCURVE",
"988 565 CURVE SMOOTH",
"837 565 OFFCURVE",
"736 516 OFFCURVE",
"668 383 CURVE",
"619 492 OFFCURVE",
"545 561 OFFCURVE",
"401 566 CURVE SMOOTH",
"198 572 OFFCURVE",
"10 492 OFFCURVE",
"10 256 CURVE SMOOTH",
"10 54 OFFCURVE",
"134 -18 OFFCURVE",
"287 -18 CURVE SMOOTH",
"393 -18 OFFCURVE",
"494 29 OFFCURVE",
"494 164 CURVE SMOOTH",
"494 262 OFFCURVE",
"441 344 OFFCURVE",
"325 344 CURVE SMOOTH",
"224 344 OFFCURVE",
"173 281 OFFCURVE",
"173 168 CURVE SMOOTH",
"173 126 OFFCURVE",
"180 71 OFFCURVE",
"212 28 CURVE",
"132 40 OFFCURVE",
"66 105 OFFCURVE",
"66 245 CURVE SMOOTH",
"66 472 OFFCURVE",
"262 518 OFFCURVE",
"357 518 CURVE SMOOTH",
"513 518 OFFCURVE",
"573 337 OFFCURVE",
"573 204 CURVE SMOOTH",
"573 95 LINE SMOOTH",
"573 0 OFFCURVE",
"604 -18 OFFCURVE",
"650 -18 CURVE SMOOTH",
"681 -18 OFFCURVE",
"710 -10 OFFCURVE",
"734 7 CURVE",
"723 37 OFFCURVE",
"717 65 OFFCURVE",
"715 159 CURVE SMOOTH",
"715 326 LINE SMOOTH",
"712 390 OFFCURVE",
"782 518 OFFCURVE",
"980 518 CURVE SMOOTH",
"1072 518 OFFCURVE",
"1183 439 OFFCURVE",
"1183 260 CURVE SMOOTH"
);
},
{
closed = 1;
nodes = (
"967 28 OFFCURVE",
"944 66 OFFCURVE",
"944 158 CURVE SMOOTH",
"944 229 OFFCURVE",
"958 287 OFFCURVE",
"1001 287 CURVE SMOOTH",
"1042 287 OFFCURVE",
"1063 233 OFFCURVE",
"1063 153 CURVE SMOOTH",
"1063 74 OFFCURVE",
"1043 28 OFFCURVE",
"1003 28 CURVE SMOOTH"
);
}
);
width = 1269;
},
{
associatedMasterId = "EBFFFCD3-BAE4-48A5-9442-B72A90AD34A8";
layerId = "F48F6BE7-899B-4670-8E6A-6461EB41091E";
name = "Bold Sep 7 15, 21:59";
paths = (
{
closed = 1;
nodes = (
"403 -18 OFFCURVE",
"464 67 OFFCURVE",
"464 164 CURVE SMOOTH",
"464 265 OFFCURVE",
"398 344 OFFCURVE",
"280 344 CURVE SMOOTH",
"219 344 OFFCURVE",
"162 323 OFFCURVE",
"136 269 CURVE",
"150 481 OFFCURVE",
"286 518 OFFCURVE",
"357 518 CURVE SMOOTH",
"513 518 OFFCURVE",
"573 337 OFFCURVE",
"573 204 CURVE SMOOTH",
"573 95 LINE SMOOTH",
"573 0 OFFCURVE",
"604 -18 OFFCURVE",
"650 -18 CURVE SMOOTH",
"681 -18 OFFCURVE",
"710 -10 OFFCURVE",
"734 7 CURVE",
"723 37 OFFCURVE",
"717 65 OFFCURVE",
"715 159 CURVE SMOOTH",
"715 326 LINE SMOOTH",
"713 390 OFFCURVE",
"762 518 OFFCURVE",
"900 518 CURVE SMOOTH",
"973 518 OFFCURVE",
"1073 448 OFFCURVE",
"1073 290 CURVE",
"1051 337 OFFCURVE",
"1010 344 OFFCURVE",
"981 344 CURVE SMOOTH",
"883 344 OFFCURVE",
"835 269 OFFCURVE",
"835 158 CURVE SMOOTH",
"835 28 OFFCURVE",
"891 -18 OFFCURVE",
"990 -18 CURVE SMOOTH",
"1116 -18 OFFCURVE",
"1219 53 OFFCURVE",
"1219 245 CURVE SMOOTH",
"1219 511 OFFCURVE",
"1025 565 OFFCURVE",
"908 565 CURVE SMOOTH",
"794 565 OFFCURVE",
"719 516 OFFCURVE",
"668 383 CURVE",
"619 492 OFFCURVE",
"545 561 OFFCURVE",
"401 566 CURVE SMOOTH",
"236 572 OFFCURVE",
"82 488 OFFCURVE",
"82 238 CURVE SMOOTH",
"82 53 OFFCURVE",
"166 -18 OFFCURVE",
"279 -18 CURVE SMOOTH"
);
},
{
closed = 1;
nodes = (
"209 26 OFFCURVE",
"161 72 OFFCURVE",
"161 163 CURVE SMOOTH",
"161 237 OFFCURVE",
"194 287 OFFCURVE",
"248 287 CURVE SMOOTH",
"300 287 OFFCURVE",
"330 238 OFFCURVE",
"330 154 CURVE SMOOTH",
"330 74 OFFCURVE",
"302 26 OFFCURVE",
"255 26 CURVE SMOOTH"
);
},
{
closed = 1;
nodes = (
"929 26 OFFCURVE",
"894 73 OFFCURVE",
"894 155 CURVE SMOOTH",
"894 240 OFFCURVE",
"930 291 OFFCURVE",
"986 291 CURVE SMOOTH",
"1042 291 OFFCURVE",
"1073 239 OFFCURVE",
"1073 164 CURVE SMOOTH",
"1073 72 OFFCURVE",
"1028 26 OFFCURVE",
"982 26 CURVE SMOOTH"
);
}
);
width = 1269;
}
);
unicode = 0D0C;
},
{
glyphname = "e-malayalam";
lastChange = "2015-09-04 16:22:06 +0000";
layers = (
{
layerId = "60CFBDE8-BC08-4808-BF41-F011F3E03A54";
name = Light;
paths = (
{
closed = 1;
nodes = (
"746 -177 OFFCURVE",
"795 -112 OFFCURVE",
"795 37 CURVE SMOOTH",
"795 515 LINE SMOOTH",
"795 527 OFFCURVE",
"787 537 OFFCURVE",
"775 537 CURVE SMOOTH",
"767 537 OFFCURVE",
"762 533 OFFCURVE",
"758 529 CURVE",
"767 515 OFFCURVE",
"765 483 OFFCURVE",
"765 476 CURVE SMOOTH",
"767 36 LINE SMOOTH",
"768 -102 OFFCURVE",
"726 -152 OFFCURVE",
"659 -152 CURVE SMOOTH",
"561 -152 OFFCURVE",
"520 11 OFFCURVE",
"520 188 CURVE SMOOTH",
"520 450 OFFCURVE",
"582 639 OFFCURVE",
"778 639 CURVE SMOOTH",
"963 639 OFFCURVE",
"1011 416 OFFCURVE",
"1011 241 CURVE SMOOTH",
"1011 78 OFFCURVE",
"951 -107 OFFCURVE",
"873 -148 CURVE",
"875 -157 OFFCURVE",
"883 -163 OFFCURVE",
"892 -163 CURVE SMOOTH",
"944 -163 OFFCURVE",
"1043 8 OFFCURVE",
"1043 241 CURVE SMOOTH",
"1043 478 OFFCURVE",
"962 667 OFFCURVE",
"781 667 CURVE SMOOTH",
"604 667 OFFCURVE",
"492 542 OFFCURVE",
"492 184 CURVE SMOOTH",
"492 -66 OFFCURVE",
"560 -177 OFFCURVE",
"660 -177 CURVE SMOOTH"
);
},
{
closed = 1;
nodes = (
"177 -3 OFFCURVE",
"179 5 OFFCURVE",
"179 17 CURVE",
"143 27 OFFCURVE",
"105 77 OFFCURVE",
"105 160 CURVE SMOOTH",
"105 247 OFFCURVE",
"149 310 OFFCURVE",
"228 310 CURVE SMOOTH",
"298 310 OFFCURVE",
"353 257 OFFCURVE",
"353 159 CURVE SMOOTH",
"353 78 OFFCURVE",
"315 25 OFFCURVE",
"256 25 CURVE",
"259 11 LINE",
"333 7 OFFCURVE",
"384 68 OFFCURVE",
"384 163 CURVE SMOOTH",
"384 271 OFFCURVE",
"318 338 OFFCURVE",
"229 338 CURVE SMOOTH",
"132 338 OFFCURVE",
"74 263 OFFCURVE",
"74 166 CURVE SMOOTH",
"74 75 OFFCURVE",
"120 -3 OFFCURVE",
"166 -3 CURVE SMOOTH"
);
},
{
closed = 1;
nodes = (
"784 0 LINE",
"784 25 LINE",
"255 25 LINE",
"255 0 LINE"
);
}
);
width = 1117;
},
{
layerId = "EBFFFCD3-BAE4-48A5-9442-B72A90AD34A8";
name = Bold;
paths = (
{
closed = 1;
nodes = (
"852 -197 OFFCURVE",
"943 -114 OFFCURVE",
"943 79 CURVE SMOOTH",
"943 500 LINE SMOOTH",
"943 542 OFFCURVE",
"922 566 OFFCURVE",
"867 566 CURVE SMOOTH",
"847 566 OFFCURVE",
"811 563 OFFCURVE",
"790 557 CURVE",
"797 539 OFFCURVE",
"797 511 OFFCURVE",
"797 491 CURVE SMOOTH",
"797 48 LINE SMOOTH",
"797 -99 OFFCURVE",
"757 -134 OFFCURVE",
"705 -134 CURVE SMOOTH",
"621 -134 OFFCURVE",
"591 27 OFFCURVE",
"588 212 CURVE SMOOTH",
"584 430 OFFCURVE",
"665 645 OFFCURVE",
"886 645 CURVE SMOOTH",
"1103 645 OFFCURVE",
"1125 411 OFFCURVE",
"1125 253 CURVE SMOOTH",
"1125 78 OFFCURVE",
"1074 -81 OFFCURVE",
"977 -131 CURVE",
"968 -155 OFFCURVE",
"985 -168 OFFCURVE",
"1002 -168 CURVE SMOOTH",
"1084 -168 OFFCURVE",
"1273 -39 OFFCURVE",
"1273 270 CURVE SMOOTH",
"1273 481 OFFCURVE",
"1187 706 OFFCURVE",
"914 706 CURVE SMOOTH",
"683 706 OFFCURVE",
"531 546 OFFCURVE",
"531 199 CURVE SMOOTH",
"531 -87 OFFCURVE",
"601 -197 OFFCURVE",
"741 -197 CURVE SMOOTH"
);
},
{
closed = 1;
nodes = (
"173 -3 OFFCURVE",
"176 12 OFFCURVE",
"176 31 CURVE",
"136 47 OFFCURVE",
"107 86 OFFCURVE",
"107 156 CURVE SMOOTH",
"107 235 OFFCURVE",
"143 285 OFFCURVE",
"201 285 CURVE SMOOTH",
"259 285 OFFCURVE",
"295 236 OFFCURVE",
"295 161 CURVE SMOOTH",
"295 94 OFFCURVE",
"267 48 OFFCURVE",
"227 48 CURVE",
"285 10 LINE",
"393 16 OFFCURVE",
"445 99 OFFCURVE",
"445 173 CURVE SMOOTH",
"445 280 OFFCURVE",
"350 338 OFFCURVE",
"252 338 CURVE SMOOTH",
"116 338 OFFCURVE",
"54 263 OFFCURVE",
"54 163 CURVE SMOOTH",
"54 76 OFFCURVE",
"96 -3 OFFCURVE",
"150 -3 CURVE SMOOTH"
);
},
{
closed = 1;
nodes = (
"844 0 LINE",
"844 48 LINE",
"226 48 LINE",
"226 0 LINE"
);
}
);
width = 1355;
}
);
unicode = 0D0E;
},
{
glyphname = "ee-malayalam";
lastChange = "2015-09-04 16:25:08 +0000";
layers = (
{
layerId = "60CFBDE8-BC08-4808-BF41-F011F3E03A54";
name = Light;
paths = (
{
closed = 1;
nodes = (
"745 -177 OFFCURVE",
"795 -111 OFFCURVE",
"795 37 CURVE SMOOTH",
"795 515 LINE SMOOTH",
"795 527 OFFCURVE",
"787 537 OFFCURVE",
"775 537 CURVE SMOOTH",
"767 537 OFFCURVE",
"762 533 OFFCURVE",
"758 529 CURVE",
"767 515 OFFCURVE",
"765 483 OFFCURVE",
"765 476 CURVE SMOOTH",
"767 36 LINE SMOOTH",
"768 -98 OFFCURVE",
"726 -152 OFFCURVE",
"664 -152 CURVE SMOOTH",
"556 -152 OFFCURVE",
"520 12 OFFCURVE",
"520 198 CURVE SMOOTH",
"520 449 OFFCURVE",
"585 639 OFFCURVE",
"790 639 CURVE SMOOTH",
"914 639 OFFCURVE",
"1013 570 OFFCURVE",
"1013 437 CURVE SMOOTH",
"1013 346 OFFCURVE",
"967 265 OFFCURVE",
"893 265 CURVE SMOOTH",
"856 265 LINE",
"856 239 LINE",
"885 239 LINE SMOOTH",
"987 239 OFFCURVE",
"1029 156 OFFCURVE",
"1029 67 CURVE SMOOTH",
"1029 -54 OFFCURVE",
"952 -128 OFFCURVE",
"881 -152 CURVE",
"883 -161 OFFCURVE",
"890 -167 OFFCURVE",
"903 -167 CURVE SMOOTH",
"952 -167 OFFCURVE",
"1063 -74 OFFCURVE",
"1063 65 CURVE SMOOTH",
"1063 152 OFFCURVE",
"1019 242 OFFCURVE",
"942 253 CURVE",
"1003 272 OFFCURVE",
"1046 339 OFFCURVE",
"1046 436 CURVE SMOOTH",
"1046 597 OFFCURVE",
"927 667 OFFCURVE",
"791 667 CURVE SMOOTH",
"611 667 OFFCURVE",
"492 543 OFFCURVE",
"492 192 CURVE SMOOTH",
"492 -73 OFFCURVE",
"560 -177 OFFCURVE",
"663 -177 CURVE SMOOTH"
);
},
{
closed = 1;
nodes = (
"176 -3 OFFCURVE",
"179 2 OFFCURVE",
"179 17 CURVE",
"143 27 OFFCURVE",
"105 77 OFFCURVE",
"105 159 CURVE SMOOTH",
"105 247 OFFCURVE",
"149 310 OFFCURVE",
"227 310 CURVE SMOOTH",
"298 310 OFFCURVE",
"353 257 OFFCURVE",
"353 159 CURVE SMOOTH",
"353 78 OFFCURVE",
"315 25 OFFCURVE",
"256 25 CURVE",
"259 11 LINE",
"333 7 OFFCURVE",
"384 68 OFFCURVE",
"384 163 CURVE SMOOTH",
"384 270 OFFCURVE",
"319 338 OFFCURVE",
"228 338 CURVE SMOOTH",
"132 338 OFFCURVE",
"74 263 OFFCURVE",
"74 164 CURVE SMOOTH",
"74 75 OFFCURVE",
"121 -3 OFFCURVE",
"165 -3 CURVE SMOOTH"
);
},
{
closed = 1;
nodes = (
"784 0 LINE",
"784 25 LINE",
"255 25 LINE",
"255 0 LINE"
);
}
);
width = 1143;
},
{
layerId = "EBFFFCD3-BAE4-48A5-9442-B72A90AD34A8";
name = Bold;
paths = (
{
closed = 1;
nodes = (
"853 -197 OFFCURVE",
"943 -114 OFFCURVE",
"943 79 CURVE SMOOTH",
"943 500 LINE SMOOTH",
"943 542 OFFCURVE",
"922 566 OFFCURVE",
"867 566 CURVE SMOOTH",
"847 566 OFFCURVE",
"811 563 OFFCURVE",
"790 557 CURVE",
"797 539 OFFCURVE",
"797 511 OFFCURVE",
"797 491 CURVE SMOOTH",
"797 48 LINE SMOOTH",
"797 -93 OFFCURVE",
"757 -134 OFFCURVE",
"712 -134 CURVE SMOOTH",
"621 -134 OFFCURVE",
"588 34 OFFCURVE",
"588 198 CURVE SMOOTH",
"588 443 OFFCURVE",
"662 645 OFFCURVE",
"889 645 CURVE SMOOTH",
"1034 645 OFFCURVE",
"1111 563 OFFCURVE",
"1111 453 CURVE SMOOTH",
"1111 388 OFFCURVE",
"1084 293 OFFCURVE",
"1017 293 CURVE SMOOTH",
"997 293 LINE",
"997 245 LINE",
"1012 245 LINE SMOOTH",
"1084 245 OFFCURVE",
"1113 166 OFFCURVE",
"1113 92 CURVE SMOOTH",
"1113 -16 OFFCURVE",
"1052 -96 OFFCURVE",
"977 -131 CURVE",
"970 -151 OFFCURVE",
"977 -168 OFFCURVE",
"1007 -168 CURVE SMOOTH",
"1067 -168 OFFCURVE",
"1263 -102 OFFCURVE",
"1263 76 CURVE SMOOTH",
"1263 176 OFFCURVE",
"1202 259 OFFCURVE",
"1132 270 CURVE",
"1198 289 OFFCURVE",
"1257 369 OFFCURVE",
"1257 461 CURVE SMOOTH",
"1257 598 OFFCURVE",
"1124 706 OFFCURVE",
"920 706 CURVE SMOOTH",
"681 706 OFFCURVE",
"531 557 OFFCURVE",
"531 181 CURVE SMOOTH",
"531 -86 OFFCURVE",
"607 -197 OFFCURVE",
"739 -197 CURVE SMOOTH"
);
},
{
closed = 1;
nodes = (
"173 -3 OFFCURVE",
"176 12 OFFCURVE",
"176 31 CURVE",
"136 47 OFFCURVE",
"107 86 OFFCURVE",
"107 156 CURVE SMOOTH",
"107 235 OFFCURVE",
"143 285 OFFCURVE",
"201 285 CURVE SMOOTH",
"259 285 OFFCURVE",
"295 236 OFFCURVE",
"295 161 CURVE SMOOTH",
"295 94 OFFCURVE",
"267 48 OFFCURVE",
"227 48 CURVE",
"285 10 LINE",
"393 16 OFFCURVE",
"445 98 OFFCURVE",
"445 175 CURVE SMOOTH",
"445 275 OFFCURVE",
"359 338 OFFCURVE",
"244 338 CURVE SMOOTH",
"119 338 OFFCURVE",
"54 263 OFFCURVE",
"54 160 CURVE SMOOTH",
"54 78 OFFCURVE",
"96 -3 OFFCURVE",
"150 -3 CURVE SMOOTH"
);
},
{
closed = 1;
nodes = (
"844 0 LINE",
"844 48 LINE",
"226 48 LINE",
"226 0 LINE"
);
}
);
width = 1323;
}
);
unicode = 0D0F;
},
{
color = 1;
glyphname = "ai-malayalam";
lastChange = "2015-09-07 21:12:27 +0000";
layers = (
{
components = (
{
name = "e-malayalam";
transform = "{1, 0, 0, 1, 650, 0}";
}
);
layerId = "60CFBDE8-BC08-4808-BF41-F011F3E03A54";
name = Light;
paths = (
{
closed = 1;
nodes = (
"370 -18 OFFCURVE",
"435 30 OFFCURVE",
"435 143 CURVE SMOOTH",
"435 243 OFFCURVE",
"384 298 OFFCURVE",
"312 298 CURVE SMOOTH",
"235 298 OFFCURVE",
"185 233 OFFCURVE",
"185 146 CURVE SMOOTH",
"185 100 OFFCURVE",
"198 36 OFFCURVE",
"251 9 CURVE",
"166 21 OFFCURVE",
"88 83 OFFCURVE",
"88 241 CURVE SMOOTH",
"88 459 OFFCURVE",
"238 519 OFFCURVE",
"359 519 CURVE SMOOTH",
"549 519 OFFCURVE",
"613 373 OFFCURVE",
"613 250 CURVE SMOOTH",
"613 181 OFFCURVE",
"593 51 OFFCURVE",
"479 2 CURVE",
"479 -9 OFFCURVE",
"491 -12 OFFCURVE",
"498 -12 CURVE SMOOTH",
"536 -12 OFFCURVE",
"644 73 OFFCURVE",
"644 250 CURVE SMOOTH",
"644 423 OFFCURVE",
"542 546 OFFCURVE",
"353 546 CURVE SMOOTH",
"193 546 OFFCURVE",
"60 455 OFFCURVE",
"60 241 CURVE SMOOTH",
"60 57 OFFCURVE",
"159 -18 OFFCURVE",
"276 -18 CURVE SMOOTH"
);
},
{
closed = 1;
nodes = (
"251 15 OFFCURVE",
"211 61 OFFCURVE",
"211 140 CURVE SMOOTH",
"211 212 OFFCURVE",
"244 269 OFFCURVE",
"310 269 CURVE SMOOTH",
"378 269 OFFCURVE",
"405 209 OFFCURVE",
"405 144 CURVE SMOOTH",
"405 66 OFFCURVE",
"365 15 OFFCURVE",
"307 15 CURVE SMOOTH"
);
}
);
width = 1753;
},
{
components = (
{
name = "e-malayalam";
transform = "{1, 0, 0, 1, 800, 0}";
}
);
layerId = "EBFFFCD3-BAE4-48A5-9442-B72A90AD34A8";
name = Bold;
paths = (
{
closed = 1;
nodes = (
"403 -18 OFFCURVE",
"464 67 OFFCURVE",
"464 165 CURVE SMOOTH",
"464 274 OFFCURVE",
"388 344 OFFCURVE",
"282 344 CURVE",
"167 344 OFFCURVE",
"121 263 OFFCURVE",
"121 189 CURVE SMOOTH",
"121 131 OFFCURVE",
"122 94 OFFCURVE",
"146 44 CURVE",
"124 112 OFFCURVE",
"123 170 OFFCURVE",
"123 199 CURVE SMOOTH",
"123 447 OFFCURVE",
"287 511 OFFCURVE",
"403 511 CURVE SMOOTH",
"516 511 OFFCURVE",
"633 443 OFFCURVE",
"633 259 CURVE SMOOTH",
"633 166 OFFCURVE",
"611 81 OFFCURVE",
"511 16 CURVE",
"511 -2 OFFCURVE",
"522 -8 OFFCURVE",
"552 -8 CURVE SMOOTH",
"709 -8 OFFCURVE",
"784 150 OFFCURVE",
"784 277 CURVE SMOOTH",
"784 446 OFFCURVE",
"648 566 OFFCURVE",
"443 566 CURVE SMOOTH",
"252 566 OFFCURVE",
"82 488 OFFCURVE",
"82 238 CURVE SMOOTH",
"82 53 OFFCURVE",
"166 -18 OFFCURVE",
"279 -18 CURVE SMOOTH"
);
},
{
closed = 1;
nodes = (
"205 26 OFFCURVE",
"161 73 OFFCURVE",
"161 161 CURVE SMOOTH",
"161 238 OFFCURVE",
"194 287 OFFCURVE",
"247 287 CURVE SMOOTH",
"300 287 OFFCURVE",
"330 237 OFFCURVE",
"330 156 CURVE SMOOTH",
"330 73 OFFCURVE",
"299 26 OFFCURVE",
"252 26 CURVE SMOOTH"
);
}
);
width = 2153;
}
);
unicode = 0D10;
},
{
color = 1;
glyphname = "o-malayalam";
lastChange = "2015-09-07 21:13:08 +0000";
layers = (
{
layerId = "60CFBDE8-BC08-4808-BF41-F011F3E03A54";
name = Light;
paths = (
{
closed = 1;
nodes = (
"334 -18 OFFCURVE",
"400 30 OFFCURVE",
"400 143 CURVE SMOOTH",
"400 243 OFFCURVE",
"349 298 OFFCURVE",
"277 298 CURVE SMOOTH",
"200 298 OFFCURVE",
"150 233 OFFCURVE",
"150 146 CURVE SMOOTH",
"150 101 OFFCURVE",
"163 38 OFFCURVE",
"216 11 CURVE",
"142 22 OFFCURVE",
"73 74 OFFCURVE",
"73 231 CURVE SMOOTH",
"73 466 OFFCURVE",
"229 519 OFFCURVE",
"381 519 CURVE SMOOTH",
"502 519 OFFCURVE",
"647 490 OFFCURVE",
"647 374 CURVE SMOOTH",
"647 307 OFFCURVE",
"577 265 OFFCURVE",
"507 265 CURVE SMOOTH",
"480 265 LINE",
"480 239 LINE",
"507 239 LINE SMOOTH",
"617 239 OFFCURVE",
"663 188 OFFCURVE",
"663 129 CURVE SMOOTH",
"663 51 OFFCURVE",
"602 11 OFFCURVE",
"532 11 CURVE SMOOTH",
"510 11 OFFCURVE",
"488 18 OFFCURVE",
"466 38 CURVE",
"451 36 OFFCURVE",
"450 17 OFFCURVE",
"458 10 CURVE SMOOTH",
"481 -10 OFFCURVE",
"512 -17 OFFCURVE",
"535 -17 CURVE SMOOTH",
"647 -17 OFFCURVE",
"697 59 OFFCURVE",
"697 127 CURVE SMOOTH",
"697 189 OFFCURVE",
"642 249 OFFCURVE",
"556 253 CURVE",
"631 267 OFFCURVE",
"680 316 OFFCURVE",
"680 373 CURVE SMOOTH",
"680 509 OFFCURVE",
"520 546 OFFCURVE",
"378 546 CURVE SMOOTH",
"168 546 OFFCURVE",
"45 453 OFFCURVE",
"45 233 CURVE SMOOTH",
"45 45 OFFCURVE",
"135 -18 OFFCURVE",
"242 -18 CURVE SMOOTH"
);
},
{
closed = 1;
nodes = (
"216 15 OFFCURVE",
"176 61 OFFCURVE",
"176 140 CURVE SMOOTH",
"176 212 OFFCURVE",
"209 269 OFFCURVE",
"275 269 CURVE SMOOTH",
"343 269 OFFCURVE",
"370 209 OFFCURVE",
"370 144 CURVE SMOOTH",
"370 66 OFFCURVE",
"330 15 OFFCURVE",
"272 15 CURVE SMOOTH"
);
}
);
width = 722;
},
{
layerId = "EBFFFCD3-BAE4-48A5-9442-B72A90AD34A8";
name = Bold;
paths = (
{
closed = 1;
nodes = (
"403 -18 OFFCURVE",
"464 67 OFFCURVE",
"464 165 CURVE SMOOTH",
"464 274 OFFCURVE",
"388 344 OFFCURVE",
"282 344 CURVE",
"167 344 OFFCURVE",
"121 263 OFFCURVE",
"121 189 CURVE SMOOTH",
"121 131 OFFCURVE",
"122 94 OFFCURVE",
"146 44 CURVE",
"124 112 OFFCURVE",
"123 170 OFFCURVE",
"123 199 CURVE SMOOTH",
"123 454 OFFCURVE",
"314 519 OFFCURVE",
"449 519 CURVE SMOOTH",
"564 519 OFFCURVE",
"663 471 OFFCURVE",
"663 378 CURVE SMOOTH",
"663 320 OFFCURVE",
"624 283 OFFCURVE",
"580 283 CURVE SMOOTH",
"536 283 LINE",
"536 235 LINE",
"580 235 LINE SMOOTH",
"641 235 OFFCURVE",
"666 185 OFFCURVE",
"666 139 CURVE SMOOTH",
"666 76 OFFCURVE",
"635 31 OFFCURVE",
"582 31 CURVE SMOOTH",
"562 31 OFFCURVE",
"540 37 OFFCURVE",
"523 47 CURVE",
"511 36 OFFCURVE",
"506 14 OFFCURVE",
"523 -1 CURVE SMOOTH",
"545 -19 OFFCURVE",
"589 -17 OFFCURVE",
"611 -17 CURVE SMOOTH",
"714 -17 OFFCURVE",
"816 18 OFFCURVE",
"816 120 CURVE SMOOTH",
"816 190 OFFCURVE",
"756 256 OFFCURVE",
"669 260 CURVE",
"735 273 OFFCURVE",
"806 308 OFFCURVE",
"806 386 CURVE SMOOTH",
"806 511 OFFCURVE",
"627 569 OFFCURVE",
"459 569 CURVE SMOOTH",
"264 569 OFFCURVE",
"82 488 OFFCURVE",
"82 238 CURVE SMOOTH",
"82 53 OFFCURVE",
"166 -18 OFFCURVE",
"279 -18 CURVE SMOOTH"
);
},
{
closed = 1;
nodes = (
"205 26 OFFCURVE",
"161 73 OFFCURVE",
"161 161 CURVE SMOOTH",
"161 238 OFFCURVE",
"194 287 OFFCURVE",
"247 287 CURVE SMOOTH",
"300 287 OFFCURVE",
"330 237 OFFCURVE",
"330 156 CURVE SMOOTH",
"330 73 OFFCURVE",
"299 26 OFFCURVE",
"252 26 CURVE SMOOTH"
);
}
);
width = 866;
}
);
unicode = 0D12;
},
{
color = 3;
glyphname = "oo-malayalam";
lastChange = "2015-09-04 16:49:18 +0000";
layers = (
{
components = (
{
name = "o-malayalam";
}
);
layerId = "60CFBDE8-BC08-4808-BF41-F011F3E03A54";
name = Light;
paths = (
{
closed = 1;
nodes = (
"836 453 OFFCURVE",
"910 519 OFFCURVE",
"1021 519 CURVE SMOOTH",
"1152 519 OFFCURVE",
"1221 432 OFFCURVE",
"1221 271 CURVE SMOOTH",
"1221 102 OFFCURVE",
"1152 11 OFFCURVE",
"1021 11 CURVE SMOOTH",
"908 11 OFFCURVE",
"834 85 OFFCURVE",
"835 190 CURVE",
"806 189 LINE",
"806 65 OFFCURVE",
"892 -18 OFFCURVE",
"1021 -18 CURVE SMOOTH",
"1173 -18 OFFCURVE",
"1254 84 OFFCURVE",
"1254 273 CURVE SMOOTH",
"1254 450 OFFCURVE",
"1173 546 OFFCURVE",
"1021 546 CURVE SMOOTH",
"891 546 OFFCURVE",
"805 463 OFFCURVE",
"806 339 CURVE SMOOTH",
"835 340 LINE"
);
}
);
width = 1299;
},
{
components = (
{
name = "o-malayalam";
}
);
layerId = "EBFFFCD3-BAE4-48A5-9442-B72A90AD34A8";
name = Bold;
paths = (
{
closed = 1;
nodes = (
"957 456 OFFCURVE",
"1015 519 OFFCURVE",
"1101 519 CURVE SMOOTH",
"1210 519 OFFCURVE",
"1268 432 OFFCURVE",
"1268 271 CURVE SMOOTH",
"1268 116 OFFCURVE",
"1210 33 OFFCURVE",
"1101 33 CURVE SMOOTH",
"1012 33 OFFCURVE",
"955 88 OFFCURVE",
"956 190 CURVE",
"906 189 LINE",
"906 56 OFFCURVE",
"988 -15 OFFCURVE",
"1141 -15 CURVE SMOOTH",
"1321 -15 OFFCURVE",
"1418 86 OFFCURVE",
"1418 273 CURVE SMOOTH",
"1418 463 OFFCURVE",
"1321 566 OFFCURVE",
"1141 566 CURVE SMOOTH",
"987 566 OFFCURVE",
"905 487 OFFCURVE",
"906 339 CURVE SMOOTH",
"956 340 LINE"
);
}
);
width = 1438;
}
);
unicode = 0D13;
},
{
color = 3;
glyphname = "au-malayalam";
lastChange = "2015-09-04 16:40:25 +0000";
layers = (
{
components = (
{
name = "o-malayalam";
}
);
layerId = "60CFBDE8-BC08-4808-BF41-F011F3E03A54";
name = Light;
paths = (
{
closed = 1;
nodes = (
"1281 -12 OFFCURVE",
"1409 104 OFFCURVE",
"1409 337 CURVE SMOOTH",
"1409 471 OFFCURVE",
"1345 543 OFFCURVE",
"1239 543 CURVE SMOOTH",
"1148 543 OFFCURVE",
"1097 493 OFFCURVE",
"1078 433 CURVE",
"1058 509 OFFCURVE",
"999 543 OFFCURVE",
"939 543 CURVE SMOOTH",
"838 543 OFFCURVE",
"779 469 OFFCURVE",
"779 337 CURVE SMOOTH",
"779 286 OFFCURVE",
"801 226 OFFCURVE",
"811 210 CURVE SMOOTH",
"816 201 OFFCURVE",
"824 197 OFFCURVE",
"833 197 CURVE SMOOTH",
"839 197 OFFCURVE",
"844 199 OFFCURVE",
"846 201 CURVE",
"828 236 OFFCURVE",
"809 282 OFFCURVE",
"809 337 CURVE SMOOTH",
"809 461 OFFCURVE",
"859 516 OFFCURVE",
"939 516 CURVE SMOOTH",
"1001 516 OFFCURVE",
"1061 470 OFFCURVE",
"1061 372 CURVE SMOOTH",
"1061 202 LINE",
"1090 202 LINE",
"1090 363 LINE SMOOTH",
"1090 461 OFFCURVE",
"1154 516 OFFCURVE",
"1231 516 CURVE SMOOTH",
"1307 516 OFFCURVE",
"1378 476 OFFCURVE",
"1378 336 CURVE SMOOTH",
"1378 136 OFFCURVE",
"1276 17 OFFCURVE",
"1103 17 CURVE SMOOTH",
"1043 17 OFFCURVE",
"967 48 OFFCURVE",
"924 128 CURVE",
"913 122 OFFCURVE",
"913 114 OFFCURVE",
"913 106 CURVE SMOOTH",
"913 57 OFFCURVE",
"1012 -12 OFFCURVE",
"1106 -12 CURVE SMOOTH"
);
}
);
width = 1454;
},
{
components = (
{
name = "o-malayalam";
}
);
layerId = "EBFFFCD3-BAE4-48A5-9442-B72A90AD34A8";
name = Bold;
paths = (
{
closed = 1;
nodes = (
"1420 -15 OFFCURVE",
"1630 71 OFFCURVE",
"1630 337 CURVE SMOOTH",
"1630 471 OFFCURVE",
"1577 566 OFFCURVE",
"1432 566 CURVE SMOOTH",
"1325 566 OFFCURVE",
"1269 514 OFFCURVE",
"1244 409 CURVE",
"1225 527 OFFCURVE",
"1137 566 OFFCURVE",
"1061 566 CURVE SMOOTH",
"963 566 OFFCURVE",
"892 507 OFFCURVE",
"892 394 CURVE SMOOTH",
"892 336 OFFCURVE",
"911 245 OFFCURVE",
"939 207 CURVE SMOOTH",
"950 192 OFFCURVE",
"962 190 OFFCURVE",
"971 190 CURVE SMOOTH",
"986 190 OFFCURVE",
"997 203 OFFCURVE",
"998 207 CURVE",
"967 272 OFFCURVE",
"957 332 OFFCURVE",
"957 379 CURVE SMOOTH",
"957 464 OFFCURVE",
"990 504 OFFCURVE",
"1044 504 CURVE SMOOTH",
"1116 504 OFFCURVE",
"1137 424 OFFCURVE",
"1137 324 CURVE SMOOTH",
"1137 207 LINE",
"1287 207 LINE",
"1287 330 LINE SMOOTH",
"1287 403 OFFCURVE",
"1306 499 OFFCURVE",
"1395 499 CURVE SMOOTH",
"1452 499 OFFCURVE",
"1480 459 OFFCURVE",
"1480 360 CURVE SMOOTH",
"1480 155 OFFCURVE",
"1359 50 OFFCURVE",
"1217 50 CURVE SMOOTH",
"1139 50 OFFCURVE",
"1077 82 OFFCURVE",
"1062 139 CURVE",
"1040 143 OFFCURVE",
"1033 119 OFFCURVE",
"1033 100 CURVE SMOOTH",
"1033 54 OFFCURVE",
"1076 -15 OFFCURVE",
"1239 -15 CURVE SMOOTH"
);
}
);
width = 1710;
}
);
unicode = 0D14;
},
{
glyphname = "ka-malayalam";
lastChange = "2015-09-07 18:57:47 +0000";
layers = (
{
layerId = "60CFBDE8-BC08-4808-BF41-F011F3E03A54";
name = Light;
paths = (
{
closed = 1;
nodes = (
"627 -12 OFFCURVE",
"689 85 OFFCURVE",
"689 266 CURVE SMOOTH",
"689 448 OFFCURVE",
"627 546 OFFCURVE",
"511 546 CURVE SMOOTH",
"395 546 OFFCURVE",
"333 448 OFFCURVE",
"333 266 CURVE SMOOTH",
"333 85 OFFCURVE",
"395 -12 OFFCURVE",
"511 -12 CURVE SMOOTH"
);
},
{
closed = 1;
nodes = (
"414 15 OFFCURVE",
"361 103 OFFCURVE",
"361 266 CURVE SMOOTH",
"361 430 OFFCURVE",
"414 519 OFFCURVE",
"511 519 CURVE SMOOTH",
"607 519 OFFCURVE",
"659 430 OFFCURVE",
"659 266 CURVE SMOOTH",
"659 103 OFFCURVE",
"607 15 OFFCURVE",
"511 15 CURVE SMOOTH"
);
},
{
closed = 1;
nodes = (
"709 82 OFFCURVE",
"695 72 OFFCURVE",
"708 44 CURVE SMOOTH",
"723 14 OFFCURVE",
"761 -12 OFFCURVE",
"820 -12 CURVE SMOOTH",
"903 -12 OFFCURVE",
"963 50 OFFCURVE",
"963 149 CURVE SMOOTH",
"963 241 OFFCURVE",
"899 297 OFFCURVE",
"780 297 CURVE SMOOTH",
"233 297 LINE SMOOTH",
"117 297 OFFCURVE",
"50 242 OFFCURVE",
"50 145 CURVE SMOOTH",
"50 61 OFFCURVE",
"102 -12 OFFCURVE",
"209 -12 CURVE SMOOTH",
"284 -12 OFFCURVE",
"364 27 OFFCURVE",
"364 184 CURVE",
"339 184 LINE",
"339 48 OFFCURVE",
"273 16 OFFCURVE",
"210 16 CURVE SMOOTH",
"117 16 OFFCURVE",
"80 78 OFFCURVE",
"80 146 CURVE SMOOTH",
"80 227 OFFCURVE",
"133 269 OFFCURVE",
"233 269 CURVE SMOOTH",
"780 269 LINE SMOOTH",
"882 269 OFFCURVE",
"933 224 OFFCURVE",
"933 149 CURVE SMOOTH",
"933 66 OFFCURVE",
"887 16 OFFCURVE",
"818 16 CURVE SMOOTH",
"764 16 OFFCURVE",
"743 42 OFFCURVE",
"725 79 CURVE"
);
}
);
width = 1013;
},
{
guideLines = (
{
position = "{290, 344}";
}
);
layerId = "EBFFFCD3-BAE4-48A5-9442-B72A90AD34A8";
name = Bold;
paths = (
{
closed = 1;
nodes = (
"683 -12 OFFCURVE",
"766 85 OFFCURVE",
"766 266 CURVE SMOOTH",
"766 449 OFFCURVE",
"682 546 OFFCURVE",
"550 546 CURVE SMOOTH",
"421 546 OFFCURVE",
"363 448 OFFCURVE",
"363 266 CURVE SMOOTH",
"363 78 OFFCURVE",
"425 -12 OFFCURVE",
"550 -12 CURVE SMOOTH"
);
},
{
closed = 1;
nodes = (
"458 32 OFFCURVE",
"417 113 OFFCURVE",
"417 266 CURVE SMOOTH",
"417 420 OFFCURVE",
"458 502 OFFCURVE",
"523 502 CURVE SMOOTH",
"586 502 OFFCURVE",
"616 418 OFFCURVE",
"616 266 CURVE SMOOTH",
"616 115 OFFCURVE",
"586 32 OFFCURVE",
"523 32 CURVE SMOOTH"
);
},
{
closed = 1;
nodes = (
"767 115 OFFCURVE",
"748 78 OFFCURVE",
"767 41 CURVE SMOOTH",
"783 9 OFFCURVE",
"822 -12 OFFCURVE",
"884 -12 CURVE SMOOTH",
"996 -12 OFFCURVE",
"1091 55 OFFCURVE",
"1091 166 CURVE SMOOTH",
"1091 285 OFFCURVE",
"982 327 OFFCURVE",
"863 327 CURVE SMOOTH",
"303 327 LINE SMOOTH",
"147 327 OFFCURVE",
"50 265 OFFCURVE",
"50 156 CURVE SMOOTH",
"50 57 OFFCURVE",
"111 -12 OFFCURVE",
"249 -12 CURVE SMOOTH",
"334 -12 OFFCURVE",
"421 34 OFFCURVE",
"430 113 CURVE",
"363 300 LINE",
"363 184 OFFCURVE",
"309 55 OFFCURVE",
"210 55 CURVE SMOOTH",
"159 55 OFFCURVE",
"110 85 OFFCURVE",
"110 155 CURVE SMOOTH",
"110 253 OFFCURVE",
"185 283 OFFCURVE",
"313 283 CURVE SMOOTH",
"833 283 LINE SMOOTH",
"907 283 OFFCURVE",
"941 238 OFFCURVE",
"941 158 CURVE SMOOTH",
"941 98 OFFCURVE",
"922 32 OFFCURVE",
"868 32 CURVE SMOOTH",
"837 32 OFFCURVE",
"807 54 OFFCURVE",
"807 108 CURVE"
);
}
);
width = 1124;
},
{
associatedMasterId = "EBFFFCD3-BAE4-48A5-9442-B72A90AD34A8";
guideLines = (
{
position = "{290, 344}";
}
);
layerId = "B3CC9E37-7829-40F3-A62E-7DD4036E74E9";
name = "Bold Sep 7 15, 19:51";
paths = (
{
closed = 1;
nodes = (
"679 -12 OFFCURVE",
"759 85 OFFCURVE",
"759 266 CURVE SMOOTH",
"759 449 OFFCURVE",
"678 546 OFFCURVE",
"550 546 CURVE SMOOTH",
"421 546 OFFCURVE",
"363 448 OFFCURVE",
"363 266 CURVE SMOOTH",
"363 78 OFFCURVE",
"425 -12 OFFCURVE",
"550 -12 CURVE SMOOTH"
);
},
{
closed = 1;
nodes = (
"456 32 OFFCURVE",
"417 113 OFFCURVE",
"417 266 CURVE SMOOTH",
"417 420 OFFCURVE",
"456 502 OFFCURVE",
"518 502 CURVE SMOOTH",
"580 502 OFFCURVE",
"609 418 OFFCURVE",
"609 266 CURVE SMOOTH",
"609 115 OFFCURVE",
"580 32 OFFCURVE",
"518 32 CURVE SMOOTH"
);
},
{
closed = 1;
nodes = (
"760 115 OFFCURVE",
"741 77 OFFCURVE",
"760 41 CURVE SMOOTH",
"776 9 OFFCURVE",
"816 -12 OFFCURVE",
"875 -12 CURVE SMOOTH",
"989 -12 OFFCURVE",
"1084 56 OFFCURVE",
"1084 162 CURVE SMOOTH",
"1084 287 OFFCURVE",
"975 327 OFFCURVE",
"856 327 CURVE SMOOTH",
"263 327 LINE SMOOTH",
"122 327 OFFCURVE",
"40 267 OFFCURVE",
"40 161 CURVE SMOOTH",
"40 66 OFFCURVE",
"105 -12 OFFCURVE",
"241 -12 CURVE SMOOTH",
"344 -12 OFFCURVE",
"408 32 OFFCURVE",
"408 202 CURVE",
"363 266 LINE",
"363 88 OFFCURVE",
"330 32 OFFCURVE",
"267 32 CURVE SMOOTH",
"204 32 OFFCURVE",
"190 94 OFFCURVE",
"190 151 CURVE SMOOTH",
"190 243 OFFCURVE",
"230 283 OFFCURVE",
"313 283 CURVE SMOOTH",
"826 283 LINE SMOOTH",
"900 283 OFFCURVE",
"934 240 OFFCURVE",
"934 155 CURVE SMOOTH",
"934 99 OFFCURVE",
"913 32 OFFCURVE",
"864 32 CURVE SMOOTH",
"829 32 OFFCURVE",
"800 54 OFFCURVE",
"800 108 CURVE"
);
}
);
width = 1124;
}
);
unicode = 0D15;
},
{
glyphname = "kha-malayalam";
lastChange = "2015-09-03 17:47:25 +0000";
layers = (
{
layerId = "60CFBDE8-BC08-4808-BF41-F011F3E03A54";
name = Light;
paths = (
{
closed = 1;
nodes = (
"336 -18 OFFCURVE",
"401 30 OFFCURVE",
"401 143 CURVE SMOOTH",
"401 243 OFFCURVE",
"351 298 OFFCURVE",
"280 298 CURVE SMOOTH",
"204 298 OFFCURVE",
"155 233 OFFCURVE",
"155 144 CURVE SMOOTH",
"155 102 OFFCURVE",
"166 38 OFFCURVE",
"210 11 CURVE",
"137 20 OFFCURVE",
"78 92 OFFCURVE",
"78 240 CURVE SMOOTH",
"78 456 OFFCURVE",
"203 519 OFFCURVE",
"329 519 CURVE SMOOTH",
"487 519 OFFCURVE",
"563 420 OFFCURVE",
"563 279 CURVE SMOOTH",
"563 139 OFFCURVE",
"489 56 OFFCURVE",
"449 14 CURVE",
"449 0 LINE",
"810 0 LINE",
"810 515 LINE SMOOTH",
"810 527 OFFCURVE",
"802 537 OFFCURVE",
"791 537 CURVE SMOOTH",
"782 537 OFFCURVE",
"777 533 OFFCURVE",
"773 529 CURVE",
"782 515 OFFCURVE",
"780 483 OFFCURVE",
"780 476 CURVE SMOOTH",
"780 26 LINE",
"500 26 LINE",
"552 91 OFFCURVE",
"595 173 OFFCURVE",
"595 282 CURVE SMOOTH",
"595 431 OFFCURVE",
"514 546 OFFCURVE",
"331 546 CURVE SMOOTH",
"161 546 OFFCURVE",
"50 446 OFFCURVE",
"50 239 CURVE SMOOTH",
"50 55 OFFCURVE",
"137 -18 OFFCURVE",
"247 -18 CURVE SMOOTH"
);
},
{
closed = 1;
nodes = (
"220 15 OFFCURVE",
"181 61 OFFCURVE",
"181 140 CURVE SMOOTH",
"181 212 OFFCURVE",
"213 269 OFFCURVE",
"278 269 CURVE SMOOTH",
"344 269 OFFCURVE",
"371 209 OFFCURVE",
"371 144 CURVE SMOOTH",
"371 66 OFFCURVE",
"332 15 OFFCURVE",
"275 15 CURVE SMOOTH"
);
}
);
width = 880;
},
{
layerId = "EBFFFCD3-BAE4-48A5-9442-B72A90AD34A8";
name = Bold;
paths = (
{
closed = 1;
nodes = (
"392 -18 OFFCURVE",
"494 24 OFFCURVE",
"494 144 CURVE SMOOTH",
"494 231 OFFCURVE",
"441 304 OFFCURVE",
"325 304 CURVE SMOOTH",
"224 304 OFFCURVE",
"173 249 OFFCURVE",
"173 145 CURVE SMOOTH",
"173 107 OFFCURVE",
"180 65 OFFCURVE",
"212 28 CURVE",
"154 42 OFFCURVE",
"103 96 OFFCURVE",
"103 235 CURVE SMOOTH",
"103 440 OFFCURVE",
"213 517 OFFCURVE",
"368 517 CURVE SMOOTH",
"548 517 OFFCURVE",
"607 413 OFFCURVE",
"607 276 CURVE SMOOTH",
"607 167 OFFCURVE",
"570 77 OFFCURVE",
"497 37 CURVE",
"497 0 LINE",
"1042 0 LINE",
"1042 500 LINE SMOOTH",
"1042 545 OFFCURVE",
"1021 566 OFFCURVE",
"958 566 CURVE SMOOTH",
"949 566 OFFCURVE",
"910 563 OFFCURVE",
"889 557 CURVE",
"896 539 OFFCURVE",
"896 511 OFFCURVE",
"896 491 CURVE SMOOTH",
"896 48 LINE",
"674 48 LINE",
"724 92 OFFCURVE",
"757 165 OFFCURVE",
"757 269 CURVE SMOOTH",
"757 476 OFFCURVE",
"628 566 OFFCURVE",
"402 566 CURVE SMOOTH",
"178 566 OFFCURVE",
"39 466 OFFCURVE",
"39 248 CURVE SMOOTH",
"39 40 OFFCURVE",
"148 -18 OFFCURVE",
"284 -18 CURVE SMOOTH"
);
},
{
closed = 1;
nodes = (
"245 28 OFFCURVE",
"225 67 OFFCURVE",
"225 133 CURVE SMOOTH",
"225 201 OFFCURVE",
"246 247 OFFCURVE",
"287 247 CURVE SMOOTH",
"330 247 OFFCURVE",
"344 198 OFFCURVE",
"344 138 CURVE SMOOTH",
"344 60 OFFCURVE",
"321 28 OFFCURVE",
"285 28 CURVE SMOOTH"
);
}
);
width = 1082;
}
);
unicode = 0D16;
},
{
glyphname = "ga-malayalam";
lastChange = "2015-09-07 18:50:44 +0000";
layers = (
{
layerId = "60CFBDE8-BC08-4808-BF41-F011F3E03A54";
name = Light;
paths = (
{
closed = 1;
nodes = (
"425 400 OFFCURVE",
"444 517 OFFCURVE",
"560 517 CURVE SMOOTH",
"668 517 OFFCURVE",
"712 415 OFFCURVE",
"712 280 CURVE SMOOTH",
"712 148 OFFCURVE",
"666 42 OFFCURVE",
"532 19 CURVE",
"525 10 OFFCURVE",
"527 -7 OFFCURVE",
"544 -7 CURVE SMOOTH",
"607 -7 OFFCURVE",
"742 58 OFFCURVE",
"742 282 CURVE SMOOTH",
"742 430 OFFCURVE",
"687 545 OFFCURVE",
"559 545 CURVE SMOOTH",
"421 545 OFFCURVE",
"398 412 OFFCURVE",
"374 264 CURVE SMOOTH",
"352 128 OFFCURVE",
"333 16 OFFCURVE",
"220 16 CURVE SMOOTH",
"113 16 OFFCURVE",
"70 115 OFFCURVE",
"70 247 CURVE SMOOTH",
"70 375 OFFCURVE",
"111 491 OFFCURVE",
"250 515 CURVE",
"257 522 OFFCURVE",
"262 539 OFFCURVE",
"238 539 CURVE SMOOTH",
"175 539 OFFCURVE",
"40 473 OFFCURVE",
"40 244 CURVE SMOOTH",
"40 99 OFFCURVE",
"94 -12 OFFCURVE",
"220 -12 CURVE SMOOTH",
"356 -12 OFFCURVE",
"380 116 OFFCURVE",
"404 264 CURVE SMOOTH"
);
}
);
width = 782;
},
{
layerId = "EBFFFCD3-BAE4-48A5-9442-B72A90AD34A8";
name = Bold;
paths = (
{
closed = 1;
nodes = (
"538 452 OFFCURVE",
"560 518 OFFCURVE",
"632 518 CURVE SMOOTH",
"721 518 OFFCURVE",
"756 421 OFFCURVE",
"756 301 CURVE SMOOTH",
"756 176 OFFCURVE",
"721 73 OFFCURVE",
"596 50 CURVE",
"579 39 OFFCURVE",
"567 -12 OFFCURVE",
"616 -12 CURVE SMOOTH",
"674 -12 OFFCURVE",
"820 57 OFFCURVE",
"820 302 CURVE SMOOTH",
"820 449 OFFCURVE",
"764 566 OFFCURVE",
"599 566 CURVE SMOOTH",
"411 566 OFFCURVE",
"380 417 OFFCURVE",
"355 279 CURVE SMOOTH",
"330 149 OFFCURVE",
"331 33 OFFCURVE",
"237 33 CURVE SMOOTH",
"148 33 OFFCURVE",
"114 132 OFFCURVE",
"114 252 CURVE SMOOTH",
"114 380 OFFCURVE",
"149 480 OFFCURVE",
"282 504 CURVE",
"307 533 OFFCURVE",
"304 566 OFFCURVE",
"259 566 CURVE SMOOTH",
"195 566 OFFCURVE",
"50 500 OFFCURVE",
"50 251 CURVE SMOOTH",
"50 105 OFFCURVE",
"102 -15 OFFCURVE",
"273 -15 CURVE SMOOTH",
"469 -15 OFFCURVE",
"490 140 OFFCURVE",
"511 279 CURVE SMOOTH"
);
}
);
width = 870;
}
);
unicode = 0D17;
},
{
color = 1;
glyphname = "ja-malayalam";
lastChange = "2015-09-04 16:40:30 +0000";
layers = (
{
layerId = "60CFBDE8-BC08-4808-BF41-F011F3E03A54";
name = Light;
paths = (
{
closed = 1;
nodes = (
"336 -12 OFFCURVE",
"381 195 OFFCURVE",
"581 195 CURVE SMOOTH",
"645 195 OFFCURVE",
"684 164 OFFCURVE",
"684 106 CURVE SMOOTH",
"684 51 OFFCURVE",
"641 17 OFFCURVE",
"584 17 CURVE SMOOTH",
"531 17 OFFCURVE",
"487 36 OFFCURVE",
"487 82 CURVE SMOOTH",
"487 92 OFFCURVE",
"489 102 OFFCURVE",
"492 113 CURVE",
"474 119 OFFCURVE",
"455 106 OFFCURVE",
"455 77 CURVE SMOOTH",
"455 24 OFFCURVE",
"510 -11 OFFCURVE",
"583 -11 CURVE SMOOTH",
"640 -11 OFFCURVE",
"716 20 OFFCURVE",
"716 106 CURVE SMOOTH",
"716 173 OFFCURVE",
"677 223 OFFCURVE",
"584 223 CURVE SMOOTH",
"370 223 OFFCURVE",
"311 15 OFFCURVE",
"176 15 CURVE SMOOTH",
"128 15 OFFCURVE",
"80 38 OFFCURVE",
"80 101 CURVE SMOOTH",
"80 190 OFFCURVE",
"206 240 OFFCURVE",
"371 254 CURVE SMOOTH",
"587 272 OFFCURVE",
"712 333 OFFCURVE",
"712 441 CURVE SMOOTH",
"712 511 OFFCURVE",
"666 546 OFFCURVE",
"585 546 CURVE SMOOTH",
"491 546 OFFCURVE",
"415 487 OFFCURVE",
"394 410 CURVE",
"379 495 OFFCURVE",
"312 546 OFFCURVE",
"221 546 CURVE SMOOTH",
"119 546 OFFCURVE",
"43 489 OFFCURVE",
"43 401 CURVE SMOOTH",
"43 353 OFFCURVE",
"70 294 OFFCURVE",
"141 294 CURVE SMOOTH",
"200 294 OFFCURVE",
"244 332 OFFCURVE",
"244 388 CURVE SMOOTH",
"244 442 OFFCURVE",
"204 478 OFFCURVE",
"149 478 CURVE SMOOTH",
"124 478 OFFCURVE",
"90 469 OFFCURVE",
"71 436 CURVE",
"85 481 OFFCURVE",
"128 519 OFFCURVE",
"219 519 CURVE SMOOTH",
"329 519 OFFCURVE",
"376 444 OFFCURVE",
"378 332 CURVE",
"405 332 LINE",
"405 460 OFFCURVE",
"500 519 OFFCURVE",
"582 519 CURVE SMOOTH",
"635 519 OFFCURVE",
"681 504 OFFCURVE",
"681 440 CURVE SMOOTH",
"681 350 OFFCURVE",
"560 295 OFFCURVE",
"369 279 CURVE SMOOTH",
"186 264 OFFCURVE",
"49 214 OFFCURVE",
"49 99 CURVE SMOOTH",
"49 29 OFFCURVE",
"97 -12 OFFCURVE",
"175 -12 CURVE SMOOTH"
);
},
{
closed = 1;
nodes = (
"105 320 OFFCURVE",
"76 346 OFFCURVE",
"76 386 CURVE SMOOTH",
"76 424 OFFCURVE",
"102 453 OFFCURVE",
"147 453 CURVE SMOOTH",
"188 453 OFFCURVE",
"215 425 OFFCURVE",
"215 388 CURVE SMOOTH",
"215 350 OFFCURVE",
"185 320 OFFCURVE",
"146 320 CURVE SMOOTH"
);
}
);
width = 766;
},
{
layerId = "EBFFFCD3-BAE4-48A5-9442-B72A90AD34A8";
name = Bold;
paths = (
{
closed = 1;
nodes = (
"401 -15 OFFCURVE",
"472 172 OFFCURVE",
"627 172 CURVE SMOOTH",
"699 172 OFFCURVE",
"710 131 OFFCURVE",
"710 104 CURVE SMOOTH",
"710 62 OFFCURVE",
"684 40 OFFCURVE",
"645 40 CURVE SMOOTH",
"612 40 OFFCURVE",
"597 55 OFFCURVE",
"596 80 CURVE SMOOTH",
"596 87 OFFCURVE",
"595 98 OFFCURVE",
"615 108 CURVE",
"570 144 OFFCURVE",
"519 113 OFFCURVE",
"521 59 CURVE SMOOTH",
"523 9 OFFCURVE",
"569 -14 OFFCURVE",
"648 -14 CURVE SMOOTH",
"771 -14 OFFCURVE",
"857 42 OFFCURVE",
"857 114 CURVE SMOOTH",
"857 177 OFFCURVE",
"791 226 OFFCURVE",
"662 226 CURVE SMOOTH",
"424 226 OFFCURVE",
"382 60 OFFCURVE",
"267 60 CURVE SMOOTH",
"222 60 OFFCURVE",
"205 86 OFFCURVE",
"205 116 CURVE SMOOTH",
"205 170 OFFCURVE",
"263 237 OFFCURVE",
"482 253 CURVE SMOOTH",
"649 265 OFFCURVE",
"842 281 OFFCURVE",
"842 441 CURVE SMOOTH",
"842 513 OFFCURVE",
"802 566 OFFCURVE",
"690 566 CURVE SMOOTH",
"592 566 OFFCURVE",
"525 525 OFFCURVE",
"492 444 CURVE",
"477 523 OFFCURVE",
"387 566 OFFCURVE",
"279 566 CURVE SMOOTH",
"133 566 OFFCURVE",
"63 486 OFFCURVE",
"63 405 CURVE SMOOTH",
"63 359 OFFCURVE",
"86 310 OFFCURVE",
"168 310 CURVE SMOOTH",
"241 310 OFFCURVE",
"296 348 OFFCURVE",
"296 407 CURVE SMOOTH",
"296 462 OFFCURVE",
"249 492 OFFCURVE",
"198 492 CURVE SMOOTH",
"196 492 OFFCURVE",
"194 492 OFFCURVE",
"192 492 CURVE",
"213 503 OFFCURVE",
"231 507 OFFCURVE",
"255 507 CURVE SMOOTH",
"360 507 OFFCURVE",
"388 429 OFFCURVE",
"384 358 CURVE",
"525 359 LINE",
"542 439 OFFCURVE",
"583 495 OFFCURVE",
"640 495 CURVE SMOOTH",
"675 495 OFFCURVE",
"694 474 OFFCURVE",
"694 435 CURVE SMOOTH",
"694 335 OFFCURVE",
"527 305 OFFCURVE",
"441 298 CURVE SMOOTH",
"322 288 OFFCURVE",
"57 265 OFFCURVE",
"57 108 CURVE SMOOTH",
"57 18 OFFCURVE",
"143 -15 OFFCURVE",
"219 -15 CURVE SMOOTH"
);
},
{
closed = 1;
nodes = (
"131 354 OFFCURVE",
"116 374 OFFCURVE",
"116 407 CURVE SMOOTH",
"116 438 OFFCURVE",
"130 457 OFFCURVE",
"154 457 CURVE SMOOTH",
"178 457 OFFCURVE",
"190 438 OFFCURVE",
"190 407 CURVE SMOOTH",
"190 374 OFFCURVE",
"177 354 OFFCURVE",
"154 354 CURVE SMOOTH"
);
}
);
width = 907;
}
);
unicode = 0D1C;
},
{
glyphname = "da-malayalam";
lastChange = "2015-09-03 17:38:35 +0000";
layers = (
{
layerId = "60CFBDE8-BC08-4808-BF41-F011F3E03A54";
name = Light;
paths = (
{
closed = 1;
nodes = (
"567 -17 OFFCURVE",
"617 60 OFFCURVE",
"617 124 CURVE SMOOTH",
"617 189 OFFCURVE",
"565 248 OFFCURVE",
"476 253 CURVE",
"548 268 OFFCURVE",
"600 315 OFFCURVE",
"600 388 CURVE SMOOTH",
"600 511 OFFCURVE",
"470 546 OFFCURVE",
"375 546 CURVE SMOOTH",
"195 546 OFFCURVE",
"95 430 OFFCURVE",
"95 253 CURVE SMOOTH",
"95 182 OFFCURVE",
"111 62 OFFCURVE",
"176 -11 CURVE SMOOTH",
"182 -18 OFFCURVE",
"198 -13 OFFCURVE",
"198 0 CURVE",
"139 78 OFFCURVE",
"123 180 OFFCURVE",
"123 249 CURVE SMOOTH",
"123 442 OFFCURVE",
"247 519 OFFCURVE",
"381 519 CURVE SMOOTH",
"456 519 OFFCURVE",
"567 492 OFFCURVE",
"567 387 CURVE SMOOTH",
"567 310 OFFCURVE",
"497 265 OFFCURVE",
"427 265 CURVE SMOOTH",
"360 265 LINE",
"360 239 LINE",
"427 239 LINE SMOOTH",
"536 239 OFFCURVE",
"583 190 OFFCURVE",
"583 125 CURVE SMOOTH",
"583 55 OFFCURVE",
"527 11 OFFCURVE",
"448 11 CURVE SMOOTH",
"416 11 OFFCURVE",
"375 18 OFFCURVE",
"337 38 CURVE",
"326 37 OFFCURVE",
"318 21 OFFCURVE",
"329 11 CURVE SMOOTH",
"342 -1 OFFCURVE",
"401 -17 OFFCURVE",
"453 -17 CURVE SMOOTH"
);
}
);
width = 652;
},
{
layerId = "EBFFFCD3-BAE4-48A5-9442-B72A90AD34A8";
name = Bold;
paths = (
{
closed = 1;
nodes = (
"622 -17 OFFCURVE",
"726 20 OFFCURVE",
"726 117 CURVE SMOOTH",
"726 191 OFFCURVE",
"666 256 OFFCURVE",
"579 260 CURVE",
"645 273 OFFCURVE",
"716 308 OFFCURVE",
"716 391 CURVE SMOOTH",
"716 512 OFFCURVE",
"559 566 OFFCURVE",
"421 566 CURVE SMOOTH",
"245 566 OFFCURVE",
"92 491 OFFCURVE",
"92 263 CURVE SMOOTH",
"92 55 OFFCURVE",
"217 -10 OFFCURVE",
"269 -10 CURVE SMOOTH",
"308 -10 OFFCURVE",
"304 26 OFFCURVE",
"293 32 CURVE",
"209 38 OFFCURVE",
"146 118 OFFCURVE",
"146 257 CURVE SMOOTH",
"146 484 OFFCURVE",
"321 519 OFFCURVE",
"404 519 CURVE SMOOTH",
"489 519 OFFCURVE",
"573 487 OFFCURVE",
"573 379 CURVE SMOOTH",
"573 320 OFFCURVE",
"534 283 OFFCURVE",
"490 283 CURVE SMOOTH",
"416 283 LINE",
"416 235 LINE",
"490 235 LINE SMOOTH",
"551 235 OFFCURVE",
"576 187 OFFCURVE",
"576 135 CURVE SMOOTH",
"576 81 OFFCURVE",
"549 31 OFFCURVE",
"489 31 CURVE SMOOTH",
"456 31 OFFCURVE",
"412 42 OFFCURVE",
"383 74 CURVE",
"370 59 OFFCURVE",
"366 39 OFFCURVE",
"383 19 CURVE SMOOTH",
"414 -13 OFFCURVE",
"488 -17 OFFCURVE",
"521 -17 CURVE SMOOTH"
);
}
);
width = 806;
}
);
unicode = 0D26;
},
{
glyphname = "a-tamil";
lastChange = "2015-07-06 15:58:59 +0000";
layers = (
{
layerId = "60CFBDE8-BC08-4808-BF41-F011F3E03A54";
name = Light;
paths = (
{
closed = 1;
nodes = (
"499 -100 OFFCURVE",
"671 2 OFFCURVE",
"671 289 CURVE SMOOTH",
"671 474 OFFCURVE",
"560 517 OFFCURVE",
"460 517 CURVE SMOOTH",
"330 517 OFFCURVE",
"245 445 OFFCURVE",
"245 346 CURVE SMOOTH",
"245 294 OFFCURVE",
"269 238 OFFCURVE",
"343 238 CURVE SMOOTH",
"402 238 OFFCURVE",
"444 273 OFFCURVE",
"444 330 CURVE SMOOTH",
"444 385 OFFCURVE",
"406 420 OFFCURVE",
"350 420 CURVE SMOOTH",
"331 420 OFFCURVE",
"296 416 OFFCURVE",
"274 381 CURVE",
"291 443 OFFCURVE",
"347 490 OFFCURVE",
"451 490 CURVE SMOOTH",
"573 490 OFFCURVE",
"639 426 OFFCURVE",
"639 288 CURVE SMOOTH",
"639 -13 OFFCURVE",
"432 -74 OFFCURVE",
"284 -74 CURVE SMOOTH",
"169 -74 OFFCURVE",
"77 -37 OFFCURVE",
"77 49 CURVE SMOOTH",
"77 130 OFFCURVE",
"136 144 OFFCURVE",
"270 144 CURVE SMOOTH",
"813 144 LINE",
"804 170 LINE",
"271 170 LINE SMOOTH",
"101 170 OFFCURVE",
"46 135 OFFCURVE",
"46 50 CURVE SMOOTH",
"46 -24 OFFCURVE",
"100 -100 OFFCURVE",
"285 -100 CURVE SMOOTH"
);
},
{
closed = 1;
nodes = (
"309 263 OFFCURVE",
"279 285 OFFCURVE",
"277 327 CURVE SMOOTH",
"275 365 OFFCURVE",
"301 394 OFFCURVE",
"346 394 CURVE SMOOTH",
"385 394 OFFCURVE",
"414 372 OFFCURVE",
"414 328 CURVE SMOOTH",
"414 281 OFFCURVE",
"385 263 OFFCURVE",
"347 263 CURVE SMOOTH"
);
},
{
closed = 1;
nodes = (
"809 -94 OFFCURVE",
"820 -93 OFFCURVE",
"826 -82 CURVE",
"820 -72 OFFCURVE",
"821 -41 OFFCURVE",
"821 -13 CURVE SMOOTH",
"820 500 LINE SMOOTH",
"820 514 OFFCURVE",
"813 522 OFFCURVE",
"801 522 CURVE SMOOTH",
"792 522 OFFCURVE",
"787 518 OFFCURVE",
"783 514 CURVE",
"792 484 OFFCURVE",
"789 376 OFFCURVE",
"789 335 CURVE SMOOTH",
"790 -54 LINE SMOOTH",
"790 -78 OFFCURVE",
"791 -94 OFFCURVE",
"806 -94 CURVE SMOOTH"
);
}
);
width = 953;
},
{
associatedMasterId = "60CFBDE8-BC08-4808-BF41-F011F3E03A54";
layerId = "186429E8-B980-426C-8FA9-00E146EE1BAD";
name = "Light Jul 6 15, 11:13";
paths = (
{
closed = 1;
nodes = (
"787 518 OFFCURVE",
"792 522 OFFCURVE",
"802 522 CURVE SMOOTH",
"813 522 OFFCURVE",
"820 514 OFFCURVE",
"820 500 CURVE SMOOTH",
"820 50 LINE SMOOTH",
"820 22 OFFCURVE",
"819 -9 OFFCURVE",
"825 -19 CURVE",
"819 -30 OFFCURVE",
"808 -31 OFFCURVE",
"805 -31 CURVE SMOOTH",
"790 -31 OFFCURVE",
"789 -15 OFFCURVE",
"789 9 CURVE SMOOTH",
"789 335 LINE SMOOTH",
"789 376 OFFCURVE",
"792 484 OFFCURVE",
"783 514 CURVE"
);
},
{
closed = 1;
nodes = (
"524 535 OFFCURVE",
"652 492 OFFCURVE",
"652 305 CURVE SMOOTH",
"652 76 OFFCURVE",
"460 -26 OFFCURVE",
"266 -26 CURVE SMOOTH",
"99 -26 OFFCURVE",
"34 50 OFFCURVE",
"34 118 CURVE SMOOTH",
"34 183 OFFCURVE",
"91 219 OFFCURVE",
"222 219 CURVE SMOOTH",
"794 219 LINE",
"803 171 LINE",
"274 171 LINE SMOOTH",
"137 171 OFFCURVE",
"111 157 OFFCURVE",
"111 119 CURVE SMOOTH",
"111 62 OFFCURVE",
"171 33 OFFCURVE",
"252 33 CURVE SMOOTH",
"335 33 OFFCURVE",
"504 63 OFFCURVE",
"504 277 CURVE SMOOTH",
"504 421 OFFCURVE",
"428 463 OFFCURVE",
"346 453 CURVE SMOOTH",
"264 443 OFFCURVE",
"236 391 OFFCURVE",
"236 349 CURVE SMOOTH",
"236 320 OFFCURVE",
"250 298 OFFCURVE",
"276 298 CURVE SMOOTH",
"295 298 OFFCURVE",
"293 310 OFFCURVE",
"293 323 CURVE SMOOTH",
"293 341 OFFCURVE",
"278 379 OFFCURVE",
"211 379 CURVE",
"268 441 LINE",
"327 441 OFFCURVE",
"410 415 OFFCURVE",
"407 336 CURVE SMOOTH",
"405 283 OFFCURVE",
"365 256 OFFCURVE",
"306 256 CURVE SMOOTH",
"220 256 OFFCURVE",
"196 314 OFFCURVE",
"196 365 CURVE SMOOTH",
"196 454 OFFCURVE",
"267 535 OFFCURVE",
"416 535 CURVE SMOOTH"
);
}
);
width = 953;
},
{
associatedMasterId = "60CFBDE8-BC08-4808-BF41-F011F3E03A54";
layerId = "3BC9C734-C14A-4749-8335-B1B974C7175B";
name = "Light Jul 6 15, 11:49";
paths = (
{
closed = 1;
nodes = (
"787 518 OFFCURVE",
"792 522 OFFCURVE",
"801 522 CURVE SMOOTH",
"813 522 OFFCURVE",
"820 514 OFFCURVE",
"820 500 CURVE SMOOTH",
"820 50 LINE SMOOTH",
"820 22 OFFCURVE",
"819 -9 OFFCURVE",
"825 -19 CURVE",
"819 -30 OFFCURVE",
"808 -31 OFFCURVE",
"805 -31 CURVE SMOOTH",
"790 -31 OFFCURVE",
"789 -15 OFFCURVE",
"789 9 CURVE SMOOTH",
"789 335 LINE SMOOTH",
"789 376 OFFCURVE",
"792 484 OFFCURVE",
"783 514 CURVE"
);
},
{
closed = 1;
nodes = (
"560 535 OFFCURVE",
"671 492 OFFCURVE",
"671 308 CURVE SMOOTH",
"671 76 OFFCURVE",
"494 -26 OFFCURVE",
"318 -26 CURVE SMOOTH",
"110 -26 OFFCURVE",
"46 50 OFFCURVE",
"46 116 CURVE SMOOTH",
"46 179 OFFCURVE",
"103 214 OFFCURVE",
"271 214 CURVE SMOOTH",
"794 214 LINE",
"803 188 LINE",
"270 188 LINE SMOOTH",
"134 188 OFFCURVE",
"77 174 OFFCURVE",
"77 112 CURVE SMOOTH",
"77 37 OFFCURVE",
"160 1 OFFCURVE",
"307 0 CURVE SMOOTH",
"422 -1 OFFCURVE",
"639 50 OFFCURVE",
"639 304 CURVE SMOOTH",
"639 444 OFFCURVE",
"573 508 OFFCURVE",
"452 508 CURVE SMOOTH",
"327 508 OFFCURVE",
"275 440 OFFCURVE",
"275 364 CURVE SMOOTH",
"275 309 OFFCURVE",
"302 281 OFFCURVE",
"346 281 CURVE SMOOTH",
"381 281 OFFCURVE",
"414 299 OFFCURVE",
"414 347 CURVE SMOOTH",
"414 390 OFFCURVE",
"388 412 OFFCURVE",
"353 412 CURVE SMOOTH",
"323 412 OFFCURVE",
"292 396 OFFCURVE",
"271 362 CURVE",
"271 394 LINE",
"299 431 OFFCURVE",
"337 438 OFFCURVE",
"361 438 CURVE SMOOTH",
"416 438 OFFCURVE",
"444 401 OFFCURVE",
"444 351 CURVE SMOOTH",
"444 290 OFFCURVE",
"402 256 OFFCURVE",
"343 256 CURVE SMOOTH",
"269 256 OFFCURVE",
"245 310 OFFCURVE",
"245 363 CURVE SMOOTH",
"245 463 OFFCURVE",
"329 535 OFFCURVE",
"459 535 CURVE SMOOTH"
);
}
);
width = 953;
},
{
associatedMasterId = "EBFFFCD3-BAE4-48A5-9442-B72A90AD34A8";
layerId = "5B5678CD-647B-4E57-8B4D-641FB5CD1899";
name = "Bold Jul 6 15, 11:54";
paths = (
{
closed = 1;
nodes = (
"753 515 OFFCURVE",
"789 542 OFFCURVE",
"837 537 CURVE SMOOTH",
"876 533 OFFCURVE",
"908 508 OFFCURVE",
"908 457 CURVE SMOOTH",
"908 201 LINE SMOOTH",
"908 135 OFFCURVE",
"904 -2 OFFCURVE",
"923 -5 CURVE",
"899 -22 OFFCURVE",
"872 -30 OFFCURVE",
"840 -30 CURVE SMOOTH",
"790 -30 OFFCURVE",
"759 -11 OFFCURVE",
"759 78 CURVE SMOOTH",
"759 335 LINE SMOOTH",
"759 347 OFFCURVE",
"757 438 OFFCURVE",
"739 503 CURVE"
);
},
{
closed = 1;
nodes = (
"524 535 OFFCURVE",
"652 492 OFFCURVE",
"652 305 CURVE SMOOTH",
"652 76 OFFCURVE",
"460 -26 OFFCURVE",
"266 -26 CURVE SMOOTH",
"99 -26 OFFCURVE",
"34 50 OFFCURVE",
"34 118 CURVE SMOOTH",
"34 183 OFFCURVE",
"91 219 OFFCURVE",
"222 219 CURVE SMOOTH",
"794 219 LINE",
"803 171 LINE",
"274 171 LINE SMOOTH",
"137 171 OFFCURVE",
"111 157 OFFCURVE",
"111 119 CURVE SMOOTH",
"111 62 OFFCURVE",
"171 33 OFFCURVE",
"252 33 CURVE SMOOTH",
"335 33 OFFCURVE",
"504 63 OFFCURVE",
"504 277 CURVE SMOOTH",
"504 421 OFFCURVE",
"428 463 OFFCURVE",
"346 453 CURVE SMOOTH",
"264 443 OFFCURVE",
"236 391 OFFCURVE",
"236 349 CURVE SMOOTH",
"236 320 OFFCURVE",
"250 298 OFFCURVE",
"276 298 CURVE SMOOTH",
"295 298 OFFCURVE",
"293 310 OFFCURVE",
"293 323 CURVE SMOOTH",
"293 341 OFFCURVE",
"278 379 OFFCURVE",
"211 379 CURVE",
"268 441 LINE",
"327 441 OFFCURVE",
"410 415 OFFCURVE",
"407 336 CURVE SMOOTH",
"405 283 OFFCURVE",
"365 256 OFFCURVE",
"298 256 CURVE SMOOTH",
"220 256 OFFCURVE",
"196 314 OFFCURVE",
"196 365 CURVE SMOOTH",
"196 454 OFFCURVE",
"267 535 OFFCURVE",
"416 535 CURVE SMOOTH"
);
}
);
width = 953;
},
{
associatedMasterId = "EBFFFCD3-BAE4-48A5-9442-B72A90AD34A8";
layerId = "E00BE1BF-7AFA-4312-A9A2-B9BE116BE8E8";
name = "Bold Jul 6 15, 11:54";
paths = (
{
closed = 1;
nodes = (
"438 -26 OFFCURVE",
"590 36 OFFCURVE",
"642 171 CURVE",
"803 171 LINE",
"794 219 LINE",
"656 219 LINE",
"660 239 OFFCURVE",
"662 260 OFFCURVE",
"662 282 CURVE SMOOTH",
"662 490 OFFCURVE",
"528 535 OFFCURVE",
"417 535 CURVE SMOOTH",
"267 535 OFFCURVE",
"196 454 OFFCURVE",
"196 365 CURVE SMOOTH",
"196 314 OFFCURVE",
"219 256 OFFCURVE",
"300 256 CURVE SMOOTH",
"365 256 OFFCURVE",
"407 294 OFFCURVE",
"407 344 CURVE SMOOTH",
"407 395 OFFCURVE",
"364 430 OFFCURVE",
"310 430 CURVE SMOOTH",
"298 430 OFFCURVE",
"286 429 OFFCURVE",
"273 425 CURVE",
"290 439 OFFCURVE",
"314 449 OFFCURVE",
"346 453 CURVE SMOOTH",
"428 463 OFFCURVE",
"504 421 OFFCURVE",
"504 277 CURVE SMOOTH",
"504 256 OFFCURVE",
"502 237 OFFCURVE",
"500 219 CURVE",
"212 219 LINE SMOOTH",
"88 219 OFFCURVE",
"34 183 OFFCURVE",
"34 118 CURVE SMOOTH",
"34 50 OFFCURVE",
"96 -26 OFFCURVE",
"271 -26 CURVE SMOOTH"
);
},
{
closed = 1;
nodes = (
"171 44 OFFCURVE",
"111 73 OFFCURVE",
"111 119 CURVE SMOOTH",
"111 157 OFFCURVE",
"137 171 OFFCURVE",
"274 171 CURVE SMOOTH",
"487 171 LINE",
"445 63 OFFCURVE",
"337 44 OFFCURVE",
"252 44 CURVE SMOOTH"
);
},
{
closed = 1;
nodes = (
"245 298 OFFCURVE",
"236 319 OFFCURVE",
"236 349 CURVE SMOOTH",
"236 369 OFFCURVE",
"246 387 OFFCURVE",
"267 387 CURVE SMOOTH",
"301 387 OFFCURVE",
"306 363 OFFCURVE",
"307 338 CURVE SMOOTH",
"308 325 OFFCURVE",
"303 298 OFFCURVE",
"275 298 CURVE SMOOTH"
);
},
{
closed = 1;
nodes = (
"872 -30 OFFCURVE",
"899 -22 OFFCURVE",
"923 -5 CURVE",
"904 -2 OFFCURVE",
"908 135 OFFCURVE",
"908 201 CURVE SMOOTH",
"908 457 LINE SMOOTH",
"908 508 OFFCURVE",
"876 533 OFFCURVE",
"837 537 CURVE SMOOTH",
"789 542 OFFCURVE",
"753 515 OFFCURVE",
"739 503 CURVE",
"757 438 OFFCURVE",
"759 347 OFFCURVE",
"759 335 CURVE SMOOTH",
"759 78 LINE SMOOTH",
"759 -11 OFFCURVE",
"790 -30 OFFCURVE",
"840 -30 CURVE SMOOTH"
);
}
);
width = 953;
},
{
layerId = "EBFFFCD3-BAE4-48A5-9442-B72A90AD34A8";
name = Bold;
paths = (
{
closed = 1;
nodes = (
"460 -104 OFFCURVE",
"643 -3 OFFCURVE",
"643 264 CURVE SMOOTH",
"643 493 OFFCURVE",
"509 535 OFFCURVE",
"401 535 CURVE SMOOTH",
"246 535 OFFCURVE",
"177 449 OFFCURVE",
"177 354 CURVE SMOOTH",
"177 289 OFFCURVE",
"200 236 OFFCURVE",
"282 236 CURVE SMOOTH",
"351 236 OFFCURVE",
"398 281 OFFCURVE",
"398 337 CURVE SMOOTH",
"398 394 OFFCURVE",
"360 430 OFFCURVE",
"293 430 CURVE SMOOTH",
"279 430 OFFCURVE",
"267 428 OFFCURVE",
"254 425 CURVE",
"279 457 OFFCURVE",
"315 467 OFFCURVE",
"349 467 CURVE SMOOTH",
"426 467 OFFCURVE",
"492 416 OFFCURVE",
"492 239 CURVE SMOOTH",
"492 21 OFFCURVE",
"376 -34 OFFCURVE",
"257 -34 CURVE SMOOTH",
"173 -34 OFFCURVE",
"92 -6 OFFCURVE",
"92 65 CURVE SMOOTH",
"92 130 OFFCURVE",
"158 140 OFFCURVE",
"255 140 CURVE SMOOTH",
"816 140 LINE",
"807 188 LINE",
"193 188 LINE SMOOTH",
"89 188 OFFCURVE",
"15 143 OFFCURVE",
"15 54 CURVE SMOOTH",
"15 -27 OFFCURVE",
"77 -104 OFFCURVE",
"256 -104 CURVE SMOOTH"
);
},
{
closed = 1;
nodes = (
"228 278 OFFCURVE",
"219 305 OFFCURVE",
"219 333 CURVE SMOOTH",
"219 366 OFFCURVE",
"232 387 OFFCURVE",
"260 387 CURVE SMOOTH",
"292 387 OFFCURVE",
"300 359 OFFCURVE",
"300 335 CURVE SMOOTH",
"300 313 OFFCURVE",
"294 278 OFFCURVE",
"259 278 CURVE SMOOTH"
);
},
{
closed = 1;
nodes = (
"880 -140 OFFCURVE",
"907 -132 OFFCURVE",
"931 -115 CURVE",
"912 -112 OFFCURVE",
"916 25 OFFCURVE",
"916 201 CURVE SMOOTH",
"916 457 LINE SMOOTH",
"916 508 OFFCURVE",
"884 533 OFFCURVE",
"847 537 CURVE SMOOTH",
"799 542 OFFCURVE",
"763 515 OFFCURVE",
"749 503 CURVE",
"767 438 OFFCURVE",
"769 347 OFFCURVE",
"769 335 CURVE SMOOTH",
"769 -32 LINE SMOOTH",
"769 -121 OFFCURVE",
"800 -140 OFFCURVE",
"850 -140 CURVE SMOOTH"
);
}
);
width = 973;
},
{
associatedMasterId = "EBFFFCD3-BAE4-48A5-9442-B72A90AD34A8";
layerId = "9FC20015-19D6-494D-8627-2AD268AAF82F";
name = "Bold Jul 6 15, 11:54";
paths = (
{
closed = 1;
nodes = (
"753 515 OFFCURVE",
"789 542 OFFCURVE",
"837 537 CURVE SMOOTH",
"876 533 OFFCURVE",
"908 508 OFFCURVE",
"908 457 CURVE SMOOTH",
"908 201 LINE SMOOTH",
"908 135 OFFCURVE",
"904 -2 OFFCURVE",
"923 -5 CURVE",
"899 -22 OFFCURVE",
"872 -30 OFFCURVE",
"840 -30 CURVE SMOOTH",
"790 -30 OFFCURVE",
"759 -11 OFFCURVE",
"759 78 CURVE SMOOTH",
"759 335 LINE SMOOTH",
"759 347 OFFCURVE",
"757 438 OFFCURVE",
"739 503 CURVE"
);
},
{
closed = 1;
nodes = (
"528 535 OFFCURVE",
"662 490 OFFCURVE",
"662 282 CURVE SMOOTH",
"662 70 OFFCURVE",
"479 -26 OFFCURVE",
"271 -26 CURVE SMOOTH",
"96 -26 OFFCURVE",
"34 50 OFFCURVE",
"34 118 CURVE SMOOTH",
"34 183 OFFCURVE",
"88 219 OFFCURVE",
"212 219 CURVE SMOOTH",
"794 219 LINE",
"803 171 LINE",
"274 171 LINE SMOOTH",
"137 171 OFFCURVE",
"111 157 OFFCURVE",
"111 119 CURVE SMOOTH",
"111 73 OFFCURVE",
"171 44 OFFCURVE",
"252 44 CURVE SMOOTH",
"360 44 OFFCURVE",
"504 74 OFFCURVE",
"504 277 CURVE SMOOTH",
"504 421 OFFCURVE",
"428 463 OFFCURVE",
"346 453 CURVE SMOOTH",
"267 444 OFFCURVE",
"236 393 OFFCURVE",
"236 349 CURVE SMOOTH",
"236 320 OFFCURVE",
"250 298 OFFCURVE",
"275 298 CURVE SMOOTH",
"303 298 OFFCURVE",
"307 325 OFFCURVE",
"307 338 CURVE SMOOTH",
"307 352 OFFCURVE",
"301 387 OFFCURVE",
"266 387 CURVE SMOOTH",
"254 387 OFFCURVE",
"236 380 OFFCURVE",
"236 349 CURVE",
"237 410 LINE",
"262 424 OFFCURVE",
"287 430 OFFCURVE",
"310 430 CURVE SMOOTH",
"364 430 OFFCURVE",
"407 395 OFFCURVE",
"407 344 CURVE SMOOTH",
"407 294 OFFCURVE",
"365 256 OFFCURVE",
"300 256 CURVE SMOOTH",
"219 256 OFFCURVE",
"196 314 OFFCURVE",
"196 365 CURVE SMOOTH",
"196 454 OFFCURVE",
"267 535 OFFCURVE",
"417 535 CURVE SMOOTH"
);
}
);
width = 953;
},
{
associatedMasterId = "EBFFFCD3-BAE4-48A5-9442-B72A90AD34A8";
layerId = "5FE0EE51-7955-4E7D-9AAC-3AA2B3AEAB4C";
name = "Bold Jul 6 15, 12:55";
paths = (
{
closed = 1;
nodes = (
"479 -26 OFFCURVE",
"662 70 OFFCURVE",
"662 282 CURVE SMOOTH",
"662 490 OFFCURVE",
"528 535 OFFCURVE",
"417 535 CURVE SMOOTH",
"267 535 OFFCURVE",
"196 454 OFFCURVE",
"196 365 CURVE SMOOTH",
"196 314 OFFCURVE",
"219 256 OFFCURVE",
"300 256 CURVE SMOOTH",
"365 256 OFFCURVE",
"407 294 OFFCURVE",
"407 344 CURVE SMOOTH",
"407 395 OFFCURVE",
"364 430 OFFCURVE",
"310 430 CURVE SMOOTH",
"298 430 OFFCURVE",
"286 428 OFFCURVE",
"273 425 CURVE",
"290 439 OFFCURVE",
"314 449 OFFCURVE",
"346 453 CURVE SMOOTH",
"428 463 OFFCURVE",
"504 421 OFFCURVE",
"504 277 CURVE SMOOTH",
"504 74 OFFCURVE",
"360 44 OFFCURVE",
"252 44 CURVE SMOOTH",
"171 44 OFFCURVE",
"111 73 OFFCURVE",
"111 119 CURVE SMOOTH",
"111 157 OFFCURVE",
"137 171 OFFCURVE",
"274 171 CURVE SMOOTH",
"806 171 LINE",
"797 219 LINE",
"212 219 LINE SMOOTH",
"88 219 OFFCURVE",
"34 183 OFFCURVE",
"34 118 CURVE SMOOTH",
"34 50 OFFCURVE",
"96 -26 OFFCURVE",
"271 -26 CURVE SMOOTH"
);
},
{
closed = 1;
nodes = (
"245 298 OFFCURVE",
"236 321 OFFCURVE",
"236 346 CURVE SMOOTH",
"236 369 OFFCURVE",
"247 387 OFFCURVE",
"270 387 CURVE SMOOTH",
"301 387 OFFCURVE",
"307 360 OFFCURVE",
"307 338 CURVE SMOOTH",
"307 325 OFFCURVE",
"303 298 OFFCURVE",
"275 298 CURVE SMOOTH"
);
},
{
closed = 1;
nodes = (
"872 -30 OFFCURVE",
"899 -22 OFFCURVE",
"923 -5 CURVE",
"904 -2 OFFCURVE",
"908 135 OFFCURVE",
"908 201 CURVE SMOOTH",
"908 457 LINE SMOOTH",
"908 508 OFFCURVE",
"876 533 OFFCURVE",
"837 537 CURVE SMOOTH",
"789 542 OFFCURVE",
"753 515 OFFCURVE",
"739 503 CURVE",
"757 438 OFFCURVE",
"759 347 OFFCURVE",
"759 335 CURVE SMOOTH",
"759 78 LINE SMOOTH",
"759 -11 OFFCURVE",
"790 -30 OFFCURVE",
"840 -30 CURVE SMOOTH"
);
}
);
width = 953;
},
{
associatedMasterId = "EBFFFCD3-BAE4-48A5-9442-B72A90AD34A8";
layerId = "E989582B-13B9-40BA-8E21-3FE791317112";
name = "Bold Jul 6 15, 12:55";
paths = (
{
closed = 1;
nodes = (
"479 -26 OFFCURVE",
"662 70 OFFCURVE",
"662 282 CURVE SMOOTH",
"662 490 OFFCURVE",
"528 535 OFFCURVE",
"417 535 CURVE SMOOTH",
"267 535 OFFCURVE",
"196 454 OFFCURVE",
"196 365 CURVE SMOOTH",
"196 314 OFFCURVE",
"219 256 OFFCURVE",
"300 256 CURVE SMOOTH",
"365 256 OFFCURVE",
"407 294 OFFCURVE",
"407 344 CURVE SMOOTH",
"407 395 OFFCURVE",
"364 430 OFFCURVE",
"310 430 CURVE SMOOTH",
"298 430 OFFCURVE",
"286 428 OFFCURVE",
"273 425 CURVE",
"290 439 OFFCURVE",
"314 449 OFFCURVE",
"346 453 CURVE SMOOTH",
"428 463 OFFCURVE",
"504 421 OFFCURVE",
"504 277 CURVE SMOOTH",
"504 74 OFFCURVE",
"360 44 OFFCURVE",
"252 44 CURVE SMOOTH",
"171 44 OFFCURVE",
"111 73 OFFCURVE",
"111 119 CURVE SMOOTH",
"111 157 OFFCURVE",
"137 171 OFFCURVE",
"274 171 CURVE SMOOTH",
"806 171 LINE",
"797 219 LINE",
"212 219 LINE SMOOTH",
"88 219 OFFCURVE",
"34 183 OFFCURVE",
"34 118 CURVE SMOOTH",
"34 50 OFFCURVE",
"96 -26 OFFCURVE",
"271 -26 CURVE SMOOTH"
);
},
{
closed = 1;
nodes = (
"245 298 OFFCURVE",
"236 321 OFFCURVE",
"236 346 CURVE SMOOTH",
"236 369 OFFCURVE",
"247 387 OFFCURVE",
"270 387 CURVE SMOOTH",
"301 387 OFFCURVE",
"307 360 OFFCURVE",
"307 338 CURVE SMOOTH",
"307 325 OFFCURVE",
"303 298 OFFCURVE",
"275 298 CURVE SMOOTH"
);
},
{
closed = 1;
nodes = (
"872 -140 OFFCURVE",
"899 -132 OFFCURVE",
"923 -115 CURVE",
"904 -112 OFFCURVE",
"908 25 OFFCURVE",
"908 201 CURVE SMOOTH",
"908 457 LINE SMOOTH",
"908 508 OFFCURVE",
"876 533 OFFCURVE",
"837 537 CURVE SMOOTH",
"789 542 OFFCURVE",
"753 515 OFFCURVE",
"739 503 CURVE",
"757 438 OFFCURVE",
"759 347 OFFCURVE",
"759 335 CURVE SMOOTH",
"759 -32 LINE SMOOTH",
"759 -121 OFFCURVE",
"790 -140 OFFCURVE",
"840 -140 CURVE SMOOTH"
);
}
);
width = 953;
},
{
associatedMasterId = "60CFBDE8-BC08-4808-BF41-F011F3E03A54";
layerId = "C0A5BFBB-E506-4631-92B1-C1E4C63B96D3";
name = "Light Jul 6 15, 12:56";
paths = (
{
closed = 1;
nodes = (
"499 -26 OFFCURVE",
"671 76 OFFCURVE",
"671 307 CURVE SMOOTH",
"671 492 OFFCURVE",
"560 535 OFFCURVE",
"460 535 CURVE SMOOTH",
"330 535 OFFCURVE",
"245 463 OFFCURVE",
"245 364 CURVE SMOOTH",
"245 312 OFFCURVE",
"269 256 OFFCURVE",
"343 256 CURVE SMOOTH",
"402 256 OFFCURVE",
"444 291 OFFCURVE",
"444 348 CURVE SMOOTH",
"444 403 OFFCURVE",
"406 438 OFFCURVE",
"350 438 CURVE SMOOTH",
"331 438 OFFCURVE",
"296 434 OFFCURVE",
"274 399 CURVE",
"291 461 OFFCURVE",
"347 508 OFFCURVE",
"451 508 CURVE SMOOTH",
"573 508 OFFCURVE",
"639 444 OFFCURVE",
"639 306 CURVE SMOOTH",
"639 61 OFFCURVE",
"432 0 OFFCURVE",
"284 0 CURVE SMOOTH",
"169 0 OFFCURVE",
"77 37 OFFCURVE",
"77 113 CURVE SMOOTH",
"77 174 OFFCURVE",
"136 188 OFFCURVE",
"270 188 CURVE SMOOTH",
"813 188 LINE",
"804 214 LINE",
"271 214 LINE SMOOTH",
"101 214 OFFCURVE",
"46 179 OFFCURVE",
"46 114 CURVE SMOOTH",
"46 50 OFFCURVE",
"100 -26 OFFCURVE",
"285 -26 CURVE SMOOTH"
);
},
{
closed = 1;
nodes = (
"309 281 OFFCURVE",
"279 303 OFFCURVE",
"277 345 CURVE SMOOTH",
"275 383 OFFCURVE",
"301 412 OFFCURVE",
"346 412 CURVE SMOOTH",
"385 412 OFFCURVE",
"414 390 OFFCURVE",
"414 346 CURVE SMOOTH",
"414 300 OFFCURVE",
"382 281 OFFCURVE",
"347 281 CURVE SMOOTH"
);
},
{
closed = 1;
nodes = (
"808 -31 OFFCURVE",
"819 -30 OFFCURVE",
"825 -19 CURVE",
"819 -9 OFFCURVE",
"820 22 OFFCURVE",
"820 50 CURVE SMOOTH",
"820 500 LINE SMOOTH",
"820 514 OFFCURVE",
"813 522 OFFCURVE",
"801 522 CURVE SMOOTH",
"792 522 OFFCURVE",
"787 518 OFFCURVE",
"783 514 CURVE",
"792 484 OFFCURVE",
"789 376 OFFCURVE",
"789 335 CURVE SMOOTH",
"789 9 LINE SMOOTH",
"789 -15 OFFCURVE",
"790 -31 OFFCURVE",
"805 -31 CURVE SMOOTH"
);
}
);
width = 953;
},
{
associatedMasterId = "EBFFFCD3-BAE4-48A5-9442-B72A90AD34A8";
layerId = "6B7F9930-A428-412A-B95F-B45B20D112D9";
name = "Bold Jul 6 15, 14:57";
paths = (
{
closed = 1;
nodes = (
"479 -104 OFFCURVE",
"662 -8 OFFCURVE",
"662 272 CURVE SMOOTH",
"662 490 OFFCURVE",
"528 535 OFFCURVE",
"417 535 CURVE SMOOTH",
"267 535 OFFCURVE",
"196 454 OFFCURVE",
"196 365 CURVE SMOOTH",
"196 314 OFFCURVE",
"219 256 OFFCURVE",
"300 256 CURVE SMOOTH",
"365 256 OFFCURVE",
"407 294 OFFCURVE",
"407 344 CURVE SMOOTH",
"407 395 OFFCURVE",
"364 430 OFFCURVE",
"310 430 CURVE SMOOTH",
"298 430 OFFCURVE",
"286 428 OFFCURVE",
"273 425 CURVE",
"290 439 OFFCURVE",
"314 449 OFFCURVE",
"346 453 CURVE SMOOTH",
"428 463 OFFCURVE",
"504 421 OFFCURVE",
"504 236 CURVE SMOOTH",
"504 22 OFFCURVE",
"391 -34 OFFCURVE",
"273 -34 CURVE SMOOTH",
"171 -34 OFFCURVE",
"111 12 OFFCURVE",
"111 55 CURVE SMOOTH",
"111 126 OFFCURVE",
"155 140 OFFCURVE",
"274 140 CURVE SMOOTH",
"806 140 LINE",
"797 188 LINE",
"212 188 LINE SMOOTH",
"108 188 OFFCURVE",
"34 140 OFFCURVE",
"34 60 CURVE SMOOTH",
"34 -28 OFFCURVE",
"96 -104 OFFCURVE",
"271 -104 CURVE SMOOTH"
);
},
{
closed = 1;
nodes = (
"245 298 OFFCURVE",
"236 321 OFFCURVE",
"236 346 CURVE SMOOTH",
"236 369 OFFCURVE",
"247 387 OFFCURVE",
"270 387 CURVE SMOOTH",
"301 387 OFFCURVE",
"307 360 OFFCURVE",
"307 338 CURVE SMOOTH",
"307 325 OFFCURVE",
"303 298 OFFCURVE",
"275 298 CURVE SMOOTH"
);
},
{
closed = 1;
nodes = (
"872 -140 OFFCURVE",
"899 -132 OFFCURVE",
"923 -115 CURVE",
"904 -112 OFFCURVE",
"908 25 OFFCURVE",
"908 201 CURVE SMOOTH",
"908 457 LINE SMOOTH",
"908 508 OFFCURVE",
"876 533 OFFCURVE",
"837 537 CURVE SMOOTH",
"789 542 OFFCURVE",
"753 515 OFFCURVE",
"739 503 CURVE",
"757 438 OFFCURVE",
"759 347 OFFCURVE",
"759 335 CURVE SMOOTH",
"759 -32 LINE SMOOTH",
"759 -121 OFFCURVE",
"790 -140 OFFCURVE",
"840 -140 CURVE SMOOTH"
);
}
);
width = 963;
},
{
associatedMasterId = "EBFFFCD3-BAE4-48A5-9442-B72A90AD34A8";
layerId = "F8236867-1E3C-4F10-B306-7103AC3A3C7E";
name = "Bold Jul 6 15, 16:57";
paths = (
{
closed = 1;
nodes = (
"460 -104 OFFCURVE",
"643 -3 OFFCURVE",
"643 264 CURVE SMOOTH",
"643 493 OFFCURVE",
"509 535 OFFCURVE",
"401 535 CURVE SMOOTH",
"246 535 OFFCURVE",
"177 449 OFFCURVE",
"177 354 CURVE SMOOTH",
"177 289 OFFCURVE",
"200 236 OFFCURVE",
"282 236 CURVE SMOOTH",
"351 236 OFFCURVE",
"398 281 OFFCURVE",
"398 337 CURVE SMOOTH",
"398 394 OFFCURVE",
"360 430 OFFCURVE",
"293 430 CURVE SMOOTH",
"279 430 OFFCURVE",
"267 428 OFFCURVE",
"254 425 CURVE",
"273 441 OFFCURVE",
"301 450 OFFCURVE",
"327 453 CURVE SMOOTH",
"411 463 OFFCURVE",
"489 419 OFFCURVE",
"489 239 CURVE SMOOTH",
"489 21 OFFCURVE",
"374 -34 OFFCURVE",
"257 -34 CURVE SMOOTH",
"173 -34 OFFCURVE",
"92 -6 OFFCURVE",
"92 65 CURVE SMOOTH",
"92 130 OFFCURVE",
"158 140 OFFCURVE",
"255 140 CURVE SMOOTH",
"816 140 LINE",
"807 188 LINE",
"193 188 LINE SMOOTH",
"89 188 OFFCURVE",
"15 143 OFFCURVE",
"15 54 CURVE SMOOTH",
"15 -27 OFFCURVE",
"77 -104 OFFCURVE",
"256 -104 CURVE SMOOTH"
);
},
{
closed = 1;
nodes = (
"228 278 OFFCURVE",
"219 305 OFFCURVE",
"219 333 CURVE SMOOTH",
"219 366 OFFCURVE",
"232 387 OFFCURVE",
"260 387 CURVE SMOOTH",
"292 387 OFFCURVE",
"300 359 OFFCURVE",
"300 335 CURVE SMOOTH",
"300 313 OFFCURVE",
"294 278 OFFCURVE",
"259 278 CURVE SMOOTH"
);
},
{
closed = 1;
nodes = (
"882 -140 OFFCURVE",
"909 -132 OFFCURVE",
"933 -115 CURVE",
"914 -112 OFFCURVE",
"918 25 OFFCURVE",
"918 201 CURVE SMOOTH",
"918 457 LINE SMOOTH",
"918 508 OFFCURVE",
"886 533 OFFCURVE",
"847 537 CURVE SMOOTH",
"799 542 OFFCURVE",
"763 515 OFFCURVE",
"749 503 CURVE",
"767 438 OFFCURVE",
"769 347 OFFCURVE",
"769 335 CURVE SMOOTH",
"769 -32 LINE SMOOTH",
"769 -121 OFFCURVE",
"800 -140 OFFCURVE",
"850 -140 CURVE SMOOTH"
);
}
);
width = 973;
}
);
unicode = 0B85;
},
{
glyphname = "ka-tamil";
lastChange = "2015-07-06 15:58:59 +0000";
layers = (
{
layerId = "EBFFFCD3-BAE4-48A5-9442-B72A90AD34A8";
name = Bold;
paths = (
{
closed = 1;
nodes = (
"699 519 OFFCURVE",
"659 520 OFFCURVE",
"578 520 CURVE SMOOTH",
"194 520 LINE SMOOTH",
"170 520 OFFCURVE",
"156 509 OFFCURVE",
"156 479 CURVE SMOOTH",
"156 301 LINE",
"200 299 LINE",
"200 454 LINE SMOOTH",
"200 468 OFFCURVE",
"208 471 OFFCURVE",
"217 471 CURVE SMOOTH",
"679 472 LINE SMOOTH",
"712 472 OFFCURVE",
"738 481 OFFCURVE",
"725 527 CURVE"
);
},
{
closed = 1;
nodes = (
"546 -33 OFFCURVE",
"602 -33 CURVE SMOOTH",
"720 -33 OFFCURVE",
"821 35 OFFCURVE",
"821 157 CURVE SMOOTH",
"821 276 OFFCURVE",
"724 344 OFFCURVE",
"531 344 CURVE SMOOTH",
"337 344 LINE SMOOTH",
"127 344 OFFCURVE",
"47 268 OFFCURVE",
"47 146 CURVE SMOOTH",
"47 55 OFFCURVE",
"92 -26 OFFCURVE",
"251 -26 CURVE SMOOTH",
"410 -26 OFFCURVE",
"526 56 OFFCURVE",
"526 214 CURVE SMOOTH",
"526 504 LINE",
"376 503 LINE",
"376 220 LINE SMOOTH",
"376 111 OFFCURVE",
"344 35 OFFCURVE",
"227 35 CURVE SMOOTH",
"159 35 OFFCURVE",
"103 71 OFFCURVE",
"103 153 CURVE SMOOTH",
"103 228 OFFCURVE",
"146 296 OFFCURVE",
"337 296 CURVE SMOOTH",
"526 296 LINE SMOOTH",
"636 296 OFFCURVE",
"670 255 OFFCURVE",
"670 163 CURVE SMOOTH",
"670 67 OFFCURVE",
"636 21 OFFCURVE",
"573 21 CURVE SMOOTH",
"557 21 OFFCURVE",
"554 24 OFFCURVE",
"531 30 CURVE",
"525 28 OFFCURVE",
"519 16 OFFCURVE",
"519 5 CURVE SMOOTH",
"519 -18 OFFCURVE"
);
}
);
width = 852;
},
{
associatedMasterId = "EBFFFCD3-BAE4-48A5-9442-B72A90AD34A8";
layerId = "D8F3D8D4-4C4C-4190-9D1E-9A572AA5A946";
name = "Bold Jul 6 15, 12:50";
paths = (
{
closed = 1;
nodes = (
"709 519 OFFCURVE",
"669 520 OFFCURVE",
"588 520 CURVE SMOOTH",
"204 520 LINE SMOOTH",
"180 520 OFFCURVE",
"166 509 OFFCURVE",
"166 479 CURVE SMOOTH",
"166 301 LINE",
"210 299 LINE",
"210 458 LINE SMOOTH",
"210 472 OFFCURVE",
"218 475 OFFCURVE",
"227 475 CURVE SMOOTH",
"689 476 LINE SMOOTH",
"722 476 OFFCURVE",
"748 485 OFFCURVE",
"735 527 CURVE"
);
},
{
closed = 1;
nodes = (
"554 -33 OFFCURVE",
"616 -33 CURVE SMOOTH",
"730 -33 OFFCURVE",
"831 34 OFFCURVE",
"831 167 CURVE SMOOTH",
"831 296 OFFCURVE",
"734 344 OFFCURVE",
"541 344 CURVE SMOOTH",
"347 344 LINE SMOOTH",
"139 344 OFFCURVE",
"57 268 OFFCURVE",
"57 149 CURVE SMOOTH",
"57 43 OFFCURVE",
"121 -26 OFFCURVE",
"252 -26 CURVE SMOOTH",
"425 -26 OFFCURVE",
"536 56 OFFCURVE",
"536 214 CURVE SMOOTH",
"536 504 LINE",
"386 503 LINE",
"386 220 LINE SMOOTH",
"386 90 OFFCURVE",
"341 25 OFFCURVE",
"236 25 CURVE SMOOTH",
"184 25 OFFCURVE",
"128 62 OFFCURVE",
"128 150 CURVE SMOOTH",
"128 237 OFFCURVE",
"157 301 OFFCURVE",
"347 301 CURVE SMOOTH",
"536 301 LINE SMOOTH",
"646 301 OFFCURVE",
"680 260 OFFCURVE",
"680 163 CURVE SMOOTH",
"680 67 OFFCURVE",
"650 21 OFFCURVE",
"601 21 CURVE SMOOTH",
"584 21 OFFCURVE",
"564 24 OFFCURVE",
"541 30 CURVE",
"535 28 OFFCURVE",
"529 16 OFFCURVE",
"529 5 CURVE SMOOTH",
"529 -18 OFFCURVE"
);
}
);
width = 882;
},
{
associatedMasterId = "60CFBDE8-BC08-4808-BF41-F011F3E03A54";
background = {
paths = (
{
closed = 1;
nodes = (
"563 499 OFFCURVE",
"523 500 OFFCURVE",
"502 500 CURVE SMOOTH",
"200 500 LINE SMOOTH",
"176 500 OFFCURVE",
"162 489 OFFCURVE",
"162 459 CURVE SMOOTH",
"162 280 LINE",
"192 278 LINE",
"192 456 LINE SMOOTH",
"192 470 OFFCURVE",
"200 473 OFFCURVE",
"209 473 CURVE SMOOTH",
"543 474 LINE SMOOTH",
"576 474 OFFCURVE",
"602 483 OFFCURVE",
"589 507 CURVE"
);
},
{
closed = 1;
nodes = (
"432 -8 OFFCURVE",
"481 -8 CURVE SMOOTH",
"598 -8 OFFCURVE",
"664 48 OFFCURVE",
"664 157 CURVE SMOOTH",
"664 258 OFFCURVE",
"608 306 OFFCURVE",
"459 306 CURVE SMOOTH",
"290 306 LINE SMOOTH",
"112 306 OFFCURVE",
"60 231 OFFCURVE",
"60 148 CURVE SMOOTH",
"60 49 OFFCURVE",
"134 0 OFFCURVE",
"216 0 CURVE SMOOTH",
"307 0 OFFCURVE",
"393 61 OFFCURVE",
"393 177 CURVE SMOOTH",
"393 484 LINE",
"363 483 LINE",
"363 174 LINE SMOOTH",
"363 73 OFFCURVE",
"288 26 OFFCURVE",
"214 26 CURVE SMOOTH",
"153 26 OFFCURVE",
"88 57 OFFCURVE",
"88 150 CURVE SMOOTH",
"88 238 OFFCURVE",
"147 280 OFFCURVE",
"292 280 CURVE SMOOTH",
"459 280 LINE SMOOTH",
"587 280 OFFCURVE",
"634 244 OFFCURVE",
"634 157 CURVE SMOOTH",
"634 66 OFFCURVE",
"582 17 OFFCURVE",
"477 17 CURVE SMOOTH",
"444 17 OFFCURVE",
"426 22 OFFCURVE",
"402 37 CURVE",
"396 34 OFFCURVE",
"390 28 OFFCURVE",
"390 21 CURVE SMOOTH",
"390 2 OFFCURVE"
);
}
);
};
layerId = "868DD1F2-2905-4D25-886B-D7CDAC917D3A";
name = "Light Jul 6 15, 12:50";
paths = (
{
closed = 1;
nodes = (
"563 499 OFFCURVE",
"523 500 OFFCURVE",
"502 500 CURVE SMOOTH",
"180 500 LINE SMOOTH",
"156 500 OFFCURVE",
"144 489 OFFCURVE",
"144 459 CURVE SMOOTH",
"144 280 LINE",
"172 278 LINE",
"172 456 LINE SMOOTH",
"172 470 OFFCURVE",
"180 473 OFFCURVE",
"189 473 CURVE SMOOTH",
"543 474 LINE SMOOTH",
"576 474 OFFCURVE",
"602 483 OFFCURVE",
"589 507 CURVE"
);
},
{
closed = 1;
nodes = (
"432 -8 OFFCURVE",
"482 -8 CURVE SMOOTH",
"598 -8 OFFCURVE",
"664 46 OFFCURVE",
"664 161 CURVE SMOOTH",
"664 269 OFFCURVE",
"605 306 OFFCURVE",
"425 306 CURVE SMOOTH",
"231 306 LINE SMOOTH",
"80 306 OFFCURVE",
"40 229 OFFCURVE",
"40 151 CURVE SMOOTH",
"40 49 OFFCURVE",
"109 0 OFFCURVE",
"201 0 CURVE SMOOTH",
"304 0 OFFCURVE",
"393 61 OFFCURVE",
"393 198 CURVE SMOOTH",
"393 484 LINE",
"363 483 LINE",
"363 201 LINE SMOOTH",
"363 73 OFFCURVE",
"290 26 OFFCURVE",
"203 26 CURVE SMOOTH",
"133 26 OFFCURVE",
"68 56 OFFCURVE",
"68 154 CURVE SMOOTH",
"68 238 OFFCURVE",
"116 280 OFFCURVE",
"231 280 CURVE SMOOTH",
"432 280 LINE SMOOTH",
"587 280 OFFCURVE",
"634 244 OFFCURVE",
"634 157 CURVE SMOOTH",
"634 66 OFFCURVE",
"582 17 OFFCURVE",
"477 17 CURVE SMOOTH",
"444 17 OFFCURVE",
"426 22 OFFCURVE",
"402 37 CURVE",
"396 34 OFFCURVE",
"390 28 OFFCURVE",
"390 21 CURVE SMOOTH",
"390 2 OFFCURVE"
);
}
);
width = 704;
},
{
associatedMasterId = "60CFBDE8-BC08-4808-BF41-F011F3E03A54";
background = {
paths = (
{
closed = 1;
nodes = (
"563 499 OFFCURVE",
"523 500 OFFCURVE",
"502 500 CURVE SMOOTH",
"200 500 LINE SMOOTH",
"176 500 OFFCURVE",
"162 489 OFFCURVE",
"162 459 CURVE SMOOTH",
"162 280 LINE",
"192 278 LINE",
"192 456 LINE SMOOTH",
"192 470 OFFCURVE",
"200 473 OFFCURVE",
"209 473 CURVE SMOOTH",
"543 474 LINE SMOOTH",
"576 474 OFFCURVE",
"602 483 OFFCURVE",
"589 507 CURVE"
);
},
{
closed = 1;
nodes = (
"432 -8 OFFCURVE",
"481 -8 CURVE SMOOTH",
"598 -8 OFFCURVE",
"664 48 OFFCURVE",
"664 157 CURVE SMOOTH",
"664 258 OFFCURVE",
"608 306 OFFCURVE",
"459 306 CURVE SMOOTH",
"290 306 LINE SMOOTH",
"112 306 OFFCURVE",
"60 231 OFFCURVE",
"60 148 CURVE SMOOTH",
"60 49 OFFCURVE",
"134 0 OFFCURVE",
"216 0 CURVE SMOOTH",
"307 0 OFFCURVE",
"393 61 OFFCURVE",
"393 177 CURVE SMOOTH",
"393 484 LINE",
"363 483 LINE",
"363 174 LINE SMOOTH",
"363 73 OFFCURVE",
"288 26 OFFCURVE",
"214 26 CURVE SMOOTH",
"153 26 OFFCURVE",
"88 57 OFFCURVE",
"88 150 CURVE SMOOTH",
"88 238 OFFCURVE",
"147 280 OFFCURVE",
"292 280 CURVE SMOOTH",
"459 280 LINE SMOOTH",
"587 280 OFFCURVE",
"634 244 OFFCURVE",
"634 157 CURVE SMOOTH",
"634 66 OFFCURVE",
"582 17 OFFCURVE",
"477 17 CURVE SMOOTH",
"444 17 OFFCURVE",
"426 22 OFFCURVE",
"402 37 CURVE",
"396 34 OFFCURVE",
"390 28 OFFCURVE",
"390 21 CURVE SMOOTH",
"390 2 OFFCURVE"
);
}
);
};
layerId = "F07599E9-75E9-40A6-B709-4BC3BF61B332";
name = "Light Jul 6 15, 12:50";
paths = (
{
closed = 1;
nodes = (
"563 499 OFFCURVE",
"523 500 OFFCURVE",
"502 500 CURVE SMOOTH",
"180 500 LINE SMOOTH",
"156 500 OFFCURVE",
"144 489 OFFCURVE",
"144 459 CURVE SMOOTH",
"144 280 LINE",
"172 278 LINE",
"172 456 LINE SMOOTH",
"172 470 OFFCURVE",
"180 473 OFFCURVE",
"189 473 CURVE SMOOTH",
"543 474 LINE SMOOTH",
"576 474 OFFCURVE",
"602 483 OFFCURVE",
"589 507 CURVE"
);
},
{
closed = 1;
nodes = (
"432 -8 OFFCURVE",
"482 -8 CURVE SMOOTH",
"598 -8 OFFCURVE",
"664 46 OFFCURVE",
"664 161 CURVE SMOOTH",
"664 269 OFFCURVE",
"605 306 OFFCURVE",
"425 306 CURVE SMOOTH",
"231 306 LINE SMOOTH",
"80 306 OFFCURVE",
"40 229 OFFCURVE",
"40 151 CURVE SMOOTH",
"40 49 OFFCURVE",
"109 0 OFFCURVE",
"201 0 CURVE SMOOTH",
"304 0 OFFCURVE",
"393 61 OFFCURVE",
"393 198 CURVE SMOOTH",
"393 484 LINE",
"363 483 LINE",
"363 201 LINE SMOOTH",
"363 73 OFFCURVE",
"290 26 OFFCURVE",
"203 26 CURVE SMOOTH",
"133 26 OFFCURVE",
"68 56 OFFCURVE",
"68 154 CURVE SMOOTH",
"68 238 OFFCURVE",
"116 280 OFFCURVE",
"231 280 CURVE SMOOTH",
"432 280 LINE SMOOTH",
"587 280 OFFCURVE",
"634 244 OFFCURVE",
"634 157 CURVE SMOOTH",
"634 66 OFFCURVE",
"582 17 OFFCURVE",
"477 17 CURVE SMOOTH",
"444 17 OFFCURVE",
"426 22 OFFCURVE",
"402 37 CURVE",
"396 34 OFFCURVE",
"390 28 OFFCURVE",
"390 21 CURVE SMOOTH",
"390 2 OFFCURVE"
);
}
);
width = 704;
},
{
associatedMasterId = "60CFBDE8-BC08-4808-BF41-F011F3E03A54";
background = {
paths = (
{
closed = 1;
nodes = (
"563 499 OFFCURVE",
"523 500 OFFCURVE",
"502 500 CURVE SMOOTH",
"200 500 LINE SMOOTH",
"176 500 OFFCURVE",
"162 489 OFFCURVE",
"162 459 CURVE SMOOTH",
"162 280 LINE",
"192 278 LINE",
"192 456 LINE SMOOTH",
"192 470 OFFCURVE",
"200 473 OFFCURVE",
"209 473 CURVE SMOOTH",
"543 474 LINE SMOOTH",
"576 474 OFFCURVE",
"602 483 OFFCURVE",
"589 507 CURVE"
);
},
{
closed = 1;
nodes = (
"432 -8 OFFCURVE",
"481 -8 CURVE SMOOTH",
"598 -8 OFFCURVE",
"664 48 OFFCURVE",
"664 157 CURVE SMOOTH",
"664 258 OFFCURVE",
"608 306 OFFCURVE",
"459 306 CURVE SMOOTH",
"290 306 LINE SMOOTH",
"112 306 OFFCURVE",
"60 231 OFFCURVE",
"60 148 CURVE SMOOTH",
"60 49 OFFCURVE",
"134 0 OFFCURVE",
"216 0 CURVE SMOOTH",
"307 0 OFFCURVE",
"393 61 OFFCURVE",
"393 177 CURVE SMOOTH",
"393 484 LINE",
"363 483 LINE",
"363 174 LINE SMOOTH",
"363 73 OFFCURVE",
"288 26 OFFCURVE",
"214 26 CURVE SMOOTH",
"153 26 OFFCURVE",
"88 57 OFFCURVE",
"88 150 CURVE SMOOTH",
"88 238 OFFCURVE",
"147 280 OFFCURVE",
"292 280 CURVE SMOOTH",
"459 280 LINE SMOOTH",
"587 280 OFFCURVE",
"634 244 OFFCURVE",
"634 157 CURVE SMOOTH",
"634 66 OFFCURVE",
"582 17 OFFCURVE",
"477 17 CURVE SMOOTH",
"444 17 OFFCURVE",
"426 22 OFFCURVE",
"402 37 CURVE",
"396 34 OFFCURVE",
"390 28 OFFCURVE",
"390 21 CURVE SMOOTH",
"390 2 OFFCURVE"
);
}
);
};
layerId = "5C18DB14-B556-4347-B0CA-588B1BDC51D6";
name = "Light Jul 6 15, 12:52";
paths = (
{
closed = 1;
nodes = (
"563 499 OFFCURVE",
"523 500 OFFCURVE",
"502 500 CURVE SMOOTH",
"180 500 LINE SMOOTH",
"156 500 OFFCURVE",
"144 489 OFFCURVE",
"144 459 CURVE SMOOTH",
"144 280 LINE",
"172 278 LINE",
"172 456 LINE SMOOTH",
"172 470 OFFCURVE",
"180 473 OFFCURVE",
"189 473 CURVE SMOOTH",
"543 474 LINE SMOOTH",
"576 474 OFFCURVE",
"602 483 OFFCURVE",
"589 507 CURVE"
);
},
{
closed = 1;
nodes = (
"432 -8 OFFCURVE",
"482 -8 CURVE SMOOTH",
"598 -8 OFFCURVE",
"664 45 OFFCURVE",
"664 149 CURVE SMOOTH",
"664 258 OFFCURVE",
"603 306 OFFCURVE",
"425 306 CURVE SMOOTH",
"231 306 LINE SMOOTH",
"80 306 OFFCURVE",
"40 229 OFFCURVE",
"40 151 CURVE SMOOTH",
"40 49 OFFCURVE",
"109 0 OFFCURVE",
"201 0 CURVE SMOOTH",
"304 0 OFFCURVE",
"393 61 OFFCURVE",
"393 198 CURVE SMOOTH",
"393 484 LINE",
"363 483 LINE",
"363 201 LINE SMOOTH",
"363 73 OFFCURVE",
"290 26 OFFCURVE",
"203 26 CURVE SMOOTH",
"133 26 OFFCURVE",
"68 56 OFFCURVE",
"68 154 CURVE SMOOTH",
"68 238 OFFCURVE",
"116 280 OFFCURVE",
"231 280 CURVE SMOOTH",
"432 280 LINE SMOOTH",
"585 280 OFFCURVE",
"634 233 OFFCURVE",
"634 145 CURVE SMOOTH",
"634 65 OFFCURVE",
"582 17 OFFCURVE",
"477 17 CURVE SMOOTH",
"444 17 OFFCURVE",
"426 22 OFFCURVE",
"402 37 CURVE",
"396 34 OFFCURVE",
"390 28 OFFCURVE",
"390 21 CURVE SMOOTH",
"390 2 OFFCURVE"
);
}
);
width = 704;
},
{
associatedMasterId = "60CFBDE8-BC08-4808-BF41-F011F3E03A54";
background = {
paths = (
{
closed = 1;
nodes = (
"563 499 OFFCURVE",
"523 500 OFFCURVE",
"502 500 CURVE SMOOTH",
"200 500 LINE SMOOTH",
"176 500 OFFCURVE",
"162 489 OFFCURVE",
"162 459 CURVE SMOOTH",
"162 280 LINE",
"192 278 LINE",
"192 456 LINE SMOOTH",
"192 470 OFFCURVE",
"200 473 OFFCURVE",
"209 473 CURVE SMOOTH",
"543 474 LINE SMOOTH",
"576 474 OFFCURVE",
"602 483 OFFCURVE",
"589 507 CURVE"
);
},
{
closed = 1;
nodes = (
"432 -8 OFFCURVE",
"481 -8 CURVE SMOOTH",
"598 -8 OFFCURVE",
"664 48 OFFCURVE",
"664 157 CURVE SMOOTH",
"664 258 OFFCURVE",
"608 306 OFFCURVE",
"459 306 CURVE SMOOTH",
"290 306 LINE SMOOTH",
"112 306 OFFCURVE",
"60 231 OFFCURVE",
"60 148 CURVE SMOOTH",
"60 49 OFFCURVE",
"134 0 OFFCURVE",
"216 0 CURVE SMOOTH",
"307 0 OFFCURVE",
"393 61 OFFCURVE",
"393 177 CURVE SMOOTH",
"393 484 LINE",
"363 483 LINE",
"363 174 LINE SMOOTH",
"363 73 OFFCURVE",
"288 26 OFFCURVE",
"214 26 CURVE SMOOTH",
"153 26 OFFCURVE",
"88 57 OFFCURVE",
"88 150 CURVE SMOOTH",
"88 238 OFFCURVE",
"147 280 OFFCURVE",
"292 280 CURVE SMOOTH",
"459 280 LINE SMOOTH",
"587 280 OFFCURVE",
"634 244 OFFCURVE",
"634 157 CURVE SMOOTH",
"634 66 OFFCURVE",
"582 17 OFFCURVE",
"477 17 CURVE SMOOTH",
"444 17 OFFCURVE",
"426 22 OFFCURVE",
"402 37 CURVE",
"396 34 OFFCURVE",
"390 28 OFFCURVE",
"390 21 CURVE SMOOTH",
"390 2 OFFCURVE"
);
}
);
};
layerId = "A7966F66-97A2-4A7D-B706-620279647ABD";
name = "Light Jul 6 15, 14:57";
paths = (
{
closed = 1;
nodes = (
"563 499 OFFCURVE",
"523 500 OFFCURVE",
"502 500 CURVE SMOOTH",
"180 500 LINE SMOOTH",
"156 500 OFFCURVE",
"144 489 OFFCURVE",
"144 459 CURVE SMOOTH",
"144 280 LINE",
"172 278 LINE",
"172 456 LINE SMOOTH",
"172 470 OFFCURVE",
"180 473 OFFCURVE",
"189 473 CURVE SMOOTH",
"543 474 LINE SMOOTH",
"576 474 OFFCURVE",
"602 483 OFFCURVE",
"589 507 CURVE"
);
},
{
closed = 1;
nodes = (
"476 -8 OFFCURVE",
"496 -8 CURVE SMOOTH",
"597 -8 OFFCURVE",
"664 45 OFFCURVE",
"664 149 CURVE SMOOTH",
"664 258 OFFCURVE",
"603 306 OFFCURVE",
"425 306 CURVE SMOOTH",
"231 306 LINE SMOOTH",
"80 306 OFFCURVE",
"40 229 OFFCURVE",
"40 151 CURVE SMOOTH",
"40 49 OFFCURVE",
"109 0 OFFCURVE",
"201 0 CURVE SMOOTH",
"304 0 OFFCURVE",
"393 61 OFFCURVE",
"393 198 CURVE SMOOTH",
"393 484 LINE",
"363 483 LINE",
"363 201 LINE SMOOTH",
"363 73 OFFCURVE",
"290 26 OFFCURVE",
"203 26 CURVE SMOOTH",
"133 26 OFFCURVE",
"68 56 OFFCURVE",
"68 154 CURVE SMOOTH",
"68 238 OFFCURVE",
"116 280 OFFCURVE",
"231 280 CURVE SMOOTH",
"432 280 LINE SMOOTH",
"585 280 OFFCURVE",
"634 233 OFFCURVE",
"634 145 CURVE SMOOTH",
"634 65 OFFCURVE",
"581 17 OFFCURVE",
"498 17 CURVE SMOOTH",
"470 17 OFFCURVE",
"452 22 OFFCURVE",
"428 37 CURVE",
"422 34 OFFCURVE",
"416 28 OFFCURVE",
"416 21 CURVE SMOOTH",
"416 0 OFFCURVE"
);
}
);
width = 704;
},
{
associatedMasterId = "60CFBDE8-BC08-4808-BF41-F011F3E03A54";
background = {
paths = (
{
closed = 1;
nodes = (
"563 499 OFFCURVE",
"523 500 OFFCURVE",
"502 500 CURVE SMOOTH",
"200 500 LINE SMOOTH",
"176 500 OFFCURVE",
"162 489 OFFCURVE",
"162 459 CURVE SMOOTH",
"162 280 LINE",
"192 278 LINE",
"192 456 LINE SMOOTH",
"192 470 OFFCURVE",
"200 473 OFFCURVE",
"209 473 CURVE SMOOTH",
"543 474 LINE SMOOTH",
"576 474 OFFCURVE",
"602 483 OFFCURVE",
"589 507 CURVE"
);
},
{
closed = 1;
nodes = (
"432 -8 OFFCURVE",
"481 -8 CURVE SMOOTH",
"598 -8 OFFCURVE",
"664 48 OFFCURVE",
"664 157 CURVE SMOOTH",
"664 258 OFFCURVE",
"608 306 OFFCURVE",
"459 306 CURVE SMOOTH",
"290 306 LINE SMOOTH",
"112 306 OFFCURVE",
"60 231 OFFCURVE",
"60 148 CURVE SMOOTH",
"60 49 OFFCURVE",
"134 0 OFFCURVE",
"216 0 CURVE SMOOTH",
"307 0 OFFCURVE",
"393 61 OFFCURVE",
"393 177 CURVE SMOOTH",
"393 484 LINE",
"363 483 LINE",
"363 174 LINE SMOOTH",
"363 73 OFFCURVE",
"288 26 OFFCURVE",
"214 26 CURVE SMOOTH",
"153 26 OFFCURVE",
"88 57 OFFCURVE",
"88 150 CURVE SMOOTH",
"88 238 OFFCURVE",
"147 280 OFFCURVE",
"292 280 CURVE SMOOTH",
"459 280 LINE SMOOTH",
"587 280 OFFCURVE",
"634 244 OFFCURVE",
"634 157 CURVE SMOOTH",
"634 66 OFFCURVE",
"582 17 OFFCURVE",
"477 17 CURVE SMOOTH",
"444 17 OFFCURVE",
"426 22 OFFCURVE",
"402 37 CURVE",
"396 34 OFFCURVE",
"390 28 OFFCURVE",
"390 21 CURVE SMOOTH",
"390 2 OFFCURVE"
);
}
);
};
layerId = "466F0B3E-3D50-4BB6-AE87-5AAB749F6D84";
name = "Light Jul 6 15, 15:04";
paths = (
{
closed = 1;
nodes = (
"563 499 OFFCURVE",
"523 500 OFFCURVE",
"502 500 CURVE SMOOTH",
"180 500 LINE SMOOTH",
"156 500 OFFCURVE",
"144 489 OFFCURVE",
"144 459 CURVE SMOOTH",
"144 280 LINE",
"172 278 LINE",
"172 456 LINE SMOOTH",
"172 470 OFFCURVE",
"180 473 OFFCURVE",
"189 473 CURVE SMOOTH",
"543 474 LINE SMOOTH",
"576 474 OFFCURVE",
"602 483 OFFCURVE",
"589 507 CURVE"
);
},
{
closed = 1;
nodes = (
"566 2 OFFCURVE",
"631 60 OFFCURVE",
"631 165 CURVE SMOOTH",
"631 254 OFFCURVE",
"574 306 OFFCURVE",
"423 306 CURVE SMOOTH",
"231 306 LINE SMOOTH",
"80 306 OFFCURVE",
"40 229 OFFCURVE",
"40 151 CURVE SMOOTH",
"40 49 OFFCURVE",
"109 0 OFFCURVE",
"201 0 CURVE SMOOTH",
"304 0 OFFCURVE",
"393 61 OFFCURVE",
"393 198 CURVE SMOOTH",
"393 484 LINE",
"363 483 LINE",
"363 201 LINE SMOOTH",
"363 73 OFFCURVE",
"290 26 OFFCURVE",
"203 26 CURVE SMOOTH",
"133 26 OFFCURVE",
"68 56 OFFCURVE",
"68 154 CURVE SMOOTH",
"68 238 OFFCURVE",
"116 280 OFFCURVE",
"231 280 CURVE SMOOTH",
"424 280 LINE SMOOTH",
"543 280 OFFCURVE",
"598 250 OFFCURVE",
"601 159 CURVE SMOOTH",
"603 93 OFFCURVE",
"556 26 OFFCURVE",
"482 28 CURVE",
"480 24 OFFCURVE",
"480 21 OFFCURVE",
"480 18 CURVE SMOOTH",
"480 9 OFFCURVE",
"485 2 OFFCURVE",
"499 2 CURVE SMOOTH"
);
}
);
width = 704;
},
{
background = {
paths = (
{
closed = 1;
nodes = (
"563 499 OFFCURVE",
"523 500 OFFCURVE",
"502 500 CURVE SMOOTH",
"200 500 LINE SMOOTH",
"176 500 OFFCURVE",
"162 489 OFFCURVE",
"162 459 CURVE SMOOTH",
"162 280 LINE",
"192 278 LINE",
"192 456 LINE SMOOTH",
"192 470 OFFCURVE",
"200 473 OFFCURVE",
"209 473 CURVE SMOOTH",
"543 474 LINE SMOOTH",
"576 474 OFFCURVE",
"602 483 OFFCURVE",
"589 507 CURVE"
);
},
{
closed = 1;
nodes = (
"432 -8 OFFCURVE",
"481 -8 CURVE SMOOTH",
"598 -8 OFFCURVE",
"664 48 OFFCURVE",
"664 157 CURVE SMOOTH",
"664 258 OFFCURVE",
"608 306 OFFCURVE",
"459 306 CURVE SMOOTH",
"290 306 LINE SMOOTH",
"112 306 OFFCURVE",
"60 231 OFFCURVE",
"60 148 CURVE SMOOTH",
"60 49 OFFCURVE",
"134 0 OFFCURVE",
"216 0 CURVE SMOOTH",
"307 0 OFFCURVE",
"393 61 OFFCURVE",
"393 177 CURVE SMOOTH",
"393 484 LINE",
"363 483 LINE",
"363 174 LINE SMOOTH",
"363 73 OFFCURVE",
"288 26 OFFCURVE",
"214 26 CURVE SMOOTH",
"153 26 OFFCURVE",
"88 57 OFFCURVE",
"88 150 CURVE SMOOTH",
"88 238 OFFCURVE",
"147 280 OFFCURVE",
"292 280 CURVE SMOOTH",
"459 280 LINE SMOOTH",
"587 280 OFFCURVE",
"634 244 OFFCURVE",
"634 157 CURVE SMOOTH",
"634 66 OFFCURVE",
"582 17 OFFCURVE",
"477 17 CURVE SMOOTH",
"444 17 OFFCURVE",
"426 22 OFFCURVE",
"402 37 CURVE",
"396 34 OFFCURVE",
"390 28 OFFCURVE",
"390 21 CURVE SMOOTH",
"390 2 OFFCURVE"
);
}
);
};
layerId = "60CFBDE8-BC08-4808-BF41-F011F3E03A54";
name = Light;
paths = (
{
closed = 1;
nodes = (
"563 499 OFFCURVE",
"523 500 OFFCURVE",
"502 500 CURVE SMOOTH",
"180 500 LINE SMOOTH",
"156 500 OFFCURVE",
"144 489 OFFCURVE",
"144 459 CURVE SMOOTH",
"144 280 LINE",
"172 278 LINE",
"172 456 LINE SMOOTH",
"172 470 OFFCURVE",
"180 473 OFFCURVE",
"189 473 CURVE SMOOTH",
"543 474 LINE SMOOTH",
"576 474 OFFCURVE",
"602 483 OFFCURVE",
"589 507 CURVE"
);
},
{
closed = 1;
nodes = (
"466 12 OFFCURVE",
"499 12 CURVE SMOOTH",
"584 12 OFFCURVE",
"646 63 OFFCURVE",
"646 160 CURVE SMOOTH",
"646 253 OFFCURVE",
"589 306 OFFCURVE",
"464 306 CURVE SMOOTH",
"231 306 LINE SMOOTH",
"80 306 OFFCURVE",
"40 229 OFFCURVE",
"40 151 CURVE SMOOTH",
"40 49 OFFCURVE",
"109 0 OFFCURVE",
"201 0 CURVE SMOOTH",
"304 0 OFFCURVE",
"393 61 OFFCURVE",
"393 198 CURVE SMOOTH",
"393 484 LINE",
"363 483 LINE",
"363 201 LINE SMOOTH",
"363 73 OFFCURVE",
"290 26 OFFCURVE",
"203 26 CURVE SMOOTH",
"133 26 OFFCURVE",
"68 56 OFFCURVE",
"68 154 CURVE SMOOTH",
"68 238 OFFCURVE",
"116 280 OFFCURVE",
"231 280 CURVE SMOOTH",
"459 280 LINE SMOOTH",
"575 280 OFFCURVE",
"616 233 OFFCURVE",
"616 157 CURVE SMOOTH",
"616 81 OFFCURVE",
"576 37 OFFCURVE",
"498 37 CURVE SMOOTH",
"472 37 OFFCURVE",
"452 42 OFFCURVE",
"428 57 CURVE",
"422 54 OFFCURVE",
"416 48 OFFCURVE",
"416 41 CURVE SMOOTH",
"416 20 OFFCURVE"
);
}
);
width = 704;
},
{
associatedMasterId = "EBFFFCD3-BAE4-48A5-9442-B72A90AD34A8";
layerId = "F56790B5-BF1D-4BFB-97AC-2D476B27E94A";
name = "Bold Jul 6 15, 15:20";
paths = (
{
closed = 1;
nodes = (
"699 519 OFFCURVE",
"659 520 OFFCURVE",
"578 520 CURVE SMOOTH",
"194 520 LINE SMOOTH",
"170 520 OFFCURVE",
"156 509 OFFCURVE",
"156 479 CURVE SMOOTH",
"156 301 LINE",
"200 299 LINE",
"200 458 LINE SMOOTH",
"200 472 OFFCURVE",
"208 475 OFFCURVE",
"217 475 CURVE SMOOTH",
"679 476 LINE SMOOTH",
"712 476 OFFCURVE",
"738 485 OFFCURVE",
"725 527 CURVE"
);
},
{
closed = 1;
nodes = (
"546 -33 OFFCURVE",
"602 -33 CURVE SMOOTH",
"720 -33 OFFCURVE",
"821 35 OFFCURVE",
"821 157 CURVE SMOOTH",
"821 276 OFFCURVE",
"724 344 OFFCURVE",
"531 344 CURVE SMOOTH",
"337 344 LINE SMOOTH",
"127 344 OFFCURVE",
"47 268 OFFCURVE",
"47 146 CURVE SMOOTH",
"47 55 OFFCURVE",
"92 -26 OFFCURVE",
"251 -26 CURVE SMOOTH",
"410 -26 OFFCURVE",
"526 56 OFFCURVE",
"526 214 CURVE SMOOTH",
"526 504 LINE",
"376 503 LINE",
"376 220 LINE SMOOTH",
"376 90 OFFCURVE",
"344 25 OFFCURVE",
"238 25 CURVE SMOOTH",
"159 25 OFFCURVE",
"103 61 OFFCURVE",
"103 153 CURVE SMOOTH",
"103 233 OFFCURVE",
"146 301 OFFCURVE",
"337 301 CURVE SMOOTH",
"526 301 LINE SMOOTH",
"636 301 OFFCURVE",
"670 260 OFFCURVE",
"670 163 CURVE SMOOTH",
"670 67 OFFCURVE",
"636 21 OFFCURVE",
"573 21 CURVE SMOOTH",
"557 21 OFFCURVE",
"554 24 OFFCURVE",
"531 30 CURVE",
"525 28 OFFCURVE",
"519 16 OFFCURVE",
"519 5 CURVE SMOOTH",
"519 -18 OFFCURVE"
);
}
);
width = 852;
}
);
unicode = 0B95;
},
{
glyphname = "nnna-tamil";
lastChange = "2015-07-06 15:58:59 +0000";
layers = (
{
layerId = "60CFBDE8-BC08-4808-BF41-F011F3E03A54";
name = Light;
paths = (
{
closed = 1;
nodes = (
"319 -10 OFFCURVE",
"395 31 OFFCURVE",
"395 124 CURVE SMOOTH",
"395 207 OFFCURVE",
"347 253 OFFCURVE",
"275 253 CURVE SMOOTH",
"204 253 OFFCURVE",
"155 199 OFFCURVE",
"155 125 CURVE SMOOTH",
"155 93 OFFCURVE",
"166 41 OFFCURVE",
"210 19 CURVE",
"146 29 OFFCURVE",
"88 88 OFFCURVE",
"88 210 CURVE SMOOTH",
"88 408 OFFCURVE",
"245 477 OFFCURVE",
"385 477 CURVE SMOOTH",
"565 477 OFFCURVE",
"707 380 OFFCURVE",
"707 203 CURVE SMOOTH",
"707 90 OFFCURVE",
"661 15 OFFCURVE",
"588 15 CURVE SMOOTH",
"516 15 OFFCURVE",
"478 79 OFFCURVE",
"478 184 CURVE SMOOTH",
"478 360 OFFCURVE",
"610 474 OFFCURVE",
"779 474 CURVE SMOOTH",
"933 474 LINE SMOOTH",
"966 474 OFFCURVE",
"992 483 OFFCURVE",
"979 507 CURVE",
"953 499 OFFCURVE",
"913 500 OFFCURVE",
"892 500 CURVE SMOOTH",
"789 500 LINE SMOOTH",
"579 500 OFFCURVE",
"451 360 OFFCURVE",
"451 178 CURVE SMOOTH",
"451 74 OFFCURVE",
"493 -10 OFFCURVE",
"585 -10 CURVE SMOOTH",
"683 -10 OFFCURVE",
"737 86 OFFCURVE",
"737 206 CURVE SMOOTH",
"737 390 OFFCURVE",
"584 504 OFFCURVE",
"382 504 CURVE SMOOTH",
"208 504 OFFCURVE",
"60 407 OFFCURVE",
"60 206 CURVE SMOOTH",
"60 57 OFFCURVE",
"142 -10 OFFCURVE",
"243 -10 CURVE SMOOTH"
);
},
{
closed = 1;
nodes = (
"221 23 OFFCURVE",
"181 59 OFFCURVE",
"181 122 CURVE SMOOTH",
"181 178 OFFCURVE",
"212 224 OFFCURVE",
"275 224 CURVE SMOOTH",
"339 224 OFFCURVE",
"365 176 OFFCURVE",
"365 125 CURVE SMOOTH",
"365 64 OFFCURVE",
"329 23 OFFCURVE",
"268 23 CURVE SMOOTH"
);
},
{
closed = 1;
nodes = (
"864 -13 OFFCURVE",
"875 -12 OFFCURVE",
"881 -1 CURVE",
"875 9 OFFCURVE",
"876 36 OFFCURVE",
"876 68 CURVE SMOOTH",
"875 480 LINE",
"844 486 LINE",
"845 27 LINE SMOOTH",
"845 3 OFFCURVE",
"846 -13 OFFCURVE",
"861 -13 CURVE SMOOTH"
);
}
);
width = 951;
},
{
layerId = "EBFFFCD3-BAE4-48A5-9442-B72A90AD34A8";
name = Bold;
paths = (
{
closed = 1;
nodes = (
"390 -11 OFFCURVE",
"484 30 OFFCURVE",
"484 150 CURVE SMOOTH",
"484 236 OFFCURVE",
"434 304 OFFCURVE",
"323 304 CURVE SMOOTH",
"225 304 OFFCURVE",
"173 242 OFFCURVE",
"173 154 CURVE SMOOTH",
"173 130 OFFCURVE",
"179 60 OFFCURVE",
"212 33 CURVE",
"151 45 OFFCURVE",
"103 117 OFFCURVE",
"103 220 CURVE SMOOTH",
"103 421 OFFCURVE",
"280 491 OFFCURVE",
"437 491 CURVE SMOOTH",
"565 491 OFFCURVE",
"738 427 OFFCURVE",
"738 199 CURVE SMOOTH",
"738 132 OFFCURVE",
"738 34 OFFCURVE",
"664 34 CURVE SMOOTH",
"619 34 OFFCURVE",
"592 87 OFFCURVE",
"592 188 CURVE SMOOTH",
"592 439 OFFCURVE",
"795 472 OFFCURVE",
"942 472 CURVE SMOOTH",
"1235 472 LINE SMOOTH",
"1268 472 OFFCURVE",
"1294 481 OFFCURVE",
"1281 527 CURVE",
"1255 519 OFFCURVE",
"1222 520 OFFCURVE",
"1141 520 CURVE SMOOTH",
"955 520 LINE SMOOTH",
"699 520 OFFCURVE",
"540 416 OFFCURVE",
"540 188 CURVE SMOOTH",
"540 58 OFFCURVE",
"582 -10 OFFCURVE",
"691 -10 CURVE SMOOTH",
"824 -10 OFFCURVE",
"889 88 OFFCURVE",
"889 199 CURVE SMOOTH",
"889 400 OFFCURVE",
"724 535 OFFCURVE",
"442 535 CURVE SMOOTH",
"227 535 OFFCURVE",
"50 430 OFFCURVE",
"50 218 CURVE SMOOTH",
"50 67 OFFCURVE",
"156 -11 OFFCURVE",
"287 -11 CURVE SMOOTH"
);
},
{
closed = 1;
nodes = (
"246 33 OFFCURVE",
"225 71 OFFCURVE",
"225 141 CURVE SMOOTH",
"225 204 OFFCURVE",
"246 247 OFFCURVE",
"286 247 CURVE SMOOTH",
"333 247 OFFCURVE",
"344 202 OFFCURVE",
"344 133 CURVE SMOOTH",
"344 68 OFFCURVE",
"321 33 OFFCURVE",
"282 33 CURVE SMOOTH"
);
},
{
closed = 1;
nodes = (
"1101 -29 OFFCURVE",
"1129 -21 OFFCURVE",
"1153 -4 CURVE",
"1134 5 OFFCURVE",
"1136 57 OFFCURVE",
"1135 143 CURVE SMOOTH",
"1132 487 LINE",
"986 481 LINE",
"986 79 LINE SMOOTH",
"986 -10 OFFCURVE",
"1017 -29 OFFCURVE",
"1068 -29 CURVE SMOOTH"
);
}
);
width = 1319;
},
{
associatedMasterId = "60CFBDE8-BC08-4808-BF41-F011F3E03A54";
layerId = "F00272B4-80B0-4CED-B8C1-4EA293F162F2";
name = "Light Jul 6 15, 15:55";
paths = (
{
closed = 1;
nodes = (
"297 -10 OFFCURVE",
"351 14 OFFCURVE",
"351 88 CURVE SMOOTH",
"351 147 OFFCURVE",
"316 189 OFFCURVE",
"259 189 CURVE SMOOTH",
"204 189 OFFCURVE",
"169 151 OFFCURVE",
"169 95 CURVE SMOOTH",
"169 76 OFFCURVE",
"173 35 OFFCURVE",
"208 19 CURVE",
"141 31 OFFCURVE",
"88 92 OFFCURVE",
"88 215 CURVE SMOOTH",
"88 405 OFFCURVE",
"235 477 OFFCURVE",
"363 477 CURVE SMOOTH",
"532 477 OFFCURVE",
"646 380 OFFCURVE",
"646 203 CURVE SMOOTH",
"646 90 OFFCURVE",
"600 15 OFFCURVE",
"527 15 CURVE SMOOTH",
"455 15 OFFCURVE",
"417 88 OFFCURVE",
"417 184 CURVE SMOOTH",
"417 360 OFFCURVE",
"543 474 OFFCURVE",
"712 474 CURVE SMOOTH",
"872 474 LINE SMOOTH",
"905 474 OFFCURVE",
"931 483 OFFCURVE",
"918 507 CURVE",
"892 499 OFFCURVE",
"852 500 OFFCURVE",
"831 500 CURVE SMOOTH",
"728 500 LINE SMOOTH",
"518 500 OFFCURVE",
"390 360 OFFCURVE",
"390 178 CURVE SMOOTH",
"390 74 OFFCURVE",
"432 -10 OFFCURVE",
"524 -10 CURVE SMOOTH",
"622 -10 OFFCURVE",
"676 86 OFFCURVE",
"676 206 CURVE SMOOTH",
"676 390 OFFCURVE",
"548 504 OFFCURVE",
"365 504 CURVE SMOOTH",
"199 504 OFFCURVE",
"60 405 OFFCURVE",
"60 212 CURVE SMOOTH",
"60 56 OFFCURVE",
"142 -10 OFFCURVE",
"239 -10 CURVE SMOOTH"
);
},
{
closed = 1;
nodes = (
"803 -13 OFFCURVE",
"814 -12 OFFCURVE",
"820 -1 CURVE",
"814 9 OFFCURVE",
"815 38 OFFCURVE",
"815 68 CURVE SMOOTH",
"814 480 LINE",
"783 486 LINE",
"784 27 LINE SMOOTH",
"784 3 OFFCURVE",
"785 -13 OFFCURVE",
"800 -13 CURVE SMOOTH"
);
},
{
closed = 1;
nodes = (
"321 55 OFFCURVE",
"301 25 OFFCURVE",
"262 23 CURVE SMOOTH",
"224 21 OFFCURVE",
"195 47 OFFCURVE",
"195 92 CURVE SMOOTH",
"195 131 OFFCURVE",
"217 160 OFFCURVE",
"261 160 CURVE SMOOTH",
"305 160 OFFCURVE",
"321 131 OFFCURVE",
"321 95 CURVE SMOOTH"
);
}
);
width = 951;
},
{
associatedMasterId = "EBFFFCD3-BAE4-48A5-9442-B72A90AD34A8";
layerId = "65252BE8-4502-4F1C-BE07-7801A2EF5E5F";
name = "Bold Jul 6 15, 15:55";
paths = (
{
closed = 1;
nodes = (
"297 -10 OFFCURVE",
"351 14 OFFCURVE",
"351 88 CURVE SMOOTH",
"351 147 OFFCURVE",
"316 189 OFFCURVE",
"259 189 CURVE SMOOTH",
"204 189 OFFCURVE",
"169 151 OFFCURVE",
"169 95 CURVE SMOOTH",
"169 76 OFFCURVE",
"173 35 OFFCURVE",
"208 19 CURVE",
"141 31 OFFCURVE",
"88 92 OFFCURVE",
"88 215 CURVE SMOOTH",
"88 405 OFFCURVE",
"235 477 OFFCURVE",
"363 477 CURVE SMOOTH",
"532 477 OFFCURVE",
"646 380 OFFCURVE",
"646 203 CURVE SMOOTH",
"646 90 OFFCURVE",
"600 15 OFFCURVE",
"527 15 CURVE SMOOTH",
"455 15 OFFCURVE",
"417 88 OFFCURVE",
"417 184 CURVE SMOOTH",
"417 360 OFFCURVE",
"543 474 OFFCURVE",
"712 474 CURVE SMOOTH",
"872 474 LINE SMOOTH",
"905 474 OFFCURVE",
"931 483 OFFCURVE",
"918 507 CURVE",
"892 499 OFFCURVE",
"852 500 OFFCURVE",
"831 500 CURVE SMOOTH",
"728 500 LINE SMOOTH",
"518 500 OFFCURVE",
"390 360 OFFCURVE",
"390 178 CURVE SMOOTH",
"390 74 OFFCURVE",
"432 -10 OFFCURVE",
"524 -10 CURVE SMOOTH",
"622 -10 OFFCURVE",
"676 86 OFFCURVE",
"676 206 CURVE SMOOTH",
"676 390 OFFCURVE",
"548 504 OFFCURVE",
"365 504 CURVE SMOOTH",
"199 504 OFFCURVE",
"60 405 OFFCURVE",
"60 212 CURVE SMOOTH",
"60 56 OFFCURVE",
"142 -10 OFFCURVE",
"239 -10 CURVE SMOOTH"
);
},
{
closed = 1;
nodes = (
"803 -13 OFFCURVE",
"814 -12 OFFCURVE",
"820 -1 CURVE",
"814 9 OFFCURVE",
"815 38 OFFCURVE",
"815 68 CURVE SMOOTH",
"814 480 LINE",
"783 486 LINE",
"784 27 LINE SMOOTH",
"784 3 OFFCURVE",
"785 -13 OFFCURVE",
"800 -13 CURVE SMOOTH"
);
},
{
closed = 1;
nodes = (
"321 55 OFFCURVE",
"301 25 OFFCURVE",
"262 23 CURVE SMOOTH",
"224 21 OFFCURVE",
"195 47 OFFCURVE",
"195 92 CURVE SMOOTH",
"195 131 OFFCURVE",
"217 160 OFFCURVE",
"261 160 CURVE SMOOTH",
"305 160 OFFCURVE",
"321 131 OFFCURVE",
"321 95 CURVE SMOOTH"
);
}
);
width = 911;
}
);
unicode = 0BA9;
},
{
glyphname = "ta-tamil";
lastChange = "2015-07-06 15:58:59 +0000";
layers = (
{
background = {
paths = (
{
closed = 1;
nodes = (
"709 519 OFFCURVE",
"669 520 OFFCURVE",
"588 520 CURVE SMOOTH",
"204 520 LINE SMOOTH",
"180 520 OFFCURVE",
"166 509 OFFCURVE",
"166 479 CURVE SMOOTH",
"166 301 LINE",
"210 299 LINE",
"210 458 LINE SMOOTH",
"210 472 OFFCURVE",
"218 475 OFFCURVE",
"227 475 CURVE SMOOTH",
"689 476 LINE SMOOTH",
"722 476 OFFCURVE",
"748 485 OFFCURVE",
"735 527 CURVE"
);
},
{
closed = 1;
nodes = (
"693 -114 OFFCURVE",
"831 -55 OFFCURVE",
"831 135 CURVE SMOOTH",
"831 291 OFFCURVE",
"737 344 OFFCURVE",
"541 344 CURVE SMOOTH",
"347 344 LINE SMOOTH",
"137 344 OFFCURVE",
"57 268 OFFCURVE",
"57 146 CURVE SMOOTH",
"57 55 OFFCURVE",
"102 -26 OFFCURVE",
"261 -26 CURVE SMOOTH",
"420 -26 OFFCURVE",
"536 56 OFFCURVE",
"536 214 CURVE SMOOTH",
"536 504 LINE",
"386 503 LINE",
"386 220 LINE SMOOTH",
"386 90 OFFCURVE",
"354 25 OFFCURVE",
"248 25 CURVE SMOOTH",
"169 25 OFFCURVE",
"113 61 OFFCURVE",
"113 153 CURVE SMOOTH",
"113 233 OFFCURVE",
"156 301 OFFCURVE",
"347 301 CURVE SMOOTH",
"536 301 LINE SMOOTH",
"643 301 OFFCURVE",
"680 260 OFFCURVE",
"680 139 CURVE SMOOTH",
"680 -23 OFFCURVE",
"614 -63 OFFCURVE",
"483 -63 CURVE SMOOTH",
"303 -63 LINE SMOOTH",
"165 -63 OFFCURVE",
"99 -109 OFFCURVE",
"99 -184 CURVE SMOOTH",
"99 -219 OFFCURVE",
"113 -259 OFFCURVE",
"167 -259 CURVE SMOOTH",
"207 -259 OFFCURVE",
"232 -237 OFFCURVE",
"236 -211 CURVE",
"215 -187 OFFCURVE",
"212 -176 OFFCURVE",
"214 -159 CURVE SMOOTH",
"216 -140 OFFCURVE",
"226 -114 OFFCURVE",
"295 -114 CURVE SMOOTH",
"488 -114 LINE SMOOTH"
);
}
);
};
layerId = "60CFBDE8-BC08-4808-BF41-F011F3E03A54";
name = Light;
paths = (
{
closed = 1;
nodes = (
"180 -226 OFFCURVE",
"189 -214 OFFCURVE",
"190 -204 CURVE",
"174 -202 OFFCURVE",
"172 -179 OFFCURVE",
"172 -171 CURVE SMOOTH",
"172 -100 OFFCURVE",
"264 -85 OFFCURVE",
"334 -85 CURVE SMOOTH",
"429 -85 LINE SMOOTH",
"593 -85 OFFCURVE",
"654 10 OFFCURVE",
"654 126 CURVE SMOOTH",
"654 241 OFFCURVE",
"593 306 OFFCURVE",
"472 306 CURVE SMOOTH",
"231 306 LINE SMOOTH",
"80 306 OFFCURVE",
"40 229 OFFCURVE",
"40 151 CURVE SMOOTH",
"40 49 OFFCURVE",
"109 0 OFFCURVE",
"201 0 CURVE SMOOTH",
"304 0 OFFCURVE",
"393 61 OFFCURVE",
"393 198 CURVE SMOOTH",
"393 484 LINE",
"363 483 LINE",
"363 201 LINE SMOOTH",
"363 73 OFFCURVE",
"290 26 OFFCURVE",
"203 26 CURVE SMOOTH",
"133 26 OFFCURVE",
"68 56 OFFCURVE",
"68 154 CURVE SMOOTH",
"68 238 OFFCURVE",
"116 280 OFFCURVE",
"231 280 CURVE SMOOTH",
"479 280 LINE SMOOTH",
"571 280 OFFCURVE",
"624 231 OFFCURVE",
"624 129 CURVE SMOOTH",
"624 32 OFFCURVE",
"577 -58 OFFCURVE",
"431 -58 CURVE SMOOTH",
"323 -58 LINE SMOOTH",
"209 -58 OFFCURVE",
"138 -100 OFFCURVE",
"138 -182 CURVE SMOOTH",
"138 -207 OFFCURVE",
"146 -226 OFFCURVE",
"166 -226 CURVE SMOOTH"
);
},
{
closed = 1;
nodes = (
"172 456 LINE SMOOTH",
"172 470 OFFCURVE",
"180 473 OFFCURVE",
"189 473 CURVE SMOOTH",
"543 474 LINE SMOOTH",
"576 474 OFFCURVE",
"602 483 OFFCURVE",
"589 507 CURVE",
"563 499 OFFCURVE",
"523 500 OFFCURVE",
"502 500 CURVE SMOOTH",
"180 500 LINE SMOOTH",
"156 500 OFFCURVE",
"144 489 OFFCURVE",
"144 459 CURVE SMOOTH",
"144 280 LINE",
"172 278 LINE"
);
}
);
width = 704;
},
{
layerId = "EBFFFCD3-BAE4-48A5-9442-B72A90AD34A8";
name = Bold;
paths = (
{
closed = 1;
nodes = (
"187 -299 OFFCURVE",
"212 -277 OFFCURVE",
"216 -251 CURVE",
"195 -227 OFFCURVE",
"192 -216 OFFCURVE",
"194 -199 CURVE SMOOTH",
"196 -180 OFFCURVE",
"206 -154 OFFCURVE",
"275 -154 CURVE SMOOTH",
"409 -154 LINE SMOOTH",
"665 -154 OFFCURVE",
"811 -95 OFFCURVE",
"811 110 CURVE SMOOTH",
"811 269 OFFCURVE",
"723 344 OFFCURVE",
"521 344 CURVE SMOOTH",
"327 344 LINE SMOOTH",
"117 344 OFFCURVE",
"37 268 OFFCURVE",
"37 146 CURVE SMOOTH",
"37 55 OFFCURVE",
"82 -26 OFFCURVE",
"241 -26 CURVE SMOOTH",
"400 -26 OFFCURVE",
"516 56 OFFCURVE",
"516 214 CURVE SMOOTH",
"516 504 LINE",
"366 503 LINE",
"366 220 LINE SMOOTH",
"366 100 OFFCURVE",
"334 35 OFFCURVE",
"228 35 CURVE SMOOTH",
"148 35 OFFCURVE",
"93 71 OFFCURVE",
"93 154 CURVE SMOOTH",
"93 228 OFFCURVE",
"137 296 OFFCURVE",
"327 296 CURVE SMOOTH",
"493 296 LINE SMOOTH",
"637 296 OFFCURVE",
"660 232 OFFCURVE",
"660 132 CURVE SMOOTH",
"660 -36 OFFCURVE",
"595 -103 OFFCURVE",
"389 -103 CURVE SMOOTH",
"283 -103 LINE SMOOTH",
"145 -103 OFFCURVE",
"79 -149 OFFCURVE",
"79 -224 CURVE SMOOTH",
"79 -259 OFFCURVE",
"93 -299 OFFCURVE",
"147 -299 CURVE SMOOTH"
);
},
{
closed = 1;
nodes = (
"190 458 LINE SMOOTH",
"190 472 OFFCURVE",
"198 475 OFFCURVE",
"207 475 CURVE SMOOTH",
"669 476 LINE SMOOTH",
"702 476 OFFCURVE",
"728 485 OFFCURVE",
"715 527 CURVE",
"689 519 OFFCURVE",
"649 520 OFFCURVE",
"568 520 CURVE SMOOTH",
"184 520 LINE SMOOTH",
"160 520 OFFCURVE",
"146 509 OFFCURVE",
"146 479 CURVE SMOOTH",
"146 301 LINE",
"190 299 LINE"
);
}
);
width = 861;
},
{
associatedMasterId = "EBFFFCD3-BAE4-48A5-9442-B72A90AD34A8";
layerId = "73645954-2754-4549-BA68-E25B0F047F4C";
name = "Bold Jul 6 15, 14:51";
paths = (
{
closed = 1;
nodes = (
"207 -259 OFFCURVE",
"232 -237 OFFCURVE",
"236 -211 CURVE",
"215 -187 OFFCURVE",
"212 -176 OFFCURVE",
"214 -159 CURVE SMOOTH",
"216 -140 OFFCURVE",
"226 -114 OFFCURVE",
"295 -114 CURVE SMOOTH",
"488 -114 LINE SMOOTH",
"693 -114 OFFCURVE",
"831 -55 OFFCURVE",
"831 135 CURVE SMOOTH",
"831 291 OFFCURVE",
"737 344 OFFCURVE",
"541 344 CURVE SMOOTH",
"347 344 LINE SMOOTH",
"137 344 OFFCURVE",
"57 268 OFFCURVE",
"57 146 CURVE SMOOTH",
"57 55 OFFCURVE",
"102 -26 OFFCURVE",
"261 -26 CURVE SMOOTH",
"420 -26 OFFCURVE",
"536 56 OFFCURVE",
"536 214 CURVE SMOOTH",
"536 504 LINE",
"386 503 LINE",
"386 220 LINE SMOOTH",
"386 90 OFFCURVE",
"354 25 OFFCURVE",
"248 25 CURVE SMOOTH",
"169 25 OFFCURVE",
"113 61 OFFCURVE",
"113 153 CURVE SMOOTH",
"113 233 OFFCURVE",
"156 301 OFFCURVE",
"347 301 CURVE SMOOTH",
"536 301 LINE SMOOTH",
"643 301 OFFCURVE",
"680 260 OFFCURVE",
"680 139 CURVE SMOOTH",
"680 -23 OFFCURVE",
"614 -63 OFFCURVE",
"483 -63 CURVE SMOOTH",
"303 -63 LINE SMOOTH",
"165 -63 OFFCURVE",
"99 -109 OFFCURVE",
"99 -184 CURVE SMOOTH",
"99 -219 OFFCURVE",
"113 -259 OFFCURVE",
"167 -259 CURVE SMOOTH"
);
},
{
closed = 1;
nodes = (
"210 458 LINE SMOOTH",
"210 472 OFFCURVE",
"218 475 OFFCURVE",
"227 475 CURVE SMOOTH",
"689 476 LINE SMOOTH",
"722 476 OFFCURVE",
"748 485 OFFCURVE",
"735 527 CURVE",
"709 519 OFFCURVE",
"669 520 OFFCURVE",
"588 520 CURVE SMOOTH",
"204 520 LINE SMOOTH",
"180 520 OFFCURVE",
"166 509 OFFCURVE",
"166 479 CURVE SMOOTH",
"166 301 LINE",
"210 299 LINE"
);
}
);
width = 861;
},
{
associatedMasterId = "60CFBDE8-BC08-4808-BF41-F011F3E03A54";
background = {
paths = (
{
closed = 1;
nodes = (
"709 519 OFFCURVE",
"669 520 OFFCURVE",
"588 520 CURVE SMOOTH",
"204 520 LINE SMOOTH",
"180 520 OFFCURVE",
"166 509 OFFCURVE",
"166 479 CURVE SMOOTH",
"166 301 LINE",
"210 299 LINE",
"210 458 LINE SMOOTH",
"210 472 OFFCURVE",
"218 475 OFFCURVE",
"227 475 CURVE SMOOTH",
"689 476 LINE SMOOTH",
"722 476 OFFCURVE",
"748 485 OFFCURVE",
"735 527 CURVE"
);
},
{
closed = 1;
nodes = (
"693 -114 OFFCURVE",
"831 -55 OFFCURVE",
"831 135 CURVE SMOOTH",
"831 291 OFFCURVE",
"737 344 OFFCURVE",
"541 344 CURVE SMOOTH",
"347 344 LINE SMOOTH",
"137 344 OFFCURVE",
"57 268 OFFCURVE",
"57 146 CURVE SMOOTH",
"57 55 OFFCURVE",
"102 -26 OFFCURVE",
"261 -26 CURVE SMOOTH",
"420 -26 OFFCURVE",
"536 56 OFFCURVE",
"536 214 CURVE SMOOTH",
"536 504 LINE",
"386 503 LINE",
"386 220 LINE SMOOTH",
"386 90 OFFCURVE",
"354 25 OFFCURVE",
"248 25 CURVE SMOOTH",
"169 25 OFFCURVE",
"113 61 OFFCURVE",
"113 153 CURVE SMOOTH",
"113 233 OFFCURVE",
"156 301 OFFCURVE",
"347 301 CURVE SMOOTH",
"536 301 LINE SMOOTH",
"643 301 OFFCURVE",
"680 260 OFFCURVE",
"680 139 CURVE SMOOTH",
"680 -23 OFFCURVE",
"614 -63 OFFCURVE",
"483 -63 CURVE SMOOTH",
"303 -63 LINE SMOOTH",
"165 -63 OFFCURVE",
"99 -109 OFFCURVE",
"99 -184 CURVE SMOOTH",
"99 -219 OFFCURVE",
"113 -259 OFFCURVE",
"167 -259 CURVE SMOOTH",
"207 -259 OFFCURVE",
"232 -237 OFFCURVE",
"236 -211 CURVE",
"215 -187 OFFCURVE",
"212 -176 OFFCURVE",
"214 -159 CURVE SMOOTH",
"216 -140 OFFCURVE",
"226 -114 OFFCURVE",
"295 -114 CURVE SMOOTH",
"488 -114 LINE SMOOTH"
);
}
);
};
layerId = "EE6B07C7-580D-487E-9088-864BC78BDD97";
name = "Light Jul 6 15, 15:03";
paths = (
{
closed = 1;
nodes = (
"186 -235 OFFCURVE",
"196 -229 OFFCURVE",
"200 -208 CURVE",
"181 -203 OFFCURVE",
"176 -179 OFFCURVE",
"176 -164 CURVE SMOOTH",
"176 -100 OFFCURVE",
"264 -85 OFFCURVE",
"334 -85 CURVE SMOOTH",
"429 -85 LINE SMOOTH",
"603 -85 OFFCURVE",
"664 10 OFFCURVE",
"664 126 CURVE SMOOTH",
"664 241 OFFCURVE",
"603 306 OFFCURVE",
"482 306 CURVE SMOOTH",
"231 306 LINE SMOOTH",
"80 306 OFFCURVE",
"40 229 OFFCURVE",
"40 151 CURVE SMOOTH",
"40 49 OFFCURVE",
"109 0 OFFCURVE",
"201 0 CURVE SMOOTH",
"304 0 OFFCURVE",
"393 61 OFFCURVE",
"393 198 CURVE SMOOTH",
"393 484 LINE",
"363 483 LINE",
"363 201 LINE SMOOTH",
"363 73 OFFCURVE",
"290 26 OFFCURVE",
"203 26 CURVE SMOOTH",
"133 26 OFFCURVE",
"68 56 OFFCURVE",
"68 154 CURVE SMOOTH",
"68 238 OFFCURVE",
"116 280 OFFCURVE",
"231 280 CURVE SMOOTH",
"489 280 LINE SMOOTH",
"581 280 OFFCURVE",
"634 231 OFFCURVE",
"634 129 CURVE SMOOTH",
"634 32 OFFCURVE",
"587 -58 OFFCURVE",
"431 -58 CURVE SMOOTH",
"323 -58 LINE SMOOTH",
"209 -58 OFFCURVE",
"138 -101 OFFCURVE",
"138 -186 CURVE SMOOTH",
"138 -213 OFFCURVE",
"145 -235 OFFCURVE",
"172 -235 CURVE SMOOTH"
);
},
{
closed = 1;
nodes = (
"172 456 LINE SMOOTH",
"172 470 OFFCURVE",
"180 473 OFFCURVE",
"189 473 CURVE SMOOTH",
"543 474 LINE SMOOTH",
"576 474 OFFCURVE",
"602 483 OFFCURVE",
"589 507 CURVE",
"563 499 OFFCURVE",
"523 500 OFFCURVE",
"502 500 CURVE SMOOTH",
"180 500 LINE SMOOTH",
"156 500 OFFCURVE",
"144 489 OFFCURVE",
"144 459 CURVE SMOOTH",
"144 280 LINE",
"172 278 LINE"
);
}
);
width = 704;
}
);
unicode = 0BA4;
},
{
glyphname = "tta-tamil";
lastChange = "2015-07-06 15:58:59 +0000";
layers = (
{
layerId = "60CFBDE8-BC08-4808-BF41-F011F3E03A54";
name = Light;
paths = (
{
closed = 1;
nodes = (
"83 27 LINE",
"83 500 LINE SMOOTH",
"83 512 OFFCURVE",
"75 522 OFFCURVE",
"63 522 CURVE SMOOTH",
"54 522 OFFCURVE",
"49 518 OFFCURVE",
"45 514 CURVE",
"52 496 OFFCURVE",
"52 468 OFFCURVE",
"52 448 CURVE SMOOTH",
"52 39 LINE SMOOTH",
"52 18 OFFCURVE",
"49 0 OFFCURVE",
"69 0 CURVE SMOOTH",
"814 0 LINE",
"814 27 LINE"
);
}
);
width = 834;
},
{
layerId = "EBFFFCD3-BAE4-48A5-9442-B72A90AD34A8";
name = Bold;
paths = (
{
closed = 1;
nodes = (
"197 43 LINE",
"197 454 LINE SMOOTH",
"197 499 OFFCURVE",
"176 520 OFFCURVE",
"109 520 CURVE SMOOTH",
"100 520 OFFCURVE",
"61 517 OFFCURVE",
"40 511 CURVE",
"47 493 OFFCURVE",
"47 465 OFFCURVE",
"47 445 CURVE SMOOTH",
"47 39 LINE SMOOTH",
"47 18 OFFCURVE",
"57 0 OFFCURVE",
"86 0 CURVE SMOOTH",
"871 0 LINE",
"871 43 LINE"
);
}
);
width = 901;
},
{
associatedMasterId = "60CFBDE8-BC08-4808-BF41-F011F3E03A54";
layerId = "54677319-D4DC-4EF8-B048-FF71F941BAA3";
name = "Light Jul 6 15, 14:53";
paths = (
{
closed = 1;
nodes = (
"71 -1 OFFCURVE",
"82 0 OFFCURVE",
"88 11 CURVE",
"82 21 OFFCURVE",
"83 52 OFFCURVE",
"83 80 CURVE SMOOTH",
"82 500 LINE SMOOTH",
"82 514 OFFCURVE",
"75 522 OFFCURVE",
"63 522 CURVE SMOOTH",
"54 522 OFFCURVE",
"49 518 OFFCURVE",
"45 514 CURVE",
"54 484 OFFCURVE",
"51 376 OFFCURVE",
"51 335 CURVE SMOOTH",
"52 39 LINE SMOOTH",
"52 15 OFFCURVE",
"53 -1 OFFCURVE",
"68 -1 CURVE SMOOTH"
);
},
{
closed = 1;
nodes = (
"71 0 LINE",
"814 0 LINE",
"814 27 LINE",
"71 27 LINE"
);
}
);
width = 824;
}
);
unicode = 0B9F;
},
